<?xml version="1.0" encoding="utf-8"?>
<!-- Generator: Adobe Illustrator 16.0.0, SVG Export Plug-In . SVG Version: 6.00 Build 0)  -->
<!DOCTYPE svg PUBLIC "-//W3C//DTD SVG 1.1//EN" "http://www.w3.org/Graphics/SVG/1.1/DTD/svg11.dtd">
<svg version="1.1" id="Layer_1" xmlns="http://www.w3.org/2000/svg" xmlns:xlink="http://www.w3.org/1999/xlink" x="0px" y="0px"
	 width="640px" height="294px" viewBox="0 0 640 294" enable-background="new 0 0 640 294" xml:space="preserve">
<g>
	<g>
		<path fill-rule="evenodd" clip-rule="evenodd" fill="none" d="M320.959,295.963c-105.32,0-210.64-0.021-315.96,0.096
			c-3.423,0.004-4.1-0.672-4.095-4.096C1.023,196.309,1.023,100.654,0.904,5C0.9,1.576,1.577,0.904,5,0.906
			c210.973,0.105,421.947,0.105,632.92,0c3.423-0.002,4.099,0.67,4.095,4.094c-0.119,95.654-0.119,191.309,0,286.963
			c0.004,3.424-0.672,4.1-4.095,4.096C532.266,295.941,426.613,295.963,320.959,295.963z M206.087,76.779
			c0.062-2.009-0.226-3.836-1.37-5.654c-2.989-4.752-4.704-10.159-7.642-14.991c-1.969-3.238-6.401-6.419-9.746-4.793
			c-3.831,1.861-7.967,2.661-11.804,4.463c-9.841,4.62-19.521,9.572-29.58,13.769c-5.256,2.193-11.151,3.686-15.149,8.347
			c-4.145,1.168-5.792,4.456-4.387,8.865c0.881,2.764,1.836,5.503,2.758,8.254c-10.942,2.853-22.354,1.725-33.375,3.938
			c-3.014,0.605-3.791-0.619-3.921-3.731c-0.364-8.715-3.334-16.955-10.183-22.255c-4.217-3.264-3.403-7.485-2.242-9.49
			c1.308-2.258,3.556-6.523,6.662-6.291c9.709,0.724,18.666-3.597,28.283-3.343c6.091,0.161,8.031-2.429,7.49-8.787
			c-0.197-2.326,0.663-5.207-3.528-6.297c-7.134-1.857-13.47-6.277-16.127-13.104c-2.641-6.782-8.822-6.927-13.413-8.272
			c-7.061-2.07-15.029-2.489-22.363-0.234c-3.639,1.118-8.323,1.213-10.55,4.935c-1.725,2.881-3.404,3.583-6.635,3.008
			c-3.879-0.69-6.617,1.659-7.929,5.183c-1.243,3.339-0.028,6.745,2.877,8.152c4.216,2.042,3.434,5.622,2.359,7.965
			c-1.659,3.618-3.103,7.519-5.41,10.752c-5.617,7.871-8.628,17.146-14.083,25.097c-2.72,3.967-1.754,9.246-3.362,13.443
			c-2.64,6.89-3.362,13.884-2.51,20.824c0.773,6.302,0.721,12.536,0.752,18.797c0.101,19.995,0.121,39.99-0.042,59.984
			c-0.028,3.502,0.507,4.819,4.492,4.772c20.159-0.242,40.323-0.202,60.483-0.033c3.896,0.033,4.96-1.078,5.242-5.053
			c0.742-10.477-1.857-20.644-2.116-30.991c-0.167-6.661,0.278-13.348-0.119-19.989c-0.396-6.62,2.009-12.42,3.986-18.44
			c0.53-1.612,1.328-1.465,2.459-1.609c14.394-1.839,28.887-3.223,42.484-8.881c0.388,1.238,0.712,2.5,1.175,3.708
			c3.179,8.284,5.435,9.273,14.189,7.469c4.585-0.944,8.643-3.071,12.683-5.038c12.454-6.064,25.486-10.756,38.03-16.581
			c2.611-2.354,7.337-2.773,7.917-6.849C213.956,89.855,211.326,82.829,206.087,76.779z M313.077,181.034
			c1.32-0.033,2.348-0.481,3.553-1.229c3.605-2.233,6.803-5.297,11.328-6.597c-0.112,3.892-0.002,7.275-0.792,10.763
			c-0.858,3.787-2.463,7.391-2.351,11.509c0.095,3.468,1.472,3.883,4.189,3.339c21.822,0.052,43.645,0.049,65.465,0.22
			c2.909,0.022,3.516-0.921,3.547-3.655c0.175-15.144-0.606-30.211-3.074-45.163c-2.563-15.526-5.178-30.979-14.963-44.146
			c-4.03-5.424-7.398-11.538-13.592-14.618c-11.913-5.924-24.098-8.669-37.854-5.771c-17.845,3.76-27.784,15.576-34.773,30.603
			c-5.937,12.766-8.116,26.738-9.88,40.672c-5.563-0.676-10.874-3.28-16.65-2.269c-3.264,0.571-4.56-1.525-5.185-3.993
			c-1.924-7.609-4.754-14.763-8.649-21.629c-2.096-3.696-4.897-4.957-8.25-3.867c-3.554,1.156-7.227,1.895-10.748,3.338
			c-7.075,2.899-14.388,5.307-21.751,7.389c-8.886,2.512-11.669,7.435-8.676,16.462c0.445,1.343,1.592,2.632,0.376,4.662
			c-11.308-1.081-22.774,1.948-34.441,0.598c-2.345-0.272-3.002-1.049-3.657-2.68c-2.353-5.858-6.229-8.003-12.259-6.293
			c-4.403,1.249-8.723,2.84-12.993,4.502c-5.428,2.112-10.6,5.106-16.185,6.542c-9.19,2.364-17.678,6.454-26.479,9.738
			c-3.841,1.434-6.33,4.645-5.352,9.472c1.214,5.986,3.558,11.554,5.862,17.152c1.23,2.987,3.244,3.6,6.396,2.214
			c-3.009-5.962-4.943-12.023-7.342-18.665c2.805,1.098,4.885,1.912,6.966,2.726c5.104,3.137,10.624,5.438,16.186,7.544
			c3.074,1.164,3.698,2.384,1.698,4.95c-0.896,1.151-3.157,2.608-0.906,3.766c1.401,0.72,4.574,2.008,5.31-1.918
			c0.531-2.836,2.717-3.687,5.204-2.432c4.107,2.072,6.516-0.143,8.792-3.025c0.303-0.386,0.576-0.816,0.766-1.267
			c0.802-1.911,1.643-3.567,4.291-3.012c3.304,0.691,1.35,3.182,1.702,4.807c0.344,1.587,0.146,3.309,0.065,4.965
			c-0.086,1.756,0.732,2.313,2.38,2.254c1.414-0.051,2.729-0.002,2.62-1.994c-0.404-7.421,0.948-14.913-0.909-22.274
			c0.426-2.102,0.851-4.204,1.334-6.593c5.97,4.132,9.658,10.212,15.473,13.896c0.182,0.757,0.17,1.428,1.09,1.99
			c3.141,1.922,5.067,3.484,0.322,6.571c-3.156,2.054-6.642,4.523-8.761,7.933c6.271,2.574,9.266-2.389,13.106-5.145
			c2.111-1.515,3.575-2.757,6.263-0.561c2.693,2.201,6.207,1.683,8.542-0.831c3.44-3.702,5.791-3.313,9.497,0.074
			c8.224,7.518,8.471,7.248,13.845,6.272c-2.847-2.94-5.846-5.469-8.738-8.124c-1.899-1.742-7.155-2.453-4.281-7.287
			c6.478-5.671,12.956-11.342,19.503-17.073c1.537,3.092,1.732,5.993,1.75,8.994c0.042,7.146-0.506,14.315,0.852,21.428
			c0.313,1.641,0.36,2.792,2.504,2.757c1.903-0.032,2.694-0.568,2.625-2.559c-0.34-9.925,0.376-19.9-1.108-29.768
			c-0.911-6.056-4.524-9.238-10.302-9.714c-5.85-0.481-7.283-2.268-7.054-9.024c6.853,4.191,13.627,8.305,20.362,12.482
			c1.087,0.674,2.166,1.39,1.19,3.137c-3.227,5.772,0.642,8.743,4.975,10.87c3.088,1.517,3.151,3.003,1.943,5.807
			c-2.568,5.96-4.789,12.07-7.155,18.126c3.383,1.504,5.241,0.347,6.354-2.648c2.028-5.458,4.127-10.89,6.385-16.829
			c1.95,2.042,4.25,2.422,6.282,3.395c6.069,4.222,13.258,6.597,19.122,11.287c-2.047,3.131-6.67,1.765-8.699,5.729
			c4.635-1.248,9.319,1.562,12.86-2.083c2.912-2.997,6.505-4.844,9.922-7.124c2.866,3.977,5.76,6.646,10.921,3.294
			c3.131-2.032,6.512-3.164,9.115,1.803c1.214,2.316,3.698,5.739,8.071,2.888c-1.852-2.548-3.413-5.388-5.638-7.545
			c-1.826-1.77-1.266-2.216,0.274-3.609C307.361,184.633,311.345,184.401,313.077,181.034z M364.956,44.941
			c1.776-14.672-14.312-28.99-28.265-29.283c-17.315-0.364-29.73,15.785-30.077,28.544c-0.417,15.345,13.772,29.939,29,30.145
			C350.897,74.554,366.688,59.672,364.956,44.941z M473.958,244.656c-0.4-1.133-0.634-2.286-1.195-3.249
			c-0.6-1.03-1.762-0.703-2.709-0.527c-1.165,0.216-0.943,1.144-0.803,1.952c1.992,11.402,0.58,22.906,1.063,34.352
			c0.067,1.599-1.04,4.243,1.841,4.299c3.426,0.065,1.905-2.929,1.938-4.517c0.171-8.149,0.037-16.305,0.097-24.458
			c0.031-4.318,3.925-8.82,7.477-8.373c4.683,0.589,4.187,4.518,4.229,7.746c0.111,8.65-0.013,17.305,0.09,25.956
			c0.016,1.36-1.11,3.682,1.769,3.725c2.698,0.039,2.052-2.095,2.06-3.621c0.042-8.486,0.007-16.973,0.025-25.459
			c0.011-4.821,3.214-8.833,7.024-8.438c5.097,0.53,4.339,4.672,4.377,8.037c0.1,8.817,0.042,17.638,0.028,26.456
			c-0.002,1.594,0.032,3.088,2.234,3.052c1.766-0.028,1.652-1.347,1.647-2.479c-0.043-10.48,0.133-20.97-0.28-31.437
			c-0.23-5.843-5.953-8.622-11.352-5.961c-1.542,0.761-2.88,1.934-4.294,2.904C484.406,239.421,481.385,239.418,473.958,244.656z
			 M362.679,277.166c0.266,0.881,0.354,1.383,0.563,1.826c0.631,1.339,0.335,3.714,2.948,2.986c2.568-0.716,0.601-2.481,0.578-3.656
			c-0.054-2.805-0.756-5.599-0.783-8.401c-0.129-13.462-0.1-26.926-0.191-40.39c-0.01-1.465,0.782-3.678-1.979-3.66
			c-2.856,0.018-1.772,2.316-1.813,3.694c-0.133,4.466-0.05,8.938-0.05,13.504c-13.642-4.435-22.284-0.121-24.616,12.282
			c-0.891,4.742-0.58,9.53,0.45,14.333C339.96,279.819,352.272,287.885,362.679,277.166z M539.437,277.048
			c0.484,1.594,0.808,2.869,1.264,4.095c0.457,1.229,1.497,1.053,2.512,0.869c1.65-0.3,0.962-1.404,0.724-2.243
			c-2.279-8.033-0.825-16.218-0.951-24.328c-0.197-12.675-7.479-17.787-19.404-13.312c-1.328,0.499-3.148,0.728-2.419,2.919
			c0.827,2.489,2.395,0.893,3.598,0.5c10.959-3.578,15.7,0.41,13.737,11.611c-11.13-2.902-15.922-1.732-19.127,4.67
			c-3.084,6.157-1.782,14.873,2.746,18.392C526.741,283.813,532.893,282.782,539.437,277.048z M455.47,275.358
			c-1.348,0.611-2.673,1.262-4.035,1.822c-11.277,4.644-18.019,0.892-20.167-10.992c-0.544-3.01-0.095-4.19,3.294-4.065
			c6.644,0.244,13.304,0.116,19.955,0.031c1.268-0.017,2.929,0.809,3.463-1.61c2.286-10.342-7.222-21.05-17.5-19.552
			c-6.943,1.012-11.81,6.637-13.084,16.164c-1.113,8.316-0.502,16.701,6.701,22.314c6.334,4.936,13.534,2.898,20.456,0.527
			C457.695,278.922,457.494,277.405,455.47,275.358z M29.3,251.229c-0.545-3.612-0.958-6.075-1.274-8.549
			c-0.167-1.306-0.92-1.629-2.059-1.546c-1.341,0.098-1.511,0.812-1.321,2.03c1.855,11.911,1.245,23.92,1.354,35.901
			c0.01,1.151-0.124,2.445,1.645,2.472c1.778,0.026,2.236-1.002,2.228-2.565c-0.027-5.164,0.05-10.33-0.022-15.493
			c-0.057-4.08,0.753-7.962,2.511-11.606c2.509-5.203,7.932-8.845,11.722-7.631c5.465,1.753,4.761,6.665,4.854,10.876
			c0.172,7.827,0.033,15.66,0.07,23.49c0.006,1.223-0.458,2.874,1.677,2.919c1.405,0.029,2.205-0.638,2.156-2.097
			c-0.349-10.471,1.085-21.015-0.857-31.403c-1.142-6.102-6.096-8.55-12.172-6.649C35.104,242.85,32.088,246.284,29.3,251.229z
			 M317.838,272.697c1.636,2.617,0.869,5.081,1.542,7.265c0.35,1.132,1.092,1.639,2.207,1.558c1.412-0.104,1.423-1.172,1.313-2.193
			c-0.285-2.643-0.847-5.276-0.896-7.921c-0.155-8.493-0.081-16.99-0.217-25.483c-0.024-1.563,1.042-4.119-2.082-4.038
			c-2.806,0.072-1.646,2.421-1.696,3.798c-0.154,4.16,0.051,8.331-0.09,12.492c-0.184,5.374-0.997,10.668-4.173,15.192
			c-2.49,3.545-5.771,6.607-10.408,5.35c-4.649-1.262-4.447-5.705-4.481-9.545c-0.071-8.163-0.02-16.326-0.031-24.489
			c-0.002-1.329,0.125-2.721-1.858-2.854c-2.07-0.14-2.007,1.224-2.004,2.599c0.019,9.495-0.348,19.012,0.175,28.479
			c0.481,8.711,8.156,12.104,15.595,7.409C313.601,278.506,315.567,275.825,317.838,272.697z M248.011,261.327
			c-0.111,4.21,0.418,8.361,2.175,12.174c2.376,5.153,6.15,8.481,12.257,8.691c6.375,0.218,11.135-2.308,13.628-8.077
			c3.733-8.645,3.774-17.492-0.454-26.01c-2.513-5.061-7.013-7.351-12.67-7.274c-5.519,0.075-9.471,2.749-12.057,7.49
			C248.688,252.36,248.076,256.798,248.011,261.327z M129.071,255.962c-5.636-3.647-5.384-12.909-14.827-14.688
			c3.939,5.967,6.943,10.922,10.379,15.559c1.821,2.457,1.758,4.102-0.076,6.491c-4.387,5.715-8.459,11.672-12.913,17.889
			c7.014,1.459,7.356-4.362,9.882-7.338c2.711-3.197,4.354-7.248,7.72-10.42c3.654,5.46,7.115,10.535,10.467,15.681
			c1.58,2.426,3.422,3.169,6.327,1.717c-4.378-6.114-8.419-12.017-12.758-17.69c-1.796-2.35-1.945-4.061-0.171-6.502
			c3.337-4.593,6.315-9.445,9.443-14.19c-0.434-0.33-0.869-0.66-1.303-0.99C134.396,243.764,133.997,252.053,129.071,255.962z
			 M159.242,262.182c0.252,1.968,0.354,4.66,0.966,7.229c3.001,12.617,17.074,17.217,26.471,8.674
			c1.023-0.931,3.392-1.669,1.414-3.846c-1.998-2.2-2.812,0.165-3.875,1.068c-7.621,6.481-16.505,4.117-19.72-5.381
			c-1.868-5.519-1.866-11.176-0.127-16.7c3.117-9.901,13.081-12.051,20.115-4.451c0.929,1.004,1.398,2.879,3.435,1.36
			c2.342-1.745,0.42-2.912-0.515-4.024c-7.068-8.394-20.457-6.646-25.5,3.281C159.975,253.196,159.543,257.319,159.242,262.182z
			 M623.931,253.989c0-6.318,0-12.638,0-18.956c0-9.3-0.004-9.436-9.273-9.194c-2.085,0.055-6.124-1.747-6.012,1.686
			c0.098,2.956,4.171,1.453,6.284,1.314c4.096-0.27,5.292,0.882,5.208,5.131c-0.294,14.794-0.117,29.597-0.108,44.396
			c0.001,1.463-0.313,3.152,1.993,3.227c2.533,0.081,1.874-1.835,1.882-3.159C623.955,270.285,623.93,262.137,623.931,253.989z
			 M220.853,253.738c0-6.488,0-12.976,0-19.463c0-8.499-0.004-8.642-8.251-8.41c-2.371,0.067-6.732-1.661-6.789,1.412
			c-0.065,3.554,4.28,1.576,6.5,1.549c3.603-0.044,4.818,0.758,4.75,4.646c-0.257,14.634-0.143,29.276-0.042,43.915
			c0.01,1.475-1.284,4.199,1.896,4.076c2.922-0.112,1.871-2.677,1.891-4.27C220.905,269.376,220.853,261.557,220.853,253.738z
			 M579.825,261.827c0-5.661,0.001-11.322,0-16.984c0-1.502,0.229-3.121-2.097-3.101c-3.829,0.035-7.659-0.01-11.488,0.021
			c-1.071,0.009-1.972,0.351-1.929,1.7c0.044,1.399,1.05,1.488,2.074,1.502c1.832,0.023,3.688,0.204,5.489-0.028
			c3.276-0.423,4.195,0.8,4.119,4.074c-0.219,9.653-0.116,19.313-0.033,28.971c0.012,1.381-1.003,3.71,1.916,3.586
			c2.687-0.113,1.902-2.265,1.922-3.757C579.87,272.484,579.827,267.155,579.825,261.827z M87,261.587c0-3.657,0-7.315,0-10.973
			c0-8.842-0.005-8.988-8.813-8.729c-2.059,0.061-5.986-1.851-5.977,1.708c0.007,2.694,3.893,1.421,5.852,1.254
			c4.25-0.362,5.289,1.144,5.15,5.254c-0.318,9.465-0.091,18.949-0.106,28.427c-0.002,1.617,0.098,3.104,2.272,3.003
			c2.133-0.1,1.586-1.789,1.597-2.986C87.028,272.893,86.999,267.239,87,261.587z M402.951,277.178
			c-0.571-3.096-2.28-5.241-5.658-5.01c-3.071,0.211-4.949,2.359-4.844,5.349c0.115,3.234,2.166,5.293,5.573,5.038
			C401.08,282.326,402.749,280.39,402.951,277.178z M84.841,226.154c-2.458,0.557-4.036,1.831-3.816,4.471
			c0.223,2.678,1.923,3.715,4.461,3.509c2.395-0.195,3.583-1.564,3.494-3.956C88.881,227.508,87.156,226.483,84.841,226.154z
			 M577.455,226.044c-1.82,0.568-3.733,1.29-3.753,4.036c-0.018,2.563,1.107,4.026,3.769,4.111c2.612,0.082,4.1-1.39,4.251-3.775
			C581.881,227.916,580.119,226.657,577.455,226.044z"/>
		<path fill-rule="evenodd" clip-rule="evenodd" fill="#494949" d="M138.831,115.089c-13.597,5.658-28.09,7.042-42.484,8.881
			c-1.132,0.145-1.93-0.003-2.459,1.609c-1.978,6.021-4.382,11.821-3.986,18.44c0.396,6.642-0.048,13.328,0.119,19.989
			c0.259,10.348,2.858,20.515,2.116,30.991c-0.282,3.975-1.346,5.086-5.242,5.053c-20.16-0.169-40.324-0.209-60.483,0.033
			c-3.985,0.047-4.521-1.271-4.492-4.772c0.162-19.994,0.142-39.989,0.042-59.984c-0.031-6.261,0.021-12.495-0.752-18.797
			c-0.852-6.94-0.129-13.934,2.51-20.824c1.608-4.197,0.642-9.477,3.362-13.443c5.455-7.952,8.466-17.226,14.083-25.097
			c2.308-3.233,3.751-7.134,5.41-10.752c1.075-2.344,1.857-5.923-2.359-7.965c-2.906-1.407-4.121-4.813-2.877-8.152
			c1.313-3.524,4.05-5.873,7.929-5.183c3.231,0.575,4.91-0.127,6.635-3.008c2.228-3.722,6.911-3.817,10.55-4.935
			c7.334-2.255,15.303-1.836,22.363,0.234c4.59,1.346,10.771,1.49,13.413,8.272c2.657,6.826,8.994,11.246,16.127,13.104
			c4.19,1.091,3.331,3.972,3.528,6.297c0.541,6.358-1.399,8.948-7.49,8.787c-9.617-0.254-18.573,4.067-28.283,3.343
			c-3.106-0.232-5.354,4.033-6.662,6.291c-1.161,2.005-1.975,6.226,2.242,9.49c6.849,5.301,9.819,13.541,10.183,22.255
			c0.13,3.112,0.907,4.336,3.921,3.731c11.02-2.213,22.432-1.085,33.375-3.938c1.953-0.027,3.906-0.054,5.859-0.082
			c2.063-0.212,3.932-1.217,6.139-1.025c4.399,0.382,9.963,4.081,10.67,7.875c0.923,4.954-1.078,8.452-5.948,10.239
			c-0.838,0.308-1.448,1.238-2.163,1.881C141.974,113.811,140.337,114.174,138.831,115.089z"/>
		<path fill-rule="evenodd" clip-rule="evenodd" fill="#494949" d="M283.88,156.959c1.764-13.934,3.943-27.906,9.88-40.672
			c6.989-15.026,16.928-26.843,34.773-30.603c13.756-2.898,25.94-0.152,37.854,5.771c6.193,3.081,9.562,9.194,13.592,14.618
			c9.785,13.167,12.4,28.62,14.963,44.146c2.468,14.952,3.249,30.02,3.074,45.163c-0.031,2.734-0.638,3.678-3.547,3.655
			c-21.82-0.171-43.643-0.168-65.465-0.22c1.216-7.454,2.372-14.919,3.667-22.359c0.866-4.979-1.483-9.028-5.771-11.66
			c-3.546-2.177-7.407-1.349-11.02-2.375C305.416,159.454,294.349,159.951,283.88,156.959z"/>
		<path fill-rule="evenodd" clip-rule="evenodd" fill="#6E6D6E" d="M283.88,156.959c10.469,2.992,21.535,2.495,32,5.466
			c3.613,1.026,7.474,0.198,11.02,2.375c4.287,2.632,6.637,6.681,5.771,11.66c-1.295,7.44-2.451,14.905-3.667,22.359
			c-2.718,0.544-4.095,0.129-4.189-3.339c-0.112-4.118,1.492-7.722,2.351-11.509c0.79-3.487,0.68-6.871,0.792-10.763
			c-4.524,1.3-7.722,4.363-11.328,6.597c-1.205,0.747-2.232,1.195-3.553,1.229c-1.278-0.978-3.256-0.67-4.189-2.282
			c4.45-3.499,9.952-5.575,13.923-10.338c-19.09-3.108-37.784-7.229-56.914-9.239c3.89,7.283,8.701,13.633,13.765,19.804
			c-1.243,1.438-3.587,0.343-4.712,2.051c-0.32-0.062-0.635-0.044-0.946,0.052c-1.743-1.637-3.453-1.66-5.126,0.104
			c-6.153-16.123-12.306-32.246-18.564-48.647c-3.123,2.893-3.61,6.11-5.076,8.813c-4.163,7.68-7.585,15.709-10.284,24.03
			c-0.537,1.654-0.634,2.487,1.327,4.098c4.992,4.101,11.364,5.881,16.021,10.338c-1.651,0.128-3.311,0.244-3.438,2.482
			c-2.033-0.973-4.332-1.353-6.282-3.395c-2.258,5.939-4.357,11.371-6.385,16.829c-1.114,2.995-2.972,4.152-6.354,2.648
			c2.366-6.056,4.586-12.166,7.155-18.126c1.208-2.804,1.145-4.29-1.943-5.807c-4.333-2.127-8.202-5.098-4.975-10.87
			c0.976-1.747-0.103-2.463-1.19-3.137c-6.735-4.177-13.51-8.291-20.362-12.482c-0.229,6.756,1.204,8.542,7.054,9.024
			c5.778,0.476,9.392,3.658,10.302,9.714c1.484,9.867,0.768,19.843,1.108,29.768c0.068,1.99-0.722,2.526-2.625,2.559
			c-2.145,0.035-2.191-1.116-2.504-2.757c-1.358-7.112-0.81-14.281-0.852-21.428c-0.018-3.001-0.213-5.902-1.75-8.994
			c-6.547,5.731-13.025,11.402-19.503,17.073c-1.082-1.14-1.689-2.493-1.819-4.061c4.919-6.277,12.022-10.305,17.081-16.56
			c-4.651-1.934-9.38-1.266-14.137-0.853c-5.756,0.501-11.584,1.397-17.291,0.957c-8.184-0.631-16.23,0.804-24.35,0.606
			c-0.74-0.018-1.772-0.311-2.076,0.783c-0.281,1.014,0.184,1.546,1.042,2.352c4.729,4.438,9.232,9.116,13.812,13.714
			c-0.691,1.241-2.023,1.553-3.147,2.167c-5.814-3.685-9.502-9.765-15.473-13.896c-0.484,2.389-0.909,4.491-1.334,6.594
			c-0.313,5.894-2.832,7-9.16,4.026c2.291-4.6,6.019-8.625,5.152-14.438c-0.348-2.333,1.146-4.577,3.308-4.907
			c3.409-0.521,3.45-2.952,5.009-6.654c-19.751,7.459-38.215,14.433-56.679,21.405c0.139,0.453,0.278,0.906,0.417,1.359
			c2.956,1.255,5.913,2.509,8.869,3.764c-1.256,1.182-4.194,0.116-4.115,3.08c-2.081-0.813-4.162-1.628-6.966-2.726
			c2.399,6.642,4.333,12.703,7.342,18.665c-3.151,1.386-5.165,0.773-6.396-2.214c-2.304-5.599-4.648-11.166-5.862-17.152
			c-0.979-4.827,1.511-8.038,5.352-9.472c8.801-3.284,17.288-7.374,26.479-9.738c5.584-1.436,10.756-4.43,16.185-6.542
			c4.27-1.662,8.589-3.253,12.993-4.502c6.029-1.71,9.906,0.435,12.259,6.293c0.655,1.631,1.312,2.407,3.657,2.68
			c11.667,1.351,23.133-1.679,34.441-0.598c1.216-2.03,0.069-3.319-0.376-4.662c-2.993-9.028-0.21-13.951,8.676-16.462
			c7.364-2.082,14.677-4.49,21.751-7.389c3.521-1.443,7.194-2.182,10.748-3.338c3.353-1.09,6.154,0.17,8.25,3.867
			c3.895,6.866,6.725,14.02,8.649,21.629c0.625,2.468,1.921,4.564,5.185,3.993C273.006,153.679,278.317,156.283,283.88,156.959z
			 M209.718,142.853c6.641,4.672,13.646,7.896,19.598,12.731c1.816,1.476,3.565,0.897,4.681-1.593
			c2.992-6.679,6.198-13.263,9.363-19.864c0.447-0.932,0.992-1.905,0.24-2.735c-0.787-0.868-1.763-0.235-2.708,0.112
			C230.693,135.249,220.477,138.945,209.718,142.853z"/>
		<path fill-rule="evenodd" clip-rule="evenodd" fill="#494949" d="M364.956,44.941c1.732,14.731-14.059,29.613-29.342,29.406
			c-15.228-0.206-29.417-14.8-29-30.145c0.347-12.759,12.762-28.908,30.077-28.544C350.645,15.952,366.732,30.269,364.956,44.941z"
			/>
		<path fill-rule="evenodd" clip-rule="evenodd" fill="#6E6E6E" d="M135.026,94.958c-1.953,0.027-3.906,0.054-5.859,0.082
			c-0.922-2.75-1.877-5.49-2.758-8.254c-1.404-4.409,0.243-7.697,4.387-8.865c1.756,0.564,4.366-1.175,5.184,1.92
			c-0.697,1.046-2.595,0.701-2.834,2.493c11.202,3.453,21.602,9.015,33.067,11.648c2.386,0.548,3.607,0.186,4.977-1.992
			c2.85-4.533,3.905-10.008,7.581-14.067c1.442,0.036,2.885,0.071,4.328,0.106c-1.008,2.162-1.062,4.688-2.989,6.926
			c9.484,3.63,18.928,6.008,29.003,8.343c-1.908-5.937-5.094-10.184-6.26-15.269c1.213-0.066,2.514,0.095,3.234-1.249
			c5.239,6.049,7.868,13.076,6.738,21.02c-0.58,4.075-5.306,4.494-7.917,6.849c-0.701-1.818-3.104-1.203-3.973-2.78
			c0.634-2.263,2.911-2.505,4.778-3.542c-8.271-3.625-17.071-4.541-25.045-8.074c-2.723-1.207-3.605,0.969-4.693,2.989
			c-1.378,2.559-2.156,6.243-6.235,5.692c-3.893-0.525-6.59,0.875-8.512,4.138c-1.638-0.026-3.277-0.053-4.915-0.079
			c3.334-5.441,3.33-5.429-2.146-7.383c-0.77-0.275-1.447-0.805-2.213-1.098c-6.484-2.485-12.978-4.942-19.468-7.409
			C133.54,89.802,133.542,92.637,135.026,94.958z"/>
		<path fill-rule="evenodd" clip-rule="evenodd" fill="#6E6E6E" d="M135.98,79.84c-0.818-3.095-3.428-1.356-5.184-1.92
			c3.999-4.661,9.894-6.154,15.149-8.347c10.059-4.197,19.739-9.149,29.58-13.769c3.837-1.802,7.973-2.602,11.804-4.463
			c3.345-1.626,7.777,1.555,9.746,4.793c2.938,4.832,4.653,10.239,7.642,14.991c1.144,1.818,1.432,3.645,1.37,5.654
			c-0.721,1.343-2.021,1.183-3.234,1.249c-1.786-1.128-2.343-2.952-2.905-4.848c-1.599-5.402-4.272-10.268-7.422-14.974
			c-3.228,6.788-6.328,13.305-9.427,19.822c-1.443-0.036-2.886-0.071-4.328-0.106c1.223-7.39,6.376-13.309,7.961-20.526
			c-1.293-0.698-2.121-0.041-3.011,0.371c-8.7,4.02-17.407,8.022-26.106,12.042C150.399,73.143,143.191,76.495,135.98,79.84z"/>
		<path fill-rule="evenodd" clip-rule="evenodd" fill="#4B4B4B" d="M473.958,244.656c7.427-5.238,10.448-5.235,15.266-0.039
			c1.414-0.971,2.752-2.144,4.294-2.904c5.398-2.661,11.121,0.118,11.352,5.961c0.413,10.467,0.237,20.956,0.28,31.437
			c0.005,1.132,0.118,2.45-1.647,2.479c-2.202,0.036-2.236-1.458-2.234-3.052c0.014-8.818,0.071-17.639-0.028-26.456
			c-0.038-3.365,0.72-7.507-4.377-8.037c-3.811-0.396-7.014,3.616-7.024,8.438c-0.019,8.486,0.017,16.973-0.025,25.459
			c-0.008,1.526,0.639,3.66-2.06,3.621c-2.879-0.043-1.753-2.364-1.769-3.725c-0.103-8.651,0.021-17.306-0.09-25.956
			c-0.042-3.229,0.454-7.157-4.229-7.746c-3.552-0.447-7.445,4.055-7.477,8.373c-0.06,8.153,0.074,16.309-0.097,24.458
			c-0.033,1.588,1.487,4.582-1.938,4.517c-2.881-0.056-1.773-2.7-1.841-4.299c-0.482-11.445,0.93-22.949-1.063-34.352
			c-0.141-0.809-0.362-1.736,0.803-1.952c0.947-0.176,2.109-0.503,2.709,0.527C473.324,242.37,473.558,243.523,473.958,244.656z"/>
		<path fill-rule="evenodd" clip-rule="evenodd" fill="#6E6E6E" d="M268.878,181.185c1.673-1.764,3.383-1.74,5.126-0.104
			c0.992,2.26-0.715,6.731,4.954,5.86c-1.533-2.261-2.77-4.087-4.007-5.912c1.125-1.708,3.469-0.613,4.712-2.051
			c1.527,3.041,4.481,5.211,5.827,8.16c1.839,4.029,4.29,3.075,6.77,1.67c5.633-3.194,11.097-6.687,16.628-10.057
			c0.933,1.612,2.911,1.305,4.189,2.282c-1.732,3.367-5.715,3.599-8.265,5.904c-1.54,1.394-2.1,1.84-0.274,3.609
			c2.225,2.157,3.787,4.997,5.638,7.545c-4.374,2.852-6.857-0.571-8.071-2.888c-2.603-4.967-5.983-3.835-9.115-1.803
			c-5.161,3.352-8.055,0.683-10.921-3.294c-3.417,2.28-7.01,4.127-9.922,7.124c-3.542,3.645-8.226,0.835-12.86,2.083
			c2.029-3.965,6.652-2.599,8.699-5.729c-5.864-4.69-13.053-7.065-19.122-11.287c0.126-2.238,1.786-2.354,3.438-2.482
			c6.427,2.037,11.858,6.135,18.194,8.914C271.285,185.802,268.529,183.798,268.878,181.185z"/>
		<path fill-rule="evenodd" clip-rule="evenodd" fill="#6E6E6E" d="M362.679,277.166c-10.406,10.719-22.719,2.653-24.895-7.481
			c-1.03-4.803-1.341-9.591-0.45-14.333c2.332-12.403,10.975-16.717,24.616-12.282c0-4.566-0.083-9.038,0.05-13.504
			c0.041-1.378-1.043-3.677,1.813-3.694c2.762-0.018,1.97,2.195,1.979,3.66c0.092,13.464,0.063,26.928,0.191,40.39
			c0.027,2.803,0.729,5.597,0.783,8.401c0.022,1.175,1.99,2.94-0.578,3.656c-2.613,0.728-2.317-1.647-2.948-2.986
			C363.032,278.549,362.944,278.047,362.679,277.166z M361.95,259.967c0-2.497,0.005-4.995-0.001-7.493
			c-0.014-5.246-2.733-8.189-8.107-8.374c-3.882-0.134-7.106,1.542-9.541,4.567c-4.996,6.208-4.877,20.193,0.281,26.347
			c2.78,3.316,6.402,5.09,10.636,3.467c4.158-1.595,6.748-4.747,6.733-9.521C361.942,265.962,361.95,262.965,361.95,259.967z"/>
		<path fill-rule="evenodd" clip-rule="evenodd" fill="#6E6E6E" d="M156.313,102.993c1.638,0.026,3.277,0.053,4.915,0.079
			c-1.51,6.529-6.367,11.564-8.257,18.235c2.524-0.82,4.88-1.376,7.062-2.332c9.999-4.379,19.836-9.153,29.977-13.167
			c3.562-1.41,6.68-4.372,10.926-3.941c0.87,1.577,3.272,0.962,3.973,2.78c-12.544,5.825-25.576,10.517-38.03,16.581
			c-4.04,1.966-8.097,4.093-12.683,5.038c-8.755,1.804-11.01,0.815-14.189-7.469c-0.463-1.208-0.787-2.47-1.175-3.708
			c1.506-0.915,3.143-1.278,4.894-1.162c0.311,2.347,1.641,4.201,3.308,6.937C150.301,114.57,153.307,108.782,156.313,102.993z"/>
		<path fill-rule="evenodd" clip-rule="evenodd" fill="#4B4A4B" d="M539.437,277.048c-6.544,5.734-12.695,6.766-17.321,3.173
			c-4.528-3.519-5.83-12.234-2.746-18.392c3.205-6.402,7.997-7.572,19.127-4.67c1.963-11.201-2.778-15.189-13.737-11.611
			c-1.203,0.393-2.771,1.989-3.598-0.5c-0.729-2.191,1.091-2.42,2.419-2.919c11.926-4.476,19.207,0.637,19.404,13.312
			c0.126,8.11-1.328,16.295,0.951,24.328c0.238,0.839,0.927,1.943-0.724,2.243c-1.015,0.184-2.055,0.359-2.512-0.869
			C540.244,279.917,539.921,278.642,539.437,277.048z M538.929,266.648c0.007-6.183-1.73-7.838-8.175-7.788
			c-5.688,0.044-9.053,3.949-9.138,10.604c-0.071,5.52,2.892,9.401,7.243,9.491C534.334,279.069,538.921,273.463,538.929,266.648z"
			/>
		<path fill-rule="evenodd" clip-rule="evenodd" fill="#4A4A4A" d="M455.47,275.358c2.024,2.047,2.226,3.563-0.917,4.64
			c-6.922,2.371-14.122,4.408-20.456-0.527c-7.203-5.613-7.814-13.998-6.701-22.314c1.274-9.527,6.141-15.152,13.084-16.164
			c10.278-1.498,19.786,9.21,17.5,19.552c-0.534,2.419-2.195,1.594-3.463,1.61c-6.651,0.085-13.312,0.213-19.955-0.031
			c-3.389-0.125-3.838,1.056-3.294,4.065c2.148,11.884,8.89,15.636,20.167,10.992C452.797,276.62,454.122,275.97,455.47,275.358z
			 M431.108,258.756c7.831,0,15.28,0,22.723,0c0.101-8.195-4.442-14.416-10.608-14.738
			C436.916,243.688,431.511,250.137,431.108,258.756z"/>
		<path fill-rule="evenodd" clip-rule="evenodd" fill="#6E6E6E" d="M29.3,251.229c2.788-4.944,5.804-8.379,10.511-9.852
			c6.076-1.9,11.03,0.548,12.172,6.649c1.942,10.389,0.508,20.933,0.857,31.403c0.048,1.459-0.751,2.126-2.156,2.097
			c-2.136-0.045-1.671-1.696-1.677-2.919c-0.037-7.83,0.103-15.663-0.07-23.49c-0.093-4.211,0.612-9.123-4.854-10.876
			c-3.79-1.214-9.213,2.428-11.722,7.631c-1.758,3.645-2.568,7.526-2.511,11.606c0.072,5.163-0.005,10.329,0.022,15.493
			c0.008,1.563-0.449,2.592-2.228,2.565c-1.768-0.026-1.634-1.32-1.645-2.472c-0.11-11.981,0.501-23.99-1.354-35.901
			c-0.19-1.219-0.02-1.933,1.321-2.03c1.139-0.083,1.893,0.24,2.059,1.546C28.342,245.153,28.755,247.616,29.3,251.229z"/>
		<path fill-rule="evenodd" clip-rule="evenodd" fill="#6E6E6E" d="M317.838,272.697c-2.271,3.128-4.237,5.809-7.104,7.618
			c-7.439,4.694-15.114,1.302-15.595-7.409c-0.523-9.468-0.156-18.984-0.175-28.479c-0.002-1.375-0.065-2.738,2.004-2.599
			c1.983,0.133,1.856,1.524,1.858,2.854c0.011,8.163-0.041,16.326,0.031,24.489c0.034,3.84-0.168,8.283,4.481,9.545
			c4.637,1.258,7.918-1.805,10.408-5.35c3.176-4.524,3.99-9.818,4.173-15.192c0.142-4.161-0.063-8.332,0.09-12.492
			c0.051-1.377-1.109-3.726,1.696-3.798c3.124-0.081,2.057,2.476,2.082,4.038c0.136,8.493,0.062,16.99,0.217,25.483
			c0.049,2.645,0.61,5.278,0.896,7.921c0.11,1.021,0.1,2.09-1.313,2.193c-1.115,0.081-1.857-0.426-2.207-1.558
			C318.707,277.778,319.474,275.314,317.838,272.697z"/>
		<path fill-rule="evenodd" clip-rule="evenodd" fill="#6E6E6E" d="M142.903,178.749c6.328,2.974,8.846,1.867,9.16-4.026
			c1.857,7.36,0.505,14.853,0.909,22.273c0.108,1.992-1.207,1.943-2.62,1.994c-1.647,0.059-2.466-0.498-2.38-2.254
			c0.081-1.656,0.279-3.378-0.065-4.965c-0.353-1.625,1.602-4.115-1.702-4.807c-2.648-0.556-3.489,1.101-4.291,3.012
			c-0.189,0.45-0.462,0.881-0.766,1.267c-2.276,2.883-4.685,5.098-8.792,3.025c-2.487-1.255-4.673-0.404-5.204,2.432
			c-0.735,3.926-3.909,2.638-5.31,1.918c-2.251-1.157,0.009-2.614,0.906-3.766c2-2.566,1.376-3.786-1.698-4.95
			c-5.562-2.105-11.082-4.407-16.186-7.544c-0.079-2.964,2.859-1.898,4.115-3.08c4.778,2.343,9.627,4.551,14.319,7.054
			c10.182,5.433,13.392,4.452,18.624-5.992C142.201,179.785,142.574,179.278,142.903,178.749z"/>
		<path fill-rule="evenodd" clip-rule="evenodd" fill="#6E6E6E" d="M248.011,261.327c0.065-4.529,0.676-8.967,2.879-13.006
			c2.586-4.741,6.538-7.415,12.057-7.49c5.657-0.076,10.157,2.214,12.67,7.274c4.228,8.518,4.187,17.365,0.454,26.01
			c-2.493,5.77-7.253,8.295-13.628,8.077c-6.107-0.21-9.881-3.538-12.257-8.691C248.43,269.688,247.9,265.537,248.011,261.327z
			 M251.997,261.629c-0.237,3.879,0.347,7.616,1.947,11.164c1.807,4.004,4.824,6.141,9.324,6.206
			c4.557,0.065,7.769-2.146,9.38-6.114c3.053-7.519,3.081-15.239-0.044-22.775c-1.687-4.069-5.106-6.097-9.466-6.046
			c-4.167,0.05-7.27,2.177-9.071,5.94C252.314,253.665,251.772,257.595,251.997,261.629z"/>
		<path fill-rule="evenodd" clip-rule="evenodd" fill="#6E6E6E" d="M129.071,255.962c4.926-3.909,5.326-12.198,12.171-14.482
			c0.434,0.33,0.869,0.66,1.303,0.99c-3.128,4.745-6.106,9.598-9.443,14.19c-1.774,2.441-1.625,4.152,0.171,6.502
			c4.339,5.674,8.38,11.576,12.758,17.69c-2.905,1.452-4.747,0.709-6.327-1.717c-3.353-5.146-6.813-10.221-10.467-15.681
			c-3.366,3.172-5.009,7.223-7.72,10.42c-2.526,2.976-2.868,8.797-9.882,7.338c4.454-6.217,8.526-12.174,12.913-17.889
			c1.833-2.39,1.897-4.034,0.076-6.491c-3.436-4.637-6.44-9.592-10.379-15.559C123.687,243.053,123.435,252.314,129.071,255.962z"/>
		<path fill-rule="evenodd" clip-rule="evenodd" fill="#6E6E6E" d="M197.936,178.858c0.13,1.567,0.738,2.921,1.819,4.061
			c-2.874,4.834,2.382,5.545,4.281,7.287c2.892,2.655,5.891,5.184,8.738,8.124c-5.375,0.976-5.621,1.245-13.845-6.272
			c-3.707-3.388-6.057-3.776-9.497-0.074c-2.335,2.514-5.849,3.032-8.542,0.831c-2.688-2.196-4.152-0.954-6.263,0.561
			c-3.84,2.756-6.835,7.719-13.106,5.145c2.119-3.409,5.604-5.879,8.761-7.933c4.745-3.087,2.819-4.649-0.322-6.571
			c-0.92-0.563-0.909-1.233-1.09-1.99c1.124-0.614,2.456-0.926,3.147-2.167c3.135,0.67,4.227,3.612,6.208,5.569
			c4.4,4.347,6.8,4.64,10.957,0.667C191.942,183.456,194.9,181.127,197.936,178.858z"/>
		<path fill-rule="evenodd" clip-rule="evenodd" fill="#6E6E6E" d="M159.242,262.182c0.302-4.862,0.733-8.985,2.666-12.789
			c5.043-9.927,18.431-11.675,25.5-3.281c0.936,1.112,2.857,2.279,0.515,4.024c-2.037,1.519-2.506-0.356-3.435-1.36
			c-7.034-7.6-16.998-5.45-20.115,4.451c-1.739,5.524-1.741,11.182,0.127,16.7c3.214,9.498,12.099,11.862,19.72,5.381
			c1.063-0.903,1.877-3.269,3.875-1.068c1.978,2.177-0.391,2.915-1.414,3.846c-9.397,8.543-23.47,3.943-26.471-8.674
			C159.596,266.842,159.494,264.149,159.242,262.182z"/>
		<path fill-rule="evenodd" clip-rule="evenodd" fill="#4D4C4C" d="M623.93,253.989c0,8.147,0.025,16.296-0.025,24.443
			c-0.008,1.324,0.651,3.24-1.882,3.159c-2.306-0.074-1.992-1.764-1.993-3.227c-0.009-14.799-0.186-29.602,0.108-44.396
			c0.084-4.249-1.112-5.4-5.208-5.131c-2.113,0.139-6.187,1.642-6.284-1.314c-0.112-3.433,3.927-1.631,6.012-1.686
			c9.27-0.241,9.273-0.105,9.273,9.194C623.931,241.352,623.931,247.671,623.93,253.989z"/>
		<path fill-rule="evenodd" clip-rule="evenodd" fill="#707070" d="M220.853,253.738c0,7.818,0.053,15.638-0.044,23.455
			c-0.02,1.593,1.032,4.157-1.891,4.27c-3.181,0.123-1.887-2.602-1.896-4.076c-0.101-14.639-0.215-29.281,0.042-43.915
			c0.068-3.888-1.147-4.689-4.75-4.646c-2.22,0.027-6.565,2.005-6.5-1.549c0.057-3.073,4.417-1.345,6.789-1.412
			c8.247-0.231,8.251-0.089,8.251,8.41C220.853,240.763,220.853,247.25,220.853,253.738z"/>
		<path fill-rule="evenodd" clip-rule="evenodd" fill="#4D4C4D" d="M579.826,261.827c0.001,5.328,0.044,10.657-0.027,15.984
			c-0.02,1.492,0.765,3.644-1.922,3.757c-2.919,0.124-1.904-2.205-1.916-3.586c-0.083-9.657-0.186-19.317,0.033-28.971
			c0.076-3.274-0.843-4.497-4.119-4.074c-1.802,0.232-3.657,0.052-5.489,0.028c-1.024-0.014-2.03-0.103-2.074-1.502
			c-0.043-1.35,0.857-1.691,1.929-1.7c3.829-0.031,7.659,0.014,11.488-0.021c2.325-0.021,2.097,1.599,2.097,3.101
			C579.826,250.505,579.825,256.166,579.826,261.827z"/>
		<path fill-rule="evenodd" clip-rule="evenodd" fill="#6F6F6F" d="M86.999,261.587c0,5.652,0.029,11.306-0.024,16.958
			c-0.011,1.197,0.536,2.887-1.597,2.986c-2.174,0.102-2.274-1.386-2.272-3.003c0.016-9.478-0.211-18.962,0.106-28.427
			c0.138-4.11-0.9-5.616-5.15-5.254c-1.959,0.167-5.844,1.44-5.852-1.254c-0.01-3.559,3.917-1.647,5.977-1.708
			c8.809-0.26,8.813-0.113,8.813,8.729C87,254.271,87,257.93,86.999,261.587z"/>
		<path fill-rule="evenodd" clip-rule="evenodd" fill="#4F4E4E" d="M402.951,277.178c-0.202,3.212-1.871,5.148-4.929,5.377
			c-3.407,0.255-5.458-1.804-5.573-5.038c-0.105-2.989,1.772-5.138,4.844-5.349C400.671,271.937,402.38,274.082,402.951,277.178z"/>
		<path fill-rule="evenodd" clip-rule="evenodd" fill="#727171" d="M84.841,226.154c2.314,0.329,4.04,1.354,4.139,4.023
			c0.089,2.392-1.099,3.761-3.494,3.956c-2.538,0.206-4.238-0.831-4.461-3.509C80.805,227.985,82.384,226.711,84.841,226.154z"/>
		<path fill-rule="evenodd" clip-rule="evenodd" fill="#4E4D4D" d="M577.455,226.044c2.664,0.613,4.426,1.872,4.267,4.372
			c-0.151,2.386-1.639,3.857-4.251,3.775c-2.661-0.085-3.786-1.549-3.769-4.111C573.722,227.334,575.635,226.612,577.455,226.044z"
			/>
		<path fill-rule="evenodd" clip-rule="evenodd" fill="none" d="M156.313,102.993c-3.006,5.789-6.012,11.577-9.28,17.871
			c-1.667-2.735-2.997-4.59-3.308-6.937c0.715-0.643,1.325-1.573,2.163-1.881c4.87-1.788,6.871-5.286,5.948-10.239
			c-0.707-3.794-6.271-7.493-10.67-7.875c-2.207-0.191-4.077,0.813-6.139,1.025c-1.485-2.32-1.487-5.155-2.541-7.855
			c6.491,2.466,12.984,4.923,19.468,7.409c0.766,0.293,1.443,0.823,2.213,1.098C159.644,97.563,159.648,97.551,156.313,102.993z"/>
		<path fill-rule="evenodd" clip-rule="evenodd" fill="none" d="M268.878,181.185c-0.349,2.613,2.407,4.617,1.617,7.546
			c-6.335-2.779-11.767-6.877-18.194-8.914c-4.656-4.457-11.028-6.237-16.021-10.338c-1.961-1.61-1.863-2.443-1.327-4.098
			c2.698-8.32,6.121-16.35,10.284-24.03c1.466-2.704,1.953-5.921,5.076-8.813C256.572,148.938,262.725,165.062,268.878,181.185z"/>
		<path fill-rule="evenodd" clip-rule="evenodd" fill="none" d="M142.903,178.749c-0.329,0.529-0.702,1.036-0.98,1.591
			c-5.232,10.444-8.442,11.425-18.624,5.992c-4.692-2.503-9.541-4.711-14.319-7.054c-2.956-1.255-5.913-2.509-8.869-3.764
			c-0.139-0.453-0.278-0.906-0.417-1.359c18.464-6.973,36.928-13.946,56.679-21.405c-1.559,3.702-1.6,6.133-5.009,6.654
			c-2.162,0.33-3.656,2.574-3.308,4.907C148.922,170.124,145.194,174.149,142.903,178.749z"/>
		<path fill-rule="evenodd" clip-rule="evenodd" fill="none" d="M197.936,178.858c-3.036,2.269-5.994,4.598-8.754,7.236
			c-4.157,3.973-6.556,3.68-10.957-0.667c-1.981-1.957-3.073-4.899-6.208-5.569c-4.58-4.598-9.083-9.276-13.812-13.714
			c-0.858-0.806-1.323-1.338-1.042-2.352c0.303-1.094,1.335-0.801,2.076-0.783c8.12,0.197,16.167-1.237,24.35-0.606
			c5.707,0.44,11.535-0.456,17.291-0.957c4.757-0.413,9.485-1.081,14.137,0.853C209.958,168.554,202.855,172.581,197.936,178.858z"
			/>
		<path fill-rule="evenodd" clip-rule="evenodd" fill="none" d="M308.887,178.752c-5.532,3.37-10.996,6.862-16.628,10.057
			c-2.48,1.405-4.93,2.359-6.77-1.67c-1.346-2.949-4.3-5.119-5.827-8.16c-5.064-6.171-9.875-12.521-13.765-19.804
			c19.129,2.011,37.824,6.131,56.914,9.239C318.839,173.177,313.337,175.253,308.887,178.752z"/>
		<path fill-rule="evenodd" clip-rule="evenodd" fill="none" d="M209.718,142.853c10.759-3.908,20.975-7.604,31.174-11.348
			c0.945-0.347,1.92-0.98,2.708-0.112c0.752,0.83,0.208,1.803-0.24,2.735c-3.165,6.601-6.371,13.185-9.363,19.864
			c-1.116,2.49-2.865,3.068-4.681,1.593C223.365,150.748,216.359,147.524,209.718,142.853z"/>
		<path fill-rule="evenodd" clip-rule="evenodd" fill="#F8F7F7" d="M274.95,181.029c1.238,1.825,2.475,3.651,4.007,5.912
			c-5.669,0.871-3.962-3.601-4.954-5.86C274.315,180.985,274.63,180.968,274.95,181.029z"/>
		<path fill-rule="evenodd" clip-rule="evenodd" fill="none" d="M135.98,79.84c7.211-3.345,14.418-6.697,21.634-10.032
			c8.699-4.02,17.406-8.022,26.106-12.042c0.89-0.411,1.718-1.068,3.011-0.371c-1.585,7.218-6.738,13.137-7.961,20.526
			c-3.675,4.059-4.731,9.534-7.581,14.067c-1.369,2.178-2.591,2.54-4.977,1.992c-11.465-2.633-21.865-8.195-33.067-11.648
			C133.386,80.541,135.284,80.886,135.98,79.84z"/>
		<path fill-rule="evenodd" clip-rule="evenodd" fill="none" d="M200.936,101.868c-4.246-0.431-7.364,2.531-10.926,3.941
			c-10.141,4.014-19.978,8.788-29.977,13.167c-2.182,0.956-4.538,1.511-7.062,2.332c1.891-6.671,6.748-11.706,8.257-18.235
			c1.922-3.263,4.619-4.663,8.512-4.138c4.079,0.551,4.856-3.133,6.235-5.692c1.088-2.02,1.97-4.196,4.693-2.989
			c7.974,3.533,16.773,4.449,25.045,8.074C203.847,99.362,201.57,99.605,200.936,101.868z"/>
		<path fill-rule="evenodd" clip-rule="evenodd" fill="none" d="M183.099,78.028c3.1-6.517,6.199-13.034,9.427-19.822
			c3.15,4.706,5.823,9.572,7.422,14.974c0.562,1.896,1.119,3.719,2.905,4.848c1.166,5.085,4.352,9.332,6.26,15.269
			c-10.075-2.335-19.519-4.713-29.003-8.343C182.037,82.716,182.091,80.19,183.099,78.028z"/>
		<path fill-rule="evenodd" clip-rule="evenodd" fill="none" d="M361.95,259.967c0,2.998-0.008,5.995,0.001,8.992
			c0.015,4.774-2.575,7.927-6.733,9.521c-4.233,1.623-7.855-0.15-10.636-3.467c-5.158-6.153-5.277-20.139-0.281-26.347
			c2.435-3.025,5.659-4.701,9.541-4.567c5.374,0.185,8.094,3.128,8.107,8.374C361.955,254.972,361.95,257.47,361.95,259.967z"/>
		<path fill-rule="evenodd" clip-rule="evenodd" fill="none" d="M538.929,266.648c-0.008,6.814-4.595,12.421-10.069,12.308
			c-4.352-0.09-7.314-3.972-7.243-9.491c0.085-6.655,3.45-10.561,9.138-10.604C537.198,258.811,538.936,260.466,538.929,266.648z"/>
		<path fill-rule="evenodd" clip-rule="evenodd" fill="none" d="M431.108,258.756c0.402-8.619,5.808-15.068,12.114-14.738
			c6.166,0.322,10.709,6.543,10.608,14.738C446.389,258.756,438.939,258.756,431.108,258.756z"/>
		<path fill-rule="evenodd" clip-rule="evenodd" fill="none" d="M251.995,261.633c-0.222-4.038,0.319-7.968,2.073-11.629
			c1.802-3.764,4.904-5.891,9.071-5.94c4.359-0.051,7.779,1.977,9.466,6.046c3.125,7.536,3.097,15.257,0.044,22.775
			c-1.611,3.969-4.823,6.18-9.38,6.114c-4.5-0.065-7.517-2.202-9.324-6.206C252.344,269.245,251.76,265.508,251.995,261.633z"/>
	</g>
</g>
</svg>
