<?xml version="1.0" encoding="utf-8"?>
<!-- Generator: Adobe Illustrator 16.0.0, SVG Export Plug-In . SVG Version: 6.00 Build 0)  -->
<!DOCTYPE svg PUBLIC "-//W3C//DTD SVG 1.1//EN" "http://www.w3.org/Graphics/SVG/1.1/DTD/svg11.dtd">
<svg version="1.1" id="Layer_1" xmlns="http://www.w3.org/2000/svg" xmlns:xlink="http://www.w3.org/1999/xlink" x="0px" y="0px"
	 width="818px" height="286px" viewBox="0 0 818 286" enable-background="new 0 0 818 286" xml:space="preserve">
<g>
	<g>
		<path fill-rule="evenodd" clip-rule="evenodd" fill="none" d="M2,287.964C2,192.309,2,96.654,2,1c272.632,0,545.264,0,817.896,0
			c0,95.654,0,191.309,0,286.964C547.264,287.964,274.632,287.964,2,287.964z M711.752,144.087
			c-1.553,0.298-3.104,0.856-4.656,0.857c-46.362,0.041-92.725,0.026-139.087,0.021c-0.027-1.999-0.061-3.996-0.079-5.995
			c-0.14-14.851,0.733-29.748-1.994-44.483c-0.12-0.649,0.036-1.387-0.21-1.968c-2.246-5.288-4.304-10.677-6.896-15.792
			c-4.672-9.218-6.271-18.676-3.604-28.499c6.49-6.621,6.441-9.434-0.295-15.348c-1.71,0-3.681,0-5.612,0
			c-1.541-10.048-23.425-12.264-32.881-3.462c-2.57,5.163-4.365,8.766-6.092,12.23c-4.615,2.836-9.172,5.636-13.198,8.109
			c-0.891,6.705,3.043,9.444,6.072,11.586c8.807,1.305,16.67,2.469,24.401,3.614c1.631,5.723,0.342,10.516-2.164,15.059
			c-1.717,1.127-3.339,2.193-5.127,3.367c-0.749,2.52-2.121,5.254-2.295,8.062c-0.595,9.572-0.997,19.169-1.032,28.759
			c-0.029,8.252,0.544,16.507,0.851,24.761c-11.944,0-23.891,0-35.835,0c1.133-15.226-8.665-26.975-12.739-40.539
			c-1.334-5.127-2.669-10.253-4.004-15.38c2.217-2.334,3.813-4.475,4.508-6.875c1.37-4.731-2.104-8.809-6.861-8.789
			c-0.982,0.004-2.627-0.783-2.847-1.533c-1.509-5.15-5.858-6.278-10.084-6.731c-5.101-0.548-10.306-0.13-15.465-0.13
			c-7.946,2.879-8.872,10.624-12.258,16.642c-2.491,1.731-4.903,3.98-7.752,5.239c-3.415,1.508-6.433,2.764-5.542,6.905
			c1.37,2.19,2.546,4.071,3.453,5.522c1.787,0.892,3.254,1.625,4.321,2.157c7.344,1.44,14.347,2.815,21.589,4.236
			c1.311,1.577,2.931,3.527,4.546,5.47c0,2.646,0,5.305,0,7.534c-1.783,2.196-3.839,3.881-4.785,6.051
			c-2.792,6.403-4.912,13.046-4.234,20.221c-10.151,0-20.303,0-30.221,0c-25.517,21.883-50.761,43.533-76.37,65.496
			c1.34,1.8,2.362,3.172,3.596,4.828c23.693-20.287,47.006-40.248,70.318-60.208c0.369,0.155,0.738,0.31,1.108,0.465
			c0,41.646,0,83.291,0,124.918c137.826,0,274.938,0,412.325,0c0-44.594,0-88.688,0-133.444c-1.167-0.842-2.666-2.12-4.343-3.089
			c-3.588-2.074-7.266-3.992-10.911-5.966c-21.299-11.531-42.599-23.058-63.895-34.593c-2.353-1.274-4.701-2.772-7.18,1.421
			c2.891,2.081,5.687,4.096,8.484,6.11c-0.666,0.027-1.331,0.075-1.997,0.077c-4.504,0.008-9.017-0.139-13.509,0.09
			c-1.46,0.075-3.328,0.746-4.21,1.809c-1.957,2.359-3.409,5.138-5.637,8.643c-4.181,1.059-8.995,2.339-13.841,3.486
			c-3.025,0.715-4.736,2.679-4.261,5.568c0.37,2.248,1.454,4.689,2.967,6.378C700.342,141.478,706.041,142.9,711.752,144.087z
			 M352.327,273.929c0-19.041,0-37.411,0-55.898c-2.038,0-2.975,0-4.3,0c0,5.772,0,11.377,0,17.403
			c-1.217-0.532-1.941-0.878-2.687-1.17c-8.986-3.532-17.308-0.163-20.723,8.826c-2.819,7.417-2.636,15.032,0.583,22.332
			c2.854,6.475,8.61,9.836,15.26,8.524c2.957-0.584,5.608-2.713,8.339-4.11c0.503,1.295,1.087,2.796,1.693,4.352
			C351.55,274.038,352.345,273.926,352.327,273.929z M15.875,273.034c0-6.249-0.523-12.278,0.167-18.165
			c0.543-4.631,2-9.385,4.12-13.538c2.196-4.306,7.346-6.204,10.483-4.94c4.255,1.716,4.042,5.666,4.31,9.288
			c0.122,1.654,0.033,3.325,0.035,4.988c0.005,6.984-0.003,13.97,0.035,20.955c0.003,0.607,0.313,1.214,0.557,2.101
			c1.209-0.355,2.217-0.652,3.279-0.965c0-9.46,0.205-18.61-0.083-27.744c-0.152-4.821-0.802-9.885-6.471-11.811
			c-4.414-1.499-10.483,0.94-14.061,5.454c-0.978,1.233-1.848,2.554-2.969,4.114c-0.564-3.441-1.045-6.374-1.577-9.613
			c-1.207,0.164-2.213,0.301-2.212,0.3c0,13.563,0,26.631,0,40.145C13.539,273.337,14.572,273.203,15.875,273.034z M303.941,233.871
			c0,5.907,0.167,11.214-0.043,16.507c-0.246,6.214-1.278,12.276-5.844,17.03c-2.535,2.64-5.946,5.026-9.189,2.98
			c-2.135-1.347-3.336-5.026-3.854-7.863c-0.648-3.539-0.169-7.286-0.17-10.944c-0.003-5.778-0.001-11.558-0.001-17.396
			c-1.562,0-2.586,0-3.872,0c0,10.128-0.081,19.92,0.039,29.709c0.05,3.999,1.326,7.84,5.21,9.543
			c4.066,1.781,8.245,0.95,11.655-1.974c2.205-1.89,4.048-4.199,6.084-6.352c2.564,7.927,2.564,7.927,4.183,7.855
			c0-12.918,0-25.797,0-38.868C306.4,234.004,305.458,233.953,303.941,233.871z M233.375,253.338
			c0.988,4.317,1.402,8.543,2.951,12.302c2.153,5.225,6.184,8.415,12.3,8.56c6.167,0.145,10.812-2.269,13.304-7.801
			c3.876-8.603,3.939-17.437-0.166-26.007c-2.54-5.3-7.127-7.689-12.994-7.549c-5.746,0.139-9.977,2.967-12.096,8.117
			C235.062,244.88,234.437,249.208,233.375,253.338z M102.61,273.399c4.103-6.153,8.011-12.014,12.271-18.4
			c4.463,6.6,8.439,12.479,12.542,18.545c1.455-0.069,2.831-0.137,4.881-0.235c-5.368-7.561-10.324-14.541-15.185-21.387
			c3.967-6.087,7.671-11.77,11.647-17.87c-1.823,0-3.07,0-4.275,0c-3.144,4.88-6.162,9.563-9.546,14.814
			c-3.503-5.319-6.58-9.99-9.769-14.831c-1.253,0-2.521,0-4.435,0c4.149,6.294,8.039,12.195,11.934,18.104
			c-5.032,7.072-9.89,13.903-15.124,21.261C99.69,273.399,100.973,273.399,102.61,273.399z M175.368,240.831
			c-3.732-5.767-8.617-8.466-15.235-7.904c-6.564,0.558-11.189,4.232-12.813,10.216c-1.396,5.143-1.621,10.8-1.295,16.165
			c0.426,7.012,4.163,12.45,11.225,14.332c6.968,1.856,13.166,0.104,18.157-6.603c-0.762-0.75-1.553-1.53-2.397-2.363
			c-1.51,1.405-2.436,2.358-3.455,3.198c-6.504,5.367-14.809,3.694-18.249-3.986c-3.061-6.834-3.101-14-0.013-20.837
			c3.641-8.062,12.791-9.272,18.789-2.743c0.773,0.842,1.489,1.737,2.361,2.761C173.473,242.278,174.336,241.619,175.368,240.831z
			 M206.54,273.135c0-18.788,0-36.866,0-54.896c-10.483-1.385-14.125-0.823-14.956,2.853c3.825,0,7.527,0,11.66,0
			c0,17.882,0,35.104,0,52.576C204.658,273.438,205.583,273.289,206.54,273.135z M72.757,273.595c0-13.516,0-26.416,0-39.277
			c-10.011-1.523-13.979-0.912-14.655,2.754c3.647,0,7.205,0,11.103,0c0,12.34,0,24.093,0,36.108
			C70.464,273.327,71.399,273.437,72.757,273.595z M388.921,269.84c0.029-3.23-2.608-5.979-5.396-5.732
			c-3.079,0.273-4.847,2.174-5.112,5.188c-0.257,2.918,2.428,5.522,5.38,5.301C386.866,274.365,388.6,272.596,388.921,269.84z
			 M71.036,218.163c-4.845,2.18-5.175,3.368-2.123,7.659c2.556,0.61,5.174,0.791,5.96-2.471
			C75.591,220.382,73.916,218.67,71.036,218.163z"/>
		<path fill-rule="evenodd" clip-rule="evenodd" fill="#6E6D6E" d="M568.009,144.965c46.362,0.006,92.725,0.021,139.087-0.021
			c1.552-0.001,3.104-0.56,4.656-0.857c1.596,0.296,3.189,0.833,4.787,0.848c9.407,0.083,18.817,0.124,28.223-0.042
			c1.426-0.024,2.83-1.206,4.244-1.852c-0.258,3.138,2.178,1.87,3.443,1.883c10.157,0.105,20.316,0.059,30.476,0.059
			c5.36,0.001,10.722,0,16.744,0c-0.888-0.786-1.079-1.03-1.33-1.167c-12.241-6.647-24.467-13.321-36.741-19.905
			c-4.503-2.415-9.12-4.616-13.686-6.915c-3.712-2.031-7.424-4.062-11.135-6.093c-2.798-2.015-5.594-4.029-8.484-6.11
			c2.479-4.193,4.827-2.695,7.18-1.421c21.296,11.535,42.596,23.062,63.895,34.593c3.646,1.974,7.323,3.892,10.911,5.966
			c1.677,0.969,3.176,2.247,4.343,3.089c0,44.756,0,88.851,0,133.444c-137.387,0-274.499,0-412.325,0c0-41.627,0-83.272,0-124.918
			c-0.37-0.155-0.739-0.31-1.108-0.465c-23.312,19.96-46.625,39.921-70.318,60.208c-1.233-1.656-2.256-3.028-3.596-4.828
			c25.609-21.963,50.854-43.613,76.37-65.496c9.918,0,20.069,0,30.221,0c16.052,0,32.103,0,48.154,0c11.944,0,23.891,0,35.835,0
			C534.572,144.965,551.291,144.965,568.009,144.965z M757.701,253.947c-0.389-3.18-0.518-5.653-1.015-8.051
			c-1.578-7.614-6.412-12.499-12.597-12.934c-7.757-0.547-13.611,3.319-16.063,11.308c-2.254,7.344-1.876,14.791,1.146,21.913
			c1.711,4.031,4.829,7.04,9.219,7.606c5.793,0.745,11.629,0.458,16.935-2.582c0.391-0.224,0.679-0.628,1.174-1.101
			c-0.614-0.794-1.175-1.517-1.684-2.175c-18.945,8.313-24.924-2.335-23.327-13.985
			C740.066,253.947,748.768,253.947,757.701,253.947z M614.486,248.914c-3.7-0.414-7.395-1.163-11.088-1.153
			c-4.295,0.01-6.841,3.02-8.61,6.586c-2.878,5.803-1.969,13.463,2.21,17.076c1.421,1.229,3.398,2.089,5.257,2.48
			c4.925,1.037,8.994-0.934,12.506-5.124c0.849,2.172,1.416,3.626,2.026,5.186c1.021-0.106,1.795-0.187,2.323-0.242
			c-0.363-5.715-0.895-11.103-0.982-16.497c-0.063-3.786,0.791-7.59,0.688-11.371c-0.203-7.412-3.207-11.907-8.881-12.591
			c-3.516-0.425-7.246,0.27-10.772,0.987c-1.041,0.211-1.719,2.212-2.563,3.394C611.129,233.786,616.062,236.986,614.486,248.914z
			 M530.857,273.764c0-11.391,0.274-22.333-0.124-33.25c-0.181-4.947-4.297-7.735-9.368-7.562c-6.338,0.217-9.904,4.46-12.679,8.848
			c-3.642-1.739,0.685-7.746-5.486-8.949c0.283,4.179,0.688,7.736,0.734,11.299c0.11,8.479,0.046,16.959,0.064,25.439
			c0.005,2.222,0.013,4.48,3.633,3.926c0.116-1.362,0.263-2.647,0.33-3.937c0.339-6.444,0.331-12.929,1.085-19.324
			c0.59-4.991,2.414-9.683,7.221-12.449c6.551-3.768,10.665-1.507,10.71,5.986c0.051,8.479,0.01,16.96,0.017,25.44
			C526.996,271.367,526.775,273.679,530.857,273.764z M706.878,273.349c0.583,0.259,1.165,0.518,1.746,0.777
			c0.738-1.149,2.127-2.308,2.111-3.446c-0.136-9.945-0.103-19.924-0.979-29.816c-0.623-7.033-6.824-10.207-13.239-6.977
			c-3.623,1.824-6.535,5.057-9.603,7.522c-0.429-2.236-0.983-5.127-1.598-8.326c-1.192,0.229-2.188,0.421-2.649,0.51
			c0.571,13.628,1.124,26.787,1.679,40.009c3.249,0.318,3.508-1.577,3.509-3.721c0.003-5.822-0.6-11.733,0.228-17.438
			c0.636-4.39,2.381-9.024,4.968-12.577c1.6-2.196,5.709-3.531,8.677-3.508c3.352,0.025,4.278,3.672,4.697,6.731
			c0.27,1.96,0.423,3.952,0.434,5.931C706.905,257.129,706.878,265.239,706.878,273.349z M457.411,252.029
			c0.64,4.198,0.887,7.352,1.63,10.385c1.684,6.876,6.74,11.388,12.598,11.58c8.496,0.279,12.561-2.543,15.33-10.51
			c2.563-7.372,2.254-14.628-0.69-21.811c-2.147-5.238-5.933-8.243-11.673-8.727c-6.362-0.537-11.206,2.045-13.826,7.678
			C459.008,244.435,458.34,248.758,457.411,252.029z M561.78,273.806c7.517,0.419,12.311-1.271,14.79-5.302
			c1.013-1.644,2.368-3.612-1.291-4.324c-2.878,4.268-6.028,8.165-12.354,6.292c-0.846-0.912-1.848-1.995-2.697-2.912
			c0-10.207,0-20.111,0-30.589c2.6,0,4.883,0.064,7.16-0.02c2.146-0.079,4.287-0.314,6.431-0.48
			c0.022-0.683,0.045-1.363,0.068-2.045c-4.488-0.274-8.975-0.548-13.987-0.854c0-4.188,0-8.096,0-12.37
			c-1.621,0.128-2.636,0.207-4.199,0.33c0,4.225,0,8.121,0,11.919c-3.294,0.448-6.009,0.818-8.723,1.188
			c0.005,0.569,0.009,1.138,0.013,1.706c2.882,0.381,5.763,0.761,8.938,1.181c0,8.449,0.073,16.579-0.027,24.707
			C555.841,267.055,557.202,271.044,561.78,273.806z M443.888,241.099c-3.951-6.455-9.378-9.259-16.517-7.999
			c-7.066,1.248-11.273,6.104-12.221,12.773c-0.791,5.577-0.396,11.477,0.437,17.09c0.887,5.981,5.236,9.784,11.041,10.823
			c6.641,1.187,12.868-0.006,17.015-6.587c-0.82-0.703-1.525-1.31-2.299-1.974c-1.164,1.07-2.08,2.041-3.122,2.85
			c-6.353,4.927-14.103,3.739-17.722-3.355c-4.101-8.039-3.693-16.378,0.868-24.257c0.761-1.316,2.369-2.353,3.814-3.03
			c6.116-2.864,9.515-1.677,15.929,5.41C441.977,242.299,442.883,241.73,443.888,241.099z M778.519,232.46
			c-1.561,0.777-2.618,1.071-2.61,1.332c0.422,13.268,0.935,26.531,1.441,39.897c3.373,0.105,3.492-1.866,3.494-3.95
			c0.005-5.317-0.11-10.641,0.066-15.953c0.228-6.846,4.357-16.256,12.488-17.702c5.217,0.715,3.995,5.358,5.068,8.497
			c1.133,0,2.045,0,3.101,0c0.936-4.382-0.218-8.078-3.517-10.356c-3.629-2.505-7.704-1.847-11.027,1.082
			c-2.388,2.104-4.438,4.592-6.667,6.938C779.778,239.166,779.218,236.18,778.519,232.46z M650.972,237.195c0,2.177,0,3.961,0,5.744
			c0,8.812,0.001,17.624,0.001,26.438c0,2.184-0.125,4.463,3.569,4.272c0-13.116,0-26.104,0-39.049
			c-8-1.582-12.893-1.006-14.5,2.108C643.512,236.863,646.764,237.008,650.972,237.195z M648.552,222.164
			c2.095,4.026,4.507,4.622,7.735,2.942c1.306-3.422,0.713-5.862-3.685-7.37C651.316,219.143,649.896,220.694,648.552,222.164z"/>
		<path fill-rule="evenodd" clip-rule="evenodd" fill="#494949" d="M568.009,144.965c-16.718,0-33.437,0-50.154,0
			c-0.307-8.253-0.88-16.508-0.851-24.761c0.035-9.589,0.438-19.187,1.032-28.759c0.174-2.808,1.546-5.542,2.295-8.062
			c1.788-1.173,3.41-2.24,5.127-3.367c2.506-4.543,3.795-9.335,2.164-15.059c-7.731-1.145-15.595-2.31-24.401-3.614
			c-3.029-2.142-6.963-4.881-6.072-11.586c4.026-2.474,8.583-5.273,13.198-8.109c1.727-3.465,3.521-7.068,6.092-12.23
			c9.456-8.802,31.34-6.586,32.881,3.462c1.932,0,3.902,0,5.612,0c6.736,5.914,6.785,8.727,0.295,15.348
			c-2.668,9.822-1.068,19.28,3.604,28.499c2.592,5.116,4.649,10.504,6.896,15.792c0.246,0.581,0.09,1.319,0.21,1.968
			c2.728,14.736,1.854,29.632,1.994,44.483C567.948,140.969,567.981,142.966,568.009,144.965z"/>
		<path fill-rule="evenodd" clip-rule="evenodd" fill="#494949" d="M482.02,144.965c-16.052,0-32.103,0-48.154,0
			c-0.678-7.175,1.442-13.818,4.234-20.221c0.946-2.17,3.002-3.855,4.785-6.051c0-2.229,0-4.889,0-7.534
			c-1.615-1.943-3.235-3.893-4.546-5.47c-7.242-1.421-14.245-2.795-21.589-4.236c-1.067-0.533-2.534-1.266-4.321-2.157
			c-0.907-1.451-2.083-3.332-3.453-5.522c-0.891-4.142,2.127-5.397,5.542-6.905c2.849-1.259,5.261-3.508,7.752-5.239
			c3.386-6.018,4.312-13.762,12.258-16.642c5.159,0,10.364-0.418,15.465,0.13c4.226,0.454,8.575,1.582,10.084,6.731
			c0.22,0.75,1.864,1.537,2.847,1.533c4.757-0.02,8.231,4.058,6.861,8.789c-0.695,2.401-2.291,4.542-4.508,6.875
			c1.335,5.127,2.67,10.253,4.004,15.38C473.354,117.99,483.152,129.739,482.02,144.965z"/>
		<path fill-rule="evenodd" clip-rule="evenodd" fill="#494949" d="M736.777,110.904c3.711,2.031,7.423,4.062,11.135,6.093
			c0.666,2.046,1.333,4.094,2.043,6.274c1.611,0.498,3.331,1.029,4.906,1.516c4.006,5.737,3.865,9.47-0.083,12.641
			c-2.082,1.673-3.857,3.729-5.772,5.613c-1.414,0.646-2.818,1.828-4.244,1.852c-9.405,0.166-18.815,0.125-28.223,0.042
			c-1.598-0.015-3.191-0.552-4.787-0.848c-5.711-1.187-11.41-2.609-15.462-7.133c-1.513-1.688-2.597-4.13-2.967-6.378
			c-0.476-2.889,1.235-4.853,4.261-5.568c4.846-1.147,9.66-2.427,13.841-3.486c2.228-3.504,3.68-6.283,5.637-8.643
			c0.882-1.063,2.75-1.734,4.21-1.809c4.492-0.229,9.005-0.083,13.509-0.09C735.446,110.979,736.111,110.93,736.777,110.904z"/>
		<path fill-rule="evenodd" clip-rule="evenodd" fill="#6E6E6E" d="M352.327,273.929c0.018-0.003-0.777,0.109-1.836,0.259
			c-0.605-1.556-1.189-3.057-1.693-4.352c-2.73,1.397-5.382,3.526-8.339,4.11c-6.65,1.312-12.405-2.05-15.26-8.524
			c-3.218-7.3-3.401-14.915-0.583-22.332c3.416-8.989,11.737-12.358,20.723-8.826c0.745,0.292,1.469,0.638,2.687,1.17
			c0-6.026,0-11.631,0-17.403c1.326,0,2.262,0,4.3,0C352.327,236.518,352.327,254.888,352.327,273.929z M347.951,240.189
			c-6.855-5.555-13.312-5.191-17.795,0.639c-4.876,6.339-4.62,20.36,0.563,26.358c2.704,3.13,6.132,4.607,10.264,3.459
			c3.837-1.065,6.888-5.188,6.943-9.403C348.018,254.253,347.951,247.262,347.951,240.189z"/>
		<path fill-rule="evenodd" clip-rule="evenodd" fill="#6E6E6E" d="M15.875,273.034c-1.303,0.169-2.335,0.303-4.387,0.568
			c0-13.514,0-26.581,0-40.145c-0.001,0.001,1.005-0.136,2.212-0.3c0.532,3.239,1.012,6.172,1.577,9.613
			c1.121-1.561,1.991-2.881,2.969-4.114c3.578-4.514,9.647-6.953,14.061-5.454c5.668,1.926,6.319,6.989,6.471,11.811
			c0.288,9.134,0.083,18.284,0.083,27.744c-1.062,0.313-2.07,0.609-3.279,0.965c-0.244-0.887-0.553-1.493-0.557-2.101
			c-0.039-6.985-0.03-13.971-0.035-20.955c-0.001-1.663,0.087-3.334-0.035-4.988c-0.267-3.622-0.054-7.572-4.31-9.288
			c-3.137-1.264-8.287,0.635-10.483,4.94c-2.12,4.153-3.577,8.907-4.12,13.538C15.351,260.756,15.875,266.785,15.875,273.034z"/>
		<path fill-rule="evenodd" clip-rule="evenodd" fill="#6E6E6E" d="M303.941,233.871c1.518,0.082,2.459,0.133,4.197,0.228
			c0,13.071,0,25.95,0,38.868c-1.619,0.071-1.619,0.071-4.183-7.855c-2.036,2.152-3.88,4.462-6.084,6.352
			c-3.411,2.924-7.589,3.755-11.655,1.974c-3.885-1.703-5.161-5.544-5.21-9.543c-0.12-9.789-0.039-19.581-0.039-29.709
			c1.286,0,2.311,0,3.872,0c0,5.839-0.002,11.618,0.001,17.396c0.001,3.658-0.478,7.405,0.17,10.944
			c0.519,2.837,1.72,6.517,3.854,7.863c3.243,2.046,6.654-0.341,9.189-2.98c4.566-4.754,5.598-10.816,5.844-17.03
			C304.107,245.085,303.941,239.778,303.941,233.871z"/>
		<path fill-rule="evenodd" clip-rule="evenodd" fill="#6E6E6E" d="M233.375,253.338c1.061-4.13,1.686-8.458,3.299-12.378
			c2.119-5.15,6.35-7.979,12.096-8.117c5.867-0.141,10.454,2.249,12.994,7.549c4.105,8.57,4.042,17.404,0.166,26.007
			c-2.493,5.532-7.138,7.945-13.304,7.801c-6.117-0.145-10.147-3.335-12.3-8.56C234.777,261.881,234.364,257.655,233.375,253.338z
			 M237.427,253.603c0.771,3.584,1.24,7.209,2.363,10.62c1.43,4.342,4.645,6.677,9.386,6.771c4.778,0.095,7.995-2.277,9.632-6.48
			c2.813-7.219,2.816-14.605,0.042-21.864c-1.647-4.313-5.036-6.613-9.615-6.583c-4.602,0.03-8.007,2.443-9.46,6.783
			C238.634,246.252,238.207,249.895,237.427,253.603z"/>
		<path fill-rule="evenodd" clip-rule="evenodd" fill="#6E6E6E" d="M102.61,273.399c-1.637,0-2.919,0-5.059,0
			c5.234-7.357,10.092-14.188,15.124-21.261c-3.895-5.908-7.785-11.81-11.934-18.104c1.914,0,3.182,0,4.435,0
			c3.188,4.841,6.265,9.512,9.769,14.831c3.384-5.252,6.402-9.935,9.546-14.814c1.205,0,2.452,0,4.275,0
			c-3.976,6.101-7.68,11.783-11.647,17.87c4.861,6.846,9.816,13.826,15.185,21.387c-2.05,0.099-3.427,0.166-4.881,0.235
			c-4.102-6.066-8.079-11.945-12.542-18.545C110.621,261.386,106.713,267.246,102.61,273.399z"/>
		<path fill-rule="evenodd" clip-rule="evenodd" fill="#6E6E6E" d="M175.368,240.831c-1.032,0.788-1.895,1.447-2.925,2.235
			c-0.872-1.023-1.588-1.919-2.361-2.761c-5.998-6.529-15.147-5.318-18.789,2.743c-3.088,6.837-3.048,14.003,0.013,20.837
			c3.44,7.681,11.745,9.354,18.249,3.986c1.019-0.84,1.944-1.793,3.455-3.198c0.845,0.833,1.636,1.613,2.397,2.363
			c-4.991,6.706-11.189,8.459-18.157,6.603c-7.062-1.882-10.798-7.32-11.225-14.332c-0.326-5.365-0.101-11.022,1.295-16.165
			c1.624-5.983,6.249-9.658,12.813-10.216C166.751,232.365,171.636,235.064,175.368,240.831z"/>
		<path fill-rule="evenodd" clip-rule="evenodd" fill="#707070" d="M206.54,273.135c-0.956,0.154-1.881,0.304-3.296,0.532
			c0-17.472,0-34.694,0-52.576c-4.133,0-7.835,0-11.66,0c0.831-3.676,4.473-4.237,14.956-2.853
			C206.54,236.269,206.54,254.347,206.54,273.135z"/>
		<path fill-rule="evenodd" clip-rule="evenodd" fill="#6F6F6F" d="M72.757,273.595c-1.358-0.158-2.293-0.268-3.552-0.415
			c0-12.016,0-23.769,0-36.108c-3.898,0-7.456,0-11.103,0c0.675-3.666,4.644-4.277,14.655-2.754
			C72.757,247.179,72.757,260.079,72.757,273.595z"/>
		<path fill-rule="evenodd" clip-rule="evenodd" fill="#4F4E4E" d="M388.921,269.84c-0.321,2.756-2.055,4.525-5.128,4.756
			c-2.952,0.222-5.637-2.383-5.38-5.301c0.266-3.014,2.034-4.914,5.112-5.188C386.313,263.86,388.95,266.609,388.921,269.84z"/>
		<path fill-rule="evenodd" clip-rule="evenodd" fill="#727171" d="M71.036,218.163c2.879,0.507,4.555,2.219,3.838,5.188
			c-0.787,3.262-3.404,3.081-5.96,2.471C65.861,221.531,66.191,220.343,71.036,218.163z"/>
		<path fill-rule="evenodd" clip-rule="evenodd" fill="none" d="M749.006,143.041c1.915-1.883,3.69-3.939,5.772-5.613
			c3.948-3.17,4.089-6.904,0.083-12.641c-1.575-0.487-3.295-1.019-4.906-1.516c-0.71-2.181-1.377-4.228-2.043-6.274
			c4.565,2.298,9.183,4.5,13.686,6.915c12.274,6.584,24.5,13.258,36.741,19.905c0.251,0.136,0.442,0.38,1.33,1.167
			c-6.022,0-11.384,0.001-16.744,0c-10.159,0-20.318,0.047-30.476-0.059C751.184,144.91,748.748,146.179,749.006,143.041z"/>
		<path fill-rule="evenodd" clip-rule="evenodd" fill="#494949" d="M757.701,253.947c-8.934,0-17.635,0-26.212,0
			c-1.597,11.65,4.382,22.299,23.327,13.985c0.509,0.658,1.069,1.381,1.684,2.175c-0.495,0.473-0.783,0.877-1.174,1.101
			c-5.306,3.04-11.142,3.327-16.935,2.582c-4.39-0.566-7.508-3.575-9.219-7.606c-3.021-7.122-3.399-14.569-1.146-21.913
			c2.451-7.988,8.306-11.854,16.063-11.308c6.185,0.435,11.019,5.319,12.597,12.934
			C757.184,248.294,757.313,250.768,757.701,253.947z M731.26,250.507c7.664,0,14.979,0,22.342,0
			c-1.41-10.063-5.931-15.272-12.214-14.464C735.064,236.858,730.544,243.145,731.26,250.507z"/>
		<path fill-rule="evenodd" clip-rule="evenodd" fill="#49494A" d="M614.486,248.914c1.575-11.928-3.357-15.128-17.887-11.27
			c0.844-1.182,1.521-3.183,2.563-3.394c3.526-0.718,7.257-1.412,10.772-0.987c5.674,0.684,8.678,5.179,8.881,12.591
			c0.104,3.781-0.75,7.585-0.688,11.371c0.088,5.395,0.619,10.782,0.982,16.497c-0.528,0.056-1.303,0.136-2.323,0.242
			c-0.61-1.56-1.178-3.014-2.026-5.186c-3.512,4.19-7.581,6.161-12.506,5.124c-1.858-0.392-3.836-1.252-5.257-2.48
			c-4.179-3.613-5.088-11.273-2.21-17.076c1.77-3.566,4.315-6.576,8.61-6.586C607.092,247.751,610.786,248.5,614.486,248.914z
			 M614.505,253.466c-5.754-3.272-10.874-3.4-14.073-0.482c-3.34,3.047-4.343,9.497-2.141,13.773c2.089,4.06,5.287,5.182,9.467,3.32
			C613.668,267.445,615.535,262.945,614.505,253.466z"/>
		<path fill-rule="evenodd" clip-rule="evenodd" fill="#4A4A4A" d="M530.857,273.764c-4.082-0.085-3.861-2.396-3.863-4.532
			c-0.007-8.48,0.034-16.961-0.017-25.44c-0.045-7.493-4.159-9.754-10.71-5.986c-4.807,2.767-6.631,7.458-7.221,12.449
			c-0.754,6.396-0.746,12.88-1.085,19.324c-0.067,1.289-0.214,2.574-0.33,3.937c-3.62,0.555-3.628-1.704-3.633-3.926
			c-0.019-8.48,0.046-16.961-0.064-25.439c-0.047-3.563-0.451-7.12-0.734-11.299c6.171,1.203,1.845,7.21,5.486,8.949
			c2.774-4.388,6.341-8.631,12.679-8.848c5.071-0.174,9.188,2.614,9.368,7.562C531.132,251.431,530.857,262.373,530.857,273.764z"/>
		<path fill-rule="evenodd" clip-rule="evenodd" fill="#4A4A4A" d="M706.878,273.349c0-8.109,0.027-16.22-0.02-24.329
			c-0.011-1.979-0.164-3.971-0.434-5.931c-0.419-3.06-1.346-6.706-4.697-6.731c-2.968-0.023-7.077,1.312-8.677,3.508
			c-2.587,3.553-4.332,8.188-4.968,12.577c-0.827,5.705-0.225,11.616-0.228,17.438c-0.001,2.144-0.26,4.039-3.509,3.721
			c-0.555-13.222-1.107-26.381-1.679-40.009c0.461-0.089,1.457-0.28,2.649-0.51c0.614,3.199,1.169,6.09,1.598,8.326
			c3.067-2.466,5.979-5.698,9.603-7.522c6.415-3.23,12.616-0.057,13.239,6.977c0.876,9.893,0.843,19.871,0.979,29.816
			c0.016,1.139-1.373,2.297-2.111,3.446C708.043,273.866,707.461,273.607,706.878,273.349z"/>
		<path fill-rule="evenodd" clip-rule="evenodd" fill="#49494A" d="M457.411,252.029c0.929-3.271,1.597-7.595,3.368-11.404
			c2.62-5.633,7.464-8.215,13.826-7.678c5.74,0.483,9.525,3.488,11.673,8.727c2.944,7.183,3.253,14.438,0.69,21.811
			c-2.77,7.967-6.834,10.789-15.33,10.51c-5.857-0.192-10.914-4.704-12.598-11.58C458.298,259.381,458.051,256.228,457.411,252.029z
			 M461.563,253.684c0.15,0.019,0.3,0.037,0.449,0.056c0,1.83-0.203,3.688,0.036,5.485c0.932,7.017,5.094,11.48,10.745,11.737
			c5.212,0.236,10.093-3.264,10.841-9.017c0.712-5.482,0.674-11.183,0.06-16.687c-0.63-5.635-5.447-9.278-10.717-9.272
			c-4.544,0.004-8.782,3.646-10.012,8.907C462.292,247.775,462.019,250.751,461.563,253.684z"/>
		<path fill-rule="evenodd" clip-rule="evenodd" fill="#49494A" d="M561.78,273.806c-4.578-2.762-5.939-6.751-5.879-11.573
			c0.101-8.128,0.027-16.258,0.027-24.707c-3.175-0.42-6.056-0.8-8.938-1.181c-0.004-0.568-0.008-1.137-0.013-1.706
			c2.714-0.369,5.429-0.739,8.723-1.188c0-3.798,0-7.694,0-11.919c1.563-0.123,2.578-0.202,4.199-0.33c0,4.274,0,8.182,0,12.37
			c5.013,0.306,9.499,0.579,13.987,0.854c-0.023,0.682-0.046,1.362-0.068,2.045c-2.144,0.166-4.285,0.401-6.431,0.48
			c-2.277,0.084-4.561,0.02-7.16,0.02c0,10.478,0,20.382,0,30.589c0.85,0.917,1.852,2,2.697,2.912
			c6.325,1.873,9.476-2.024,12.354-6.292c3.659,0.712,2.304,2.681,1.291,4.324C574.091,272.534,569.297,274.225,561.78,273.806z"/>
		<path fill-rule="evenodd" clip-rule="evenodd" fill="#49494A" d="M443.888,241.099c-1.005,0.632-1.911,1.2-2.776,1.744
			c-6.414-7.087-9.813-8.274-15.929-5.41c-1.445,0.678-3.054,1.714-3.814,3.03c-4.562,7.879-4.969,16.218-0.868,24.257
			c3.619,7.095,11.369,8.282,17.722,3.355c1.042-0.809,1.958-1.779,3.122-2.85c0.773,0.664,1.479,1.271,2.299,1.974
			c-4.146,6.581-10.374,7.773-17.015,6.587c-5.805-1.039-10.154-4.842-11.041-10.823c-0.832-5.613-1.228-11.513-0.437-17.09
			c0.947-6.669,5.154-11.525,12.221-12.773C434.51,231.84,439.937,234.644,443.888,241.099z"/>
		<path fill-rule="evenodd" clip-rule="evenodd" fill="#4A4A4A" d="M778.519,232.46c0.699,3.72,1.26,6.706,1.838,9.784
			c2.229-2.346,4.279-4.833,6.667-6.938c3.323-2.929,7.398-3.587,11.027-1.082c3.299,2.278,4.452,5.975,3.517,10.356
			c-1.056,0-1.968,0-3.101,0c-1.073-3.139,0.148-7.782-5.068-8.497c-8.131,1.446-12.261,10.856-12.488,17.702
			c-0.177,5.313-0.062,10.636-0.066,15.953c-0.002,2.084-0.121,4.056-3.494,3.95c-0.507-13.366-1.02-26.63-1.441-39.897
			C775.9,233.531,776.958,233.237,778.519,232.46z"/>
		<path fill-rule="evenodd" clip-rule="evenodd" fill="#4B4B4B" d="M650.972,237.195c-4.208-0.188-7.46-0.332-10.93-0.486
			c1.607-3.114,6.5-3.69,14.5-2.108c0,12.945,0,25.933,0,39.049c-3.694,0.19-3.569-2.089-3.569-4.272
			c0-8.813-0.001-17.626-0.001-26.438C650.972,241.156,650.972,239.372,650.972,237.195z"/>
		<path fill-rule="evenodd" clip-rule="evenodd" fill="#4B4B4B" d="M648.552,222.164c1.345-1.47,2.765-3.021,4.051-4.428
			c4.397,1.508,4.99,3.948,3.685,7.37C653.059,226.786,650.646,226.19,648.552,222.164z"/>
		<path fill-rule="evenodd" clip-rule="evenodd" fill="none" d="M347.951,240.189c0,7.072,0.067,14.063-0.025,21.053
			c-0.055,4.216-3.106,8.338-6.943,9.403c-4.132,1.148-7.56-0.329-10.264-3.459c-5.184-5.998-5.439-20.02-0.563-26.358
			C334.639,234.998,341.096,234.635,347.951,240.189z"/>
		<path fill-rule="evenodd" clip-rule="evenodd" fill="none" d="M237.427,253.603c0.78-3.708,1.207-7.351,2.347-10.753
			c1.454-4.34,4.858-6.753,9.46-6.783c4.58-0.03,7.968,2.27,9.615,6.583c2.774,7.259,2.771,14.646-0.042,21.864
			c-1.637,4.203-4.854,6.575-9.632,6.48c-4.741-0.095-7.956-2.43-9.386-6.771C238.667,260.812,238.198,257.187,237.427,253.603z"/>
		<path fill-rule="evenodd" clip-rule="evenodd" fill="#6D6D6D" d="M731.26,250.507c-0.716-7.362,3.805-13.648,10.128-14.464
			c6.283-0.809,10.804,4.4,12.214,14.464C746.239,250.507,738.924,250.507,731.26,250.507z"/>
		<path fill-rule="evenodd" clip-rule="evenodd" fill="#6D6D6D" d="M614.505,253.466c1.03,9.479-0.837,13.979-6.747,16.611
			c-4.18,1.861-7.378,0.739-9.467-3.32c-2.202-4.276-1.199-10.727,2.141-13.773C603.631,250.065,608.751,250.193,614.505,253.466z"
			/>
		<path fill-rule="evenodd" clip-rule="evenodd" fill="#6E6D6E" d="M461.563,253.684c0.455-2.933,0.729-5.908,1.402-8.79
			c1.229-5.261,5.468-8.903,10.012-8.907c5.27-0.006,10.087,3.638,10.717,9.272c0.614,5.504,0.652,11.204-0.06,16.687
			c-0.748,5.753-5.629,9.253-10.841,9.017c-5.651-0.257-9.813-4.721-10.745-11.737c-0.239-1.798-0.036-3.655-0.036-5.485
			C461.863,253.721,461.714,253.702,461.563,253.684z"/>
	</g>
</g>
</svg>
