<?xml version="1.0" encoding="utf-8"?>
<!-- Generator: Adobe Illustrator 16.0.0, SVG Export Plug-In . SVG Version: 6.00 Build 0)  -->
<!DOCTYPE svg PUBLIC "-//W3C//DTD SVG 1.1//EN" "http://www.w3.org/Graphics/SVG/1.1/DTD/svg11.dtd">
<svg version="1.1" id="Layer_1" xmlns="http://www.w3.org/2000/svg" xmlns:xlink="http://www.w3.org/1999/xlink" x="0px" y="0px"
	 width="570px" height="320px" viewBox="0 0 570 320" enable-background="new 0 0 570 320" xml:space="preserve">
<g>
	<g>
		<path fill-rule="evenodd" clip-rule="evenodd" fill="none" d="M1,321.96C1,214.973,1,107.986,1,1c190.31,0,380.619,0,570.929,0
			c0,106.986,0,213.973,0,320.96C381.619,321.96,191.31,321.96,1,321.96z M484.864,168.937
			c-5.335,5.002-10.671,10.002-16.005,15.002c-3.604,2.918-6.887,6.138-10.059,9.462c0.375,0.394,0.75,0.786,1.125,1.18
			c3.346-3.187,6.69-6.373,10.036-9.56c1.954-1.743,3.828-3.589,5.903-5.172c0.727-0.553,1.948-0.456,2.944-0.656
			c3.07,3.871,6.142,7.741,9.567,12.059c-2.059,1.067-3.616,1.922-5.213,2.694c-9.729,4.707-19.467,9.395-29.202,14.088
			c-4.035-1.652-5.281-5.425-6.818-8.976c3.083-0.14,6.167-0.278,9.732-0.44c-1.637-8.171-2.548-15.724-4.516-23.051
			c-0.467,0.081-0.933,0.164-1.399,0.246c1.136,6.874,2.271,13.747,3.449,20.883c-7.823,0.657-14.925,1.271-22.028,1.847
			c-9.112,0.739-18.229,1.427-27.34,2.189c-2.086,0.175-3.121-0.512-3.082-2.722c0.06-3.327,0.059-6.658-0.047-9.982
			c-0.029-0.929-0.516-1.844-1.051-3.617c-0.521,1.468-0.818,1.926-0.825,2.388c-0.062,3.992-0.127,7.985-0.08,11.978
			c0.048,4.134,0.263,4.287,4.229,3.939c5.133-0.449,10.26-0.967,15.399-1.308c0.995-0.065,2.883,0.484,2.909,0.855
			c0.128,1.768,0.061,3.695-0.591,5.3c-0.256,0.631-2.253,0.896-3.396,0.771c-11.235-1.211-22.457-2.554-33.688-3.802
			c-0.765-0.085-1.58,0.295-2.371,0.458c0.013,0.347,0.026,0.693,0.039,1.039c13.603,1.604,27.206,3.207,41.049,4.839
			c0.429-2.554,0.913-4.646,1.098-6.764c0.194-2.227,1.147-3.155,3.44-3.265c3.982-0.189,7.948-0.688,11.921-1.058
			c3.319-0.448,5.65,0.758,7.112,3.878c0.761,1.625,2.045,2.996,2.944,4.565c1.387,2.421,3.001,2.865,5.09,0.872
			c10.668-3.981,33.364-15.235,36.012-18.018c-3.759-4.327-7.55-8.689-11.34-13.052c0.374-0.966,0.542-2.101,1.166-2.862
			c1.527-1.867,3.266-3.562,4.92-5.326c0.865-0.677,1.73-1.354,3.035-2.375c-2.896-2.365-5.438-4.439-7.979-6.514
			c-4.584-4.056-9.144-8.142-13.783-12.134c-0.646-0.556-1.757-1.041-2.523-0.892c-1.633,0.318-6.938,6.917-7.595,9.53
			c2.935-2.726,5.431-5.043,8.16-7.579c5.021,4.162,9.836,8.154,14.651,12.146c1.435,1.329,3.002,2.549,4.246,4.037
			C484.688,166.748,484.633,167.961,484.864,168.937z M299.813,197.063c3.384,2.634,6.77,5.268,10.153,7.901
			c9.43,7.388,18.891,14.737,28.263,22.197c1.768,1.407,3.11,1.418,4.792-0.003c2.92-2.467,5.945-4.806,8.927-7.199
			c2.592-1.896,5.798-3.169,6.438-7.151c-2.522,2.026-5.043,4.054-7.565,6.081c-2.143,1.564-4.295,3.113-6.424,4.694
			c-3.783,2.813-3.787,2.833-7.565-0.048c-8.582-6.542-17.154-13.098-25.73-19.647c-3.38-2.636-6.762-5.271-10.144-7.906
			c-1.979-1.72-3.959-3.439-6.362-5.525c6.4-4.768,12.432-9.258,18.462-13.75c-0.322-0.43-0.645-0.86-0.967-1.289
			c-7.105,4.576-13.756,9.81-21.076,15.156C294.239,192.952,297.026,195.008,299.813,197.063z M401.049,63.959
			c2.62,4.341,5.242,8.682,7.92,13.116c4.609-6.712,8.823-12.849,13.039-18.987c1.354-1.337,2.71-2.673,4.063-4.01
			c2.371-1.51,4.741-3.02,7.667-4.884c-4.702-7.399-9.352-14.713-14.094-22.172c-9.238,5.01-16.124,11.367-20.782,19.894
			c-5.286,9.673-4.406,7.63,1.027,15.211C400.275,62.738,400.662,63.349,401.049,63.959z M265.876,221.131
			c2.905,4.233,5.768,8.499,8.732,12.69c1.811,2.563,3.385,6.475,5.782,7.121c2.637,0.712,6.124-1.552,9.19-2.66
			c2.359-0.852,4.639-1.921,6.954-2.894c-0.138-0.371-0.275-0.742-0.413-1.113c-0.876,0.142-1.802,0.149-2.619,0.449
			c-2.956,1.085-5.947,2.118-8.79,3.458c-2.599,1.227-4.218,0.642-5.833-1.686c-3.87-5.582-7.962-11.01-11.964-16.499
			c-0.8-1.257-1.589-2.52-2.401-3.769c-2.238-3.438-2.265-3.529,1.595-5.349c6.007-2.83,12.071-5.54,18.09-8.348
			c1.244-0.58,2.393-1.36,3.586-2.048c-0.209-0.398-0.418-0.796-0.627-1.194c-9.346,3.78-18.384,8.26-28.212,12.661
			C261.544,215.393,263.71,218.262,265.876,221.131z M450.865,160.117c1.149,1.929,2.299,3.858,3.646,6.119
			c-7.032,2.855-13.643,5.488-20.207,8.235c-2.164,0.906-3.357,0.069-4.518-1.68c-2.844-4.289-5.786-8.514-8.752-12.72
			c-0.452-0.641-1.237-1.047-2.372-1.972c0.13,1.247,0.021,1.806,0.247,2.141c3.521,5.234,7.132,10.408,10.613,15.667
			c1.223,1.849,2.625,1.606,4.286,0.916c4.599-1.91,9.207-3.794,13.815-5.682c3.313-1.356,6.631-2.702,10.369-4.224
			c-2.288-2.971-4.193-5.443-6.099-7.916c-3.435-4.896-6.937-9.747-10.272-14.71c-1.312-1.952-2.758-1.957-4.691-1.216
			c-4.5,1.727-9.059,3.306-13.558,5.035c-0.702,0.27-1.221,1.017-1.824,1.542c0.169,0.315,0.338,0.629,0.507,0.944
			c4.47-1.613,9.002-3.076,13.388-4.892c2.854-1.183,4.578-0.476,6.264,1.983C444.615,151.933,447.799,155.985,450.865,160.117z
			 M444.854,96.954c1.37-1.309,2.74-2.617,4.282-4.091c-1.13-0.713-1.652-1.135-2.245-1.403c-9.298-4.208-19.146-6.469-29.138-8.23
			c-2.722-0.48-4.428,0.989-5.836,2.952c-2.604,3.629-3.487,7.847-3.841,12.187c-0.061,0.748,0.488,1.545,0.755,2.321
			c1.105-2.357,1.459-4.619,1.981-6.841c1.903-8.09,3.707-9.328,11.613-7.739c7.784,1.564,15.502,3.392,22.911,6.915
			c-0.584,1.108-1.029,1.953-1.474,2.797c-1.344,2.271-3.07,4.4-3.961,6.836c-3.475,9.497-6.79,19.056-9.957,28.66
			c-2.549,7.725-0.647,7.332-9.179,4.401c-2.726-0.937-5.446-1.88-8.17-2.821c-0.164,0.45-0.328,0.899-0.492,1.349
			c5.061,2.501,10.453,4.243,15.846,5.935c0.445,0.14,1.591-0.926,1.914-1.653c0.6-1.347,0.809-2.865,1.219-4.3
			C434.733,121.457,438.475,108.718,444.854,96.954z M317.926,226.024c2.694,2.991,5.389,5.982,8.082,8.974
			c-6.319,0.276-12.638,0.604-18.96,0.813c-5.628,0.186-5.617,0.124-7.095-5.125c-2.979-10.573-5.961-21.146-8.982-31.707
			c-0.343-1.196-0.957-2.315-1.634-3.914c-0.612,0.977-0.799,1.141-0.771,1.246c3.601,13.149,7.221,26.294,10.827,39.442
			c0.487,1.775,1.708,2.253,3.395,2.173c6.984-0.336,13.976-0.576,20.952-1.036c0.766-0.051,1.453-1.291,2.177-1.979
			c1.916,1.546,4.09,2.867,5.687,4.691c2.286,2.616,4.479,3.165,7.791,1.82c6.775-2.753,13.738-5.045,20.615-7.549
			c2.77-1.009,5.517-2.076,8.846-3.332c-2.492-2.81-4.565-5.146-6.637-7.483c-0.356,0.268-0.712,0.536-1.067,0.805
			c1.228,1.796,2.454,3.591,3.645,5.332c-0.337,0.439-0.482,0.838-0.74,0.933c-8.881,3.301-17.781,6.549-26.655,9.869
			c-1.988,0.744-3.087-0.379-4.309-1.575c-4.635-4.536-9.305-9.037-13.961-13.552c-6.104-6.063-12.206-12.127-18.338-18.164
			c-0.115-0.112-0.57,0.118-0.868,0.188c-0.09,0.293-0.348,0.753-0.246,0.856C305.742,213.86,311.836,219.941,317.926,226.024z
			 M335.767,185.079c9.884,5.918,19.768,11.836,29.969,17.942c4.888-7.808,9.399-15.013,13.774-22.001
			c-3.238-2.299-5.869-4.167-8.501-6.033c0.984-0.109,1.968-0.219,2.952-0.328c12.432,4.053,24.864,8.106,37.706,12.293
			c2.471-7.754,4.764-14.95,7.036-22.086c-9.013-3.938-31.292-10.138-35.494-9.466c2.58,0.917,4.202,1.569,5.871,2.072
			c7.478,2.257,14.971,4.467,22.455,6.703c4.921,1.47,4.922,1.478,3.328,6.561c-1.044,3.332-2.05,6.675-3.16,9.984
			c-1.173,3.495-1.451,3.686-5.014,2.553c-10.613-3.375-21.196-6.839-31.792-10.268c2.801-2.49,5.601-4.979,8.589-7.636
			c-3.823-3.245-7.452-6.39-11.462-9.009c-0.326,0.389-0.651,0.778-0.977,1.167c3.009,2.538,6.018,5.075,9.498,8.012
			c-6.254,4.754-11.985,8.959-17.531,13.396c-2.468,1.976-4.265,2.1-6.845-0.013c-8.599-7.041-17.43-13.798-26.152-20.689
			c-1.391-1.098-2.679-2.325-4.826-4.202c2.777-1.232,4.758-2.111,6.738-2.99c0.417,1.12,0.835,2.239,1.424,3.819
			c1.583-2.873,2.836-5.146,4.345-7.886c3.47,3.633,6.689,7.002,10.676,11.175c-1.931-6.309-3.555-11.613-5.178-16.917
			c3.046-2.526,5.762-2.338,8.631,0.533c1.217,1.216,2.578,2.972,5.435,2.692c-2.574-3.624-5.78-5.803-9.057-7.431
			c-1.272-0.633-3.757,1.177-5.693,1.86c-0.146,0.051-0.331-0.005-0.497-0.012c-0.25-0.789-0.491-1.581-0.751-2.367
			c-1.292-3.9-2.341-7.569-1.55-12.019c1.351-7.59-5.154-16.479-12.647-18.84c-5.405-1.704-9.202,0.652-8.899,6.35
			c0.194,3.653,1.43,7.572,3.285,10.734c2.386,4.071,4.112,8.276,5.47,12.722c1.259,4.125,2.591,8.229,3.892,12.342
			c-2.77,2.176-5.54,4.352-8.56,6.724c4.146,3.305,7.857,6.263,11.568,9.221c-0.566,0.608-1.147,1.205-1.698,1.827
			c-3.014,3.4-5.952,6.854-11.298,4.122c-0.474-0.242-2.171,0.762-2.476,1.52c-2.156,5.352-4.097,10.791-6.084,16.144
			c6.13,3.182,34.141,10.938,37.291,9.74c-11.484-3.452-22.971-6.902-34.945-10.502c1.783-4.703,3.352-8.873,4.95-13.029
			c0.596-1.55,1.788-1.838,3.246-1.343c0.458,0.155,0.877,0.425,1.177,0.574c-0.971,1.713-1.651,2.914-2.487,4.388
			C326.488,179.946,331.128,182.513,335.767,185.079z M377.41,90.01c-3.196,1.453-7.972,0.563-12.412,3.121
			c-3.109,1.792-5.056,3.428-6.738,6.692c-2.518,4.884-5.29,9.663-11.469,11.855c-6.277,2.229-7.506,6.993-4.759,12.359
			c0.39,0.761,1.198,1.343,1.897,1.903c3.143,2.516,7.111,1.768,10.679,2.607c4.021,0.946,8.077,1.888,12.171,2.352
			c3.014,0.341,5.324,0.337,7.768,3.284c3.058,3.688,3.475,7.884,1.869,10.791c-1.888,3.417-0.331,4.166,1.704,4.88
			c7.237,2.538,14.572,4.799,21.885,7.121c4.209,1.336,8.415,2.706,12.683,3.833c2.94,0.776,4.566-0.654,4.187-3.701
			c-0.363-2.896-0.785-5.886-1.85-8.57c-3.341-8.422-6.927-16.75-10.559-25.052c-1.915-4.377-2.765-8.259,1.437-12.064
			c2.299-2.081,2.761-5.161,1.109-8.212c-1.539-2.844-3.337-4.835-7.066-3.949c-1.521,0.36-3.05-0.084-3.847-2.091
			c-0.555-1.398-1.761-2.972-3.079-3.554C388.459,91.605,383.742,89.917,377.41,90.01z M255.583,96.086
			c10.607-0.613,20.225-1.204,29.847-1.716c14.631-0.78,29.268-1.431,43.892-2.317c3.035-0.184,4.53,0.838,5.506,3.641
			c1.529,4.394,3.329,8.7,5.185,12.968c0.432,0.992,1.729,2.497,2.325,2.368c2.263-0.491,0.762-2.148,0.384-3.135
			c-2.083-5.434-4.415-10.773-6.464-16.22c-0.79-2.102-2.008-2.804-4.134-2.611c-3.646,0.331-7.303,0.589-10.96,0.77
			c-21.949,1.082-43.9,2.128-65.85,3.209c-0.953,0.047-1.895,0.319-3.214,0.552c3.04,15.843,6.036,31.457,9.077,47.304
			c15.3-2.165,30.097-4.258,44.893-6.352c3.787-0.535,7.589-0.994,11.35-1.677c0.662-0.12,1.155-1.175,1.727-1.798
			c-0.659-0.346-1.289-0.788-1.988-1.003c-0.439-0.135-0.985,0.053-1.478,0.126c-5.265,0.782-10.522,1.609-15.792,2.351
			c-11.035,1.554-22.088,2.989-33.107,4.647c-2.563,0.385-3.523-0.187-3.953-2.83c-1.119-6.891-2.582-13.725-3.893-20.583
			C257.847,108.095,256.779,102.407,255.583,96.086z M347.951,269.531c-1.504-0.621-2.248-0.949-3.008-1.238
			c-8.522-3.235-16.193-0.306-19.802,8.03c-3.483,8.051-3.236,16.29,0.762,24.108c2.828,5.53,7.714,8.469,13.964,7.441
			c3.077-0.506,5.903-2.534,9.007-3.948c0.106,0.229,0.338,1.052,0.814,1.691c0.597,0.802,1.395,1.454,2.105,2.17
			c0.333-0.961,0.977-1.935,0.939-2.882c-0.1-2.478-0.711-4.939-0.738-7.413c-0.146-13.306-0.174-26.614-0.255-39.921
			c-0.008-1.328,0.067-2.692-0.219-3.968c-0.135-0.597-1.191-1.53-1.56-1.419c-0.745,0.227-1.644,0.958-1.861,1.669
			c-0.327,1.07-0.144,2.304-0.146,3.468C347.946,261.13,347.951,264.938,347.951,269.531z M503.283,300.478
			c5.128,7.037,12.936,9.651,20.763,7.072c9.609-3.168,12.663-16.266,5.14-23.119c-3.278-2.987-7.348-5.099-11.004-7.681
			c-2.57-1.815-5.375-3.449-7.507-5.701c-4.893-5.166-2.543-12.948,4.25-15.106c3.448-1.096,6.568-0.27,9.545,1.377
			c1.842,1.019,3.541,2.292,5.21,3.389c2.011-1.3,2.449-2.414,0.458-3.888c-3.427-2.538-7.183-4.195-11.442-4.456
			c-5.867-0.359-11.555,2.994-13.392,7.727c-2.235,5.762-0.635,11.4,4.609,15.496c2.086,1.628,4.432,2.926,6.661,4.371
			c2.927,1.897,5.957,3.655,8.761,5.719c4.022,2.963,5.157,6.689,3.819,11.405c-1.321,4.657-4.884,7.622-9.646,8.089
			c-4.837,0.475-8.837-1.258-12.048-4.751C506.054,298.89,504.924,298.316,503.283,300.478z M304.272,297.353
			c0.634,3.498,0.983,5.963,1.593,8.361c0.13,0.512,1.208,0.782,1.85,1.164c0.33-0.647,0.964-1.303,0.949-1.941
			c-0.256-10.808-0.592-21.612-0.91-32.419c-0.024-0.832,0.175-1.762-0.134-2.471c-0.333-0.767-1.141-1.325-1.741-1.975
			c-0.62,0.604-1.569,1.109-1.784,1.834c-0.319,1.078-0.13,2.309-0.138,3.475c-0.026,4.331,0.143,8.674-0.112,12.99
			c-0.352,5.933-1.8,11.522-6.408,15.778c-2.482,2.293-5.394,3.636-8.67,2.456c-3.329-1.199-3.845-4.398-3.91-7.462
			c-0.131-6.161-0.073-12.327-0.1-18.49c-0.013-2.831,0.107-5.678-0.163-8.485c-0.073-0.762-1.349-1.406-2.073-2.105
			c-0.506,0.728-1.093,1.414-1.486,2.198c-0.203,0.405-0.072,0.982-0.072,1.482c0,8.33-0.017,16.659,0.025,24.989
			c0.006,1.149,0.215,2.32,0.486,3.443c1.834,7.599,7.653,10.294,14.39,6.35c2.357-1.382,4.19-3.698,6.152-5.696
			C302.778,300.056,303.236,298.982,304.272,297.353z M15.25,277.272c-0.48-2.833-0.684-4.832-1.196-6.749
			c-0.294-1.099-1.184-2.979-1.646-2.932c-2.268,0.23-1.422,2.211-1.363,3.544c0.248,5.644,0.728,11.277,0.914,16.922
			c0.16,4.822-0.06,9.659,0.088,14.482c0.049,1.573-1.049,4.277,1.779,4.3c2.759,0.021,1.869-2.648,1.92-4.271
			c0.179-5.654-0.066-11.333,0.339-16.968c0.408-5.665,2.489-10.76,7.583-13.93c6.107-3.8,10.811-1.261,11.233,5.952
			c0.126,2.159,0.08,4.328,0.083,6.493c0.012,6.493-0.025,12.986,0.039,19.479c0.014,1.359-0.491,3.376,1.862,3.304
			c2.198-0.067,1.863-1.984,1.87-3.399c0.034-7.825,0.049-15.651-0.035-23.477c-0.02-1.815-0.36-3.646-0.716-5.437
			c-1.261-6.353-6.288-9.375-12.262-6.87c-2.796,1.173-5.176,3.448-7.559,5.447C17.099,274.076,16.465,275.527,15.25,277.272z
			 M264.933,287.529c-0.968-4.147-1.482-8.477-3.015-12.407c-2.133-5.469-6.735-8.101-12.575-8.174
			c-5.921-0.074-10.188,2.798-12.609,8.141c-3.699,8.165-3.585,16.553-0.2,24.697c2.196,5.282,6.419,8.255,12.495,8.286
			c6.19,0.033,10.747-2.602,12.964-8.248C263.476,296.045,263.937,291.865,264.933,287.529z M131.535,306.4
			c-3.932-5.488-7.821-10.836-11.623-16.245c-3.625-5.157-3.168-3.717-0.109-8.526c2.732-4.295,5.483-8.577,8.461-13.232
			c-5.458-1.037-5.596,3.441-7.417,5.737c-2.103,2.651-3.848,5.587-6.006,8.781c-3.082-4.684-5.757-8.688-8.362-12.737
			c-1.211-1.883-2.599-2.929-5.27-1.512c2.936,4.393,5.784,8.667,8.646,12.933c3.092,4.607,3.068,4.581-0.354,9.287
			c-3.698,5.086-7.333,10.219-11.211,15.634c2.578,0.971,4.292,0.807,5.594-1.234c1.165-1.824,2.352-3.634,3.562-5.426
			c2.367-3.506,4.757-6.996,7.422-10.909c1.406,1.994,2.375,3.317,3.291,4.676c2.511,3.727,5.023,7.451,7.487,11.21
			C127.006,306.909,128.652,307.851,131.535,306.4z M463.189,279.948c0,7.821,0.029,15.643-0.019,23.463
			c-0.014,2.259,0.307,3.876,3.185,3.834c7.153-0.104,14.31-0.033,21.465-0.036c0.332-0.001,0.757,0.087,0.979-0.079
			c0.581-0.436,1.074-0.989,1.602-1.496c-0.45-0.426-0.848-1.118-1.363-1.223c-1.126-0.228-2.311-0.196-3.473-0.2
			c-4.659-0.018-9.318,0.021-13.978-0.018c-4.566-0.039-4.609-0.069-4.617-4.742c-0.022-13.479-0.007-26.958-0.011-40.437
			c0-1.332,0.123-2.69-0.113-3.981c-0.113-0.625-1.083-1.659-1.395-1.57c-0.796,0.229-1.806,0.854-2.06,1.563
			c-0.374,1.042-0.2,2.294-0.202,3.457C463.179,265.638,463.185,272.793,463.189,279.948z M145.695,287.624
			c0.095,1.99,0.054,3.999,0.308,5.968c1.272,9.847,9.477,16.211,19.107,14.17c3.174-0.673,5.96-3.287,8.827-5.161
			c0.357-0.233,0.402-1.813,0.102-2.006c-0.654-0.419-1.66-0.549-2.454-0.41c-0.546,0.097-1.004,0.818-1.456,1.304
			c-5.349,5.743-16.095,5.176-19.772-5.477c-1.893-5.484-1.847-11.119-0.16-16.674c1.394-4.592,4.241-7.975,9.047-9.078
			c4.677-1.074,8.491,0.726,11.393,4.434c0.977,1.248,1.798,2.612,3.472,1.019c1.482-1.411,0.064-2.438-0.699-3.373
			c-6.536-8.003-19.227-7.023-24.648,1.873C146.246,278.339,145.573,282.885,145.695,287.624z M426.698,281.493
			c0,6.993-0.01,13.985,0.01,20.979c0.004,1.16,0.005,2.353,0.275,3.465c0.108,0.445,0.944,0.994,1.441,0.986
			c0.486-0.008,1.299-0.603,1.379-1.046c0.233-1.297,0.22-2.646,0.221-3.976c0.013-13.819-0.014-27.639,0.023-41.458
			c0.012-4.104,0.088-4.133,4.19-4.215c2.996-0.06,6,0.063,8.986-0.111c0.756-0.044,1.462-0.917,2.191-1.409
			c-0.769-0.482-1.515-1.332-2.308-1.379c-2.987-0.176-5.99-0.099-8.987-0.099c-6.826,0-13.654-0.046-20.478,0.092
			c-0.843,0.017-1.666,1.029-2.499,1.581c0.773,0.429,1.53,1.188,2.322,1.227c3.157,0.153,6.329,0.196,9.486,0.06
			c2.823-0.123,3.82,1.055,3.776,3.826C426.615,267.173,426.691,274.334,426.698,281.493z M206.777,279.772
			c0-7.974,0.068-15.949-0.07-23.92c-0.021-1.272-0.876-3.569-1.495-3.621c-3.949-0.333-7.942-0.21-11.917-0.112
			c-0.418,0.011-1.121,0.824-1.14,1.288c-0.018,0.451,0.621,1.271,1.061,1.337c1.466,0.224,2.973,0.215,4.464,0.234
			c5.23,0.069,5.264,0.06,5.271,5.116c0.019,13.788,0.003,27.575,0.012,41.363c0.001,1.327-0.081,2.688,0.19,3.966
			c0.127,0.595,0.991,1.409,1.552,1.435c0.6,0.027,1.634-0.653,1.778-1.207c0.328-1.258,0.284-2.627,0.288-3.951
			C206.793,294.391,206.782,287.082,206.777,279.772z M73.005,287.483c-0.005,0-0.01,0-0.016,0c0-5.491-0.03-10.982,0.016-16.475
			c0.017-1.985-0.596-3.166-2.82-3.122c-3.161,0.063-6.33-0.102-9.48,0.092c-0.871,0.053-1.687,1.027-2.528,1.578
			c0.92,0.471,1.798,1.194,2.768,1.351c1.461,0.235,2.995,0.176,4.482,0.057c2.79-0.224,4.007,0.964,3.765,3.751
			c-0.085,0.991-0.006,1.996-0.006,2.994c0,7.322-0.183,14.652,0.104,21.964c0.095,2.437-1.864,6.903,1.964,6.942
			c3.351,0.034,1.483-4.308,1.663-6.656C73.232,295.822,73.005,291.645,73.005,287.483z M440.697,236.696
			c-8.849-1.104-16.926-2.068-24.991-3.128c-13.515-1.774-27.019-3.625-40.535-5.377c-0.867-0.113-1.809,0.348-2.715,0.541
			c0.917,0.998,1.702,1.211,2.501,1.318c8.731,1.172,17.465,2.338,26.199,3.488c12.854,1.691,25.716,3.338,38.563,5.082
			c2.194,0.299,3.013-0.512,3.204-2.599c0.544-5.959,1.231-11.906,1.754-17.867c0.079-0.897-0.179-2.461-0.695-2.665
			c-2.386-0.939-4.834-2.159-7.544-1.298c1.275,1.021,2.637,1.545,4.034,1.946c1.721,0.493,2.427,1.536,2.213,3.324
			C442.017,225.041,441.394,230.624,440.697,236.696z M362.314,217.785c-0.205-0.289-0.409-0.579-0.614-0.868
			c-0.936,0.518-1.952,0.929-2.793,1.57c-4.627,3.53-9.204,7.125-13.812,10.681c-4.259,3.286-4.251,3.256-8.365,0.044
			c-13.237-10.334-26.483-20.659-39.747-30.958c-0.889-0.69-1.966-1.138-2.955-1.698c-0.214,1.287,0.061,1.885,0.521,2.245
			c14.676,11.465,29.396,22.875,44.028,34.396c1.873,1.475,3.155,1.123,4.792-0.168c5.874-4.634,11.813-9.185,17.709-13.793
			C361.569,218.853,361.906,218.273,362.314,217.785z M433.468,226.787c-7.73-0.372-14.986-0.655-22.234-1.089
			c-7.468-0.447-14.921-1.321-22.393-1.49c-7.088-0.161-14.189-1.357-21.286-0.486c4.783,1.974,64.574,5.365,68.27,4.14
			c-1.573-6.653-1.469-13.682-3.662-20.253c-0.41,0.063-0.821,0.127-1.232,0.19C431.752,213.947,432.574,220.094,433.468,226.787z
			 M447.404,235.069c3.919,1.045,41.13-11.003,44.463-13.606c-3.202-6.128-11.356-16.913-14.335-18.383
			c3.103,6.347,8.297,11.467,11.829,18.172c-7.647,2.475-14.593,4.693-21.517,6.974
			C461.021,230.474,454.217,232.785,447.404,235.069z M267.675,104.839c-0.002-0.025-0.003-0.051-0.005-0.077
			c8.436-0.566,16.872-1.12,25.305-1.712c1.226-0.086,2.834,0.289,2.85-1.812c0.017-2.248-1.516-2.215-3.076-2.119
			c-5.791,0.356-11.582,0.711-17.371,1.102c-2.977,0.201-5.966,0.359-8.912,0.791c-0.851,0.125-2.086,1.015-2.251,1.754
			c-0.394,1.762,0.95,2.195,2.467,2.117C267.012,104.866,267.343,104.854,267.675,104.839z M355.123,202.853
			c-0.376-0.061-0.754-0.122-1.132-0.183c-0.613,1.943-1.226,3.886-1.99,6.307c8.501,1.348,16.339,2.59,24.091,3.819
			c2.62-5.455,6.528-26.271,5.287-30.165c-0.616,2.457-1.104,4.153-1.464,5.876c-1.329,6.351-2.646,12.703-3.898,19.068
			c-0.354,1.803-0.73,3.204-3.127,2.787c-5.243-0.912-10.509-1.701-15.774-2.487c-1.682-0.251-2.262-1.117-2.011-2.752
			C355.218,204.383,355.123,203.61,355.123,202.853z M383.64,308.18c2.924,0.008,5.216-2.177,5.128-4.891
			c-0.08-2.479-2.313-4.8-4.745-4.937c-2.772-0.154-5.124,2.019-5.238,4.841C378.659,306.258,380.524,308.172,383.64,308.18z
			 M288.01,125.123c-5.574,0.663-10.195,1.228-14.82,1.753c-1.313,0.149-2.501,0.606-1.909,2.09
			c0.317,0.792,1.582,1.785,2.341,1.723c4.637-0.372,9.263-0.943,13.861-1.65c0.833-0.128,1.523-1.191,2.279-1.822
			C289.063,126.381,288.362,125.545,288.01,125.123z M296.16,125.107c0.934,3.708,0.943,3.778,3.178,3.466
			c2.774-0.387,5.561-0.782,8.276-1.442c0.792-0.193,1.896-1.28,1.926-1.997c0.068-1.636-1.11-2.117-2.722-1.816
			C303.43,123.95,300.021,124.467,296.16,125.107z M270.133,119.884c3.39-0.333,5.836-0.602,8.288-0.804
			c1.423-0.117,2.642-0.297,2.377-2.233c-0.259-1.899-1.613-1.806-2.941-1.692c-2.451,0.21-4.894,0.523-7.344,0.735
			c-1.423,0.123-2.902,0.382-2.276,2.203C268.551,119.005,269.806,119.594,270.133,119.884z M289.025,117.898
			c3.543-0.348,6.183-0.466,8.754-0.945c0.768-0.143,1.346-1.299,2.012-1.99c-0.777-0.615-1.557-1.754-2.331-1.751
			c-2.613,0.008-5.224,0.432-7.838,0.676c-1.342,0.125-2.952,0.193-2.398,2.096C287.491,116.906,288.687,117.559,289.025,117.898z
			 M71.122,252.46c-1.958-0.074-3.841,1.612-3.996,3.578c-0.157,1.983,1.436,3.769,3.515,3.939c2.328,0.192,4.289-1.512,4.254-3.695
			C74.864,254.35,73.071,252.534,71.122,252.46z M311.243,115.387c-1.683-1.245-2.469-2.276-3.144-2.208
			c-0.743,0.075-1.665,1.058-1.954,1.849c-0.146,0.399,0.875,1.707,1.469,1.779C308.41,116.904,309.304,116.203,311.243,115.387z"/>
		<path fill-rule="evenodd" clip-rule="evenodd" fill="#3D3D3D" d="M377.41,90.01c6.332-0.093,11.049,1.595,15.609,3.605
			c1.318,0.582,2.524,2.156,3.079,3.554c0.797,2.007,2.326,2.451,3.847,2.091c3.729-0.886,5.527,1.104,7.066,3.949
			c1.651,3.052,1.189,6.132-1.109,8.212c-4.201,3.805-3.352,7.687-1.437,12.064c3.632,8.302,7.218,16.63,10.559,25.052
			c1.064,2.684,1.486,5.674,1.85,8.57c0.38,3.047-1.246,4.477-4.187,3.701c-4.268-1.127-8.474-2.497-12.683-3.833
			c-7.313-2.321-14.647-4.583-21.885-7.121c-2.035-0.714-3.592-1.462-1.704-4.88c1.605-2.907,1.188-7.103-1.869-10.791
			c-2.443-2.947-4.754-2.942-7.768-3.284c-4.094-0.463-8.149-1.405-12.171-2.352c-3.567-0.839-7.536-0.091-10.679-2.607
			c-0.699-0.56-1.508-1.142-1.897-1.903c-2.747-5.366-1.519-10.131,4.759-12.359c6.179-2.193,8.951-6.971,11.469-11.855
			c1.683-3.264,3.629-4.899,6.738-6.692C369.438,90.573,374.214,91.463,377.41,90.01z"/>
		<path fill-rule="evenodd" clip-rule="evenodd" fill="#3F3F3F" d="M255.583,96.086c1.196,6.32,2.264,12.008,3.351,17.693
			c1.311,6.859,2.774,13.693,3.893,20.583c0.429,2.643,1.39,3.215,3.953,2.83c11.02-1.658,22.072-3.093,33.107-4.647
			c5.27-0.742,10.527-1.569,15.792-2.351c0.492-0.073,1.038-0.261,1.478-0.126c0.699,0.215,1.329,0.658,1.988,1.003
			c-0.571,0.623-1.064,1.678-1.727,1.798c-3.761,0.683-7.563,1.142-11.35,1.677c-14.796,2.094-29.592,4.187-44.893,6.352
			c-3.041-15.848-6.037-31.461-9.077-47.304c1.32-0.233,2.262-0.505,3.214-0.552c21.949-1.082,43.9-2.127,65.85-3.209
			c3.657-0.181,7.313-0.439,10.96-0.77c2.126-0.193,3.344,0.509,4.134,2.611c2.049,5.447,4.381,10.787,6.464,16.22
			c0.378,0.987,1.879,2.645-0.384,3.135c-0.596,0.129-1.894-1.376-2.325-2.368c-1.855-4.269-3.655-8.574-5.185-12.968
			c-0.976-2.803-2.471-3.824-5.506-3.641c-14.624,0.886-29.261,1.537-43.892,2.317C275.808,94.883,266.19,95.474,255.583,96.086z"/>
		<path fill-rule="evenodd" clip-rule="evenodd" fill="#3E3E3E" d="M330.813,147.798c-1.301-4.113-2.633-8.216-3.892-12.342
			c-1.357-4.446-3.084-8.651-5.47-12.722c-1.855-3.163-3.091-7.082-3.285-10.734c-0.303-5.698,3.494-8.054,8.899-6.35
			c7.493,2.361,13.998,11.25,12.647,18.84c-0.791,4.449,0.258,8.118,1.55,12.019c0.26,0.786,0.501,1.578,0.751,2.367
			c0.394,0.786,0.787,1.572,1.182,2.358c1.623,5.304,3.247,10.608,5.178,16.917c-3.986-4.173-7.206-7.542-10.676-11.175
			c-1.509,2.74-2.762,5.013-4.345,7.886c-0.589-1.58-1.007-2.7-1.424-3.819C331.557,149.961,331.186,148.88,330.813,147.798z
			 M321.925,113.198c0.12,3.704,1.935,7.419,4.787,10.469c1.378,1.472,3.484,2.519,5.455,3.113c2.536,0.765,3.607-0.31,3.789-2.991
			c0.383-5.627-4.263-12.554-9.602-14.318C323.256,108.447,322.072,109.277,321.925,113.198z M338.375,139.982
			c-0.325-1.004-0.863-2.727-1.442-4.437c-1.63-4.81-1.637-4.807-7.32-4.251c1.361,4.238,2.689,8.377,4.085,12.72
			C335.31,142.625,336.513,141.588,338.375,139.982z"/>
		<path fill-rule="evenodd" clip-rule="evenodd" fill="#6A6A6A" d="M347.951,269.531c0-4.593-0.005-8.401,0.004-12.211
			c0.002-1.164-0.182-2.397,0.146-3.468c0.218-0.711,1.116-1.442,1.861-1.669c0.368-0.111,1.425,0.822,1.56,1.419
			c0.286,1.275,0.211,2.64,0.219,3.968c0.081,13.307,0.108,26.615,0.255,39.921c0.027,2.474,0.639,4.936,0.738,7.413
			c0.037,0.947-0.606,1.921-0.939,2.882c-0.711-0.716-1.509-1.368-2.105-2.17c-0.477-0.64-0.708-1.462-0.814-1.691
			c-3.104,1.414-5.93,3.442-9.007,3.948c-6.25,1.027-11.136-1.911-13.964-7.441c-3.998-7.818-4.245-16.058-0.762-24.108
			c3.608-8.336,11.279-11.266,19.802-8.03C345.703,268.582,346.447,268.91,347.951,269.531z M347.948,286.078
			c-0.003,0-0.006,0-0.009,0c0-3.328,0.226-6.68-0.106-9.974c-0.142-1.414-1.12-3.159-2.271-3.987
			c-6.221-4.479-14.513-1.644-17.391,6.11c-2.325,6.268-2.088,12.748,0.097,19.07c0.477,1.38,1.362,2.683,2.296,3.827
			c2.746,3.374,6.996,4.699,10.723,3.508c3.829-1.225,6.553-5.086,6.649-9.568C348,292.071,347.948,289.074,347.948,286.078z"/>
		<path fill-rule="evenodd" clip-rule="evenodd" fill="#3E3E3E" d="M503.283,300.478c1.641-2.161,2.771-1.588,4.177-0.058
			c3.211,3.493,7.211,5.226,12.048,4.751c4.763-0.467,8.325-3.432,9.646-8.089c1.338-4.716,0.203-8.442-3.819-11.405
			c-2.804-2.063-5.834-3.821-8.761-5.719c-2.229-1.445-4.575-2.743-6.661-4.371c-5.244-4.096-6.845-9.734-4.609-15.496
			c1.837-4.732,7.524-8.086,13.392-7.727c4.26,0.261,8.016,1.918,11.442,4.456c1.991,1.474,1.553,2.588-0.458,3.888
			c-1.669-1.097-3.368-2.37-5.21-3.389c-2.977-1.646-6.097-2.473-9.545-1.377c-6.793,2.158-9.143,9.94-4.25,15.106
			c2.132,2.252,4.937,3.886,7.507,5.701c3.656,2.582,7.726,4.693,11.004,7.681c7.523,6.854,4.47,19.951-5.14,23.119
			C516.219,310.129,508.411,307.515,503.283,300.478z"/>
		<path fill-rule="evenodd" clip-rule="evenodd" fill="#6B6B6B" d="M304.272,297.353c-1.036,1.63-1.494,2.703-2.256,3.477
			c-1.962,1.998-3.795,4.314-6.152,5.696c-6.736,3.944-12.556,1.249-14.39-6.35c-0.271-1.123-0.48-2.294-0.486-3.443
			c-0.042-8.33-0.026-16.659-0.025-24.989c0-0.5-0.131-1.077,0.072-1.482c0.393-0.784,0.979-1.471,1.486-2.198
			c0.724,0.699,2,1.344,2.073,2.105c0.271,2.808,0.15,5.654,0.163,8.485c0.027,6.163-0.031,12.329,0.1,18.49
			c0.065,3.063,0.581,6.263,3.91,7.462c3.276,1.18,6.188-0.163,8.67-2.456c4.608-4.256,6.057-9.846,6.408-15.778
			c0.255-4.316,0.086-8.659,0.112-12.99c0.008-1.166-0.182-2.396,0.138-3.475c0.215-0.725,1.164-1.23,1.784-1.834
			c0.601,0.649,1.408,1.208,1.741,1.975c0.309,0.709,0.109,1.639,0.134,2.471c0.318,10.807,0.654,21.611,0.91,32.419
			c0.015,0.639-0.619,1.294-0.949,1.941c-0.642-0.382-1.72-0.652-1.85-1.164C305.256,303.315,304.906,300.851,304.272,297.353z"/>
		<path fill-rule="evenodd" clip-rule="evenodd" fill="#6A6A6A" d="M15.25,277.272c1.215-1.745,1.849-3.196,2.935-4.108
			c2.382-1.999,4.762-4.274,7.559-5.447c5.975-2.505,11.001,0.518,12.262,6.87c0.355,1.791,0.696,3.621,0.716,5.437
			c0.084,7.825,0.069,15.651,0.035,23.477c-0.006,1.415,0.329,3.332-1.87,3.399c-2.353,0.072-1.848-1.944-1.862-3.304
			c-0.064-6.493-0.027-12.986-0.039-19.479c-0.003-2.165,0.043-4.334-0.083-6.493c-0.423-7.213-5.126-9.752-11.233-5.952
			c-5.093,3.17-7.174,8.265-7.583,13.93c-0.406,5.635-0.16,11.313-0.339,16.968c-0.052,1.623,0.839,4.293-1.92,4.271
			c-2.829-0.022-1.73-2.727-1.779-4.3c-0.148-4.823,0.071-9.66-0.088-14.482c-0.186-5.645-0.666-11.278-0.914-16.922
			c-0.059-1.333-0.904-3.313,1.363-3.544c0.461-0.048,1.351,1.833,1.646,2.932C14.567,272.44,14.77,274.439,15.25,277.272z"/>
		<path fill-rule="evenodd" clip-rule="evenodd" fill="#696969" d="M264.933,287.529c-0.996,4.336-1.457,8.516-2.94,12.295
			c-2.218,5.646-6.774,8.281-12.964,8.248c-6.075-0.031-10.299-3.004-12.495-8.286c-3.385-8.145-3.499-16.532,0.2-24.697
			c2.42-5.343,6.688-8.215,12.609-8.141c5.84,0.073,10.442,2.705,12.575,8.174C263.451,279.053,263.965,283.382,264.933,287.529z
			 M237.502,287.389c0.125,0.031,0.25,0.063,0.375,0.094c0.117,2.156,0.127,4.325,0.392,6.462c0.162,1.302,0.635,2.585,1.108,3.823
			c1.974,5.163,4.926,7.242,10.119,7.213c4.727-0.026,8.031-2.219,9.728-7.071c2.433-6.959,2.557-14.035-0.145-20.978
			c-1.819-4.673-5.334-7.003-9.912-6.932c-4.533,0.071-8.183,2.498-9.702,7.207C238.412,280.473,238.129,283.986,237.502,287.389z"
			/>
		<path fill-rule="evenodd" clip-rule="evenodd" fill="#6A6A6A" d="M131.535,306.4c-2.883,1.45-4.528,0.509-5.887-1.564
			c-2.464-3.759-4.977-7.483-7.487-11.21c-0.916-1.358-1.885-2.682-3.291-4.676c-2.665,3.913-5.055,7.403-7.422,10.909
			c-1.21,1.792-2.397,3.602-3.562,5.426c-1.303,2.041-3.016,2.205-5.594,1.234c3.878-5.415,7.513-10.548,11.211-15.634
			c3.422-4.706,3.446-4.68,0.354-9.287c-2.862-4.266-5.711-8.54-8.646-12.933c2.671-1.417,4.059-0.371,5.27,1.512
			c2.604,4.05,5.28,8.054,8.362,12.737c2.158-3.194,3.903-6.13,6.006-8.781c1.821-2.296,1.958-6.774,7.417-5.737
			c-2.978,4.655-5.729,8.938-8.461,13.232c-3.059,4.81-3.516,3.369,0.109,8.526C123.714,295.564,127.603,300.912,131.535,306.4z"/>
		<path fill-rule="evenodd" clip-rule="evenodd" fill="#454545" d="M463.187,279.948c-0.002-7.155-0.008-14.311,0.003-21.466
			c0.002-1.163-0.172-2.415,0.202-3.457c0.254-0.708,1.264-1.333,2.06-1.563c0.312-0.089,1.281,0.945,1.395,1.57
			c0.236,1.291,0.113,2.649,0.113,3.981c0.004,13.479-0.012,26.957,0.011,40.437c0.008,4.673,0.051,4.703,4.617,4.742
			c4.659,0.039,9.318,0,13.978,0.018c1.162,0.004,2.347-0.027,3.473,0.2c0.516,0.104,0.913,0.797,1.363,1.223
			c-0.527,0.507-1.021,1.061-1.602,1.496c-0.222,0.166-0.646,0.078-0.979,0.079c-7.155,0.003-14.312-0.068-21.465,0.036
			c-2.878,0.042-3.198-1.575-3.185-3.834C463.219,295.591,463.189,287.77,463.187,279.948z"/>
		<path fill-rule="evenodd" clip-rule="evenodd" fill="#696969" d="M145.695,287.624c-0.122-4.739,0.551-9.285,3.067-13.412
			c5.421-8.896,18.113-9.876,24.648-1.873c0.764,0.936,2.181,1.962,0.699,3.373c-1.674,1.594-2.495,0.229-3.472-1.019
			c-2.902-3.708-6.716-5.508-11.393-4.434c-4.807,1.104-7.653,4.486-9.047,9.078c-1.687,5.555-1.733,11.189,0.16,16.674
			c3.677,10.652,14.423,11.22,19.772,5.477c0.452-0.485,0.91-1.207,1.456-1.304c0.794-0.139,1.8-0.009,2.454,0.41
			c0.3,0.193,0.255,1.772-0.102,2.006c-2.867,1.874-5.653,4.488-8.827,5.161c-9.631,2.041-17.835-4.323-19.107-14.17
			C145.749,291.623,145.79,289.614,145.695,287.624z"/>
		<path fill-rule="evenodd" clip-rule="evenodd" fill="#6D6D6D" d="M439.996,199.782c-3.973,0.369-7.938,0.868-11.921,1.058
			c-2.293,0.109-3.246,1.038-3.44,3.265c-0.185,2.118-0.669,4.21-1.098,6.764c-13.843-1.632-27.446-3.235-41.049-4.839
			c-0.013-0.346-0.026-0.692-0.039-1.039c0.791-0.163,1.606-0.543,2.371-0.458c11.23,1.248,22.452,2.591,33.688,3.802
			c1.144,0.124,3.141-0.141,3.396-0.771c0.651-1.604,0.719-3.532,0.591-5.3c-0.026-0.371-1.914-0.921-2.909-0.855
			c-5.14,0.341-10.267,0.858-15.399,1.308c-3.967,0.348-4.182,0.194-4.229-3.939c-0.047-3.992,0.019-7.985,0.08-11.978
			c0.007-0.462,0.305-0.92,0.825-2.388c0.535,1.773,1.021,2.688,1.051,3.617c0.105,3.324,0.106,6.655,0.047,9.982
			c-0.039,2.21,0.996,2.896,3.082,2.722c9.11-0.763,18.228-1.45,27.34-2.189c7.104-0.576,14.205-1.189,22.028-1.847
			c-1.179-7.136-2.313-14.009-3.449-20.883c0.467-0.082,0.933-0.165,1.399-0.246c1.968,7.327,2.879,14.88,4.516,23.051
			c-3.565,0.162-6.649,0.301-9.732,0.44C444.761,199.299,442.378,199.54,439.996,199.782z"/>
		<path fill-rule="evenodd" clip-rule="evenodd" fill="#414141" d="M426.694,281.493c-0.003-7.159-0.079-14.32,0.035-21.478
			c0.044-2.771-0.953-3.949-3.776-3.826c-3.157,0.137-6.329,0.094-9.486-0.06c-0.792-0.038-1.549-0.798-2.322-1.227
			c0.833-0.552,1.656-1.564,2.499-1.581c6.823-0.138,13.651-0.092,20.478-0.092c2.997,0,6-0.077,8.987,0.099
			c0.793,0.047,1.539,0.896,2.308,1.379c-0.729,0.492-1.436,1.365-2.191,1.409c-2.986,0.175-5.99,0.052-8.986,0.111
			c-4.103,0.082-4.179,0.11-4.19,4.215c-0.037,13.819-0.011,27.639-0.023,41.458c-0.001,1.329,0.013,2.679-0.221,3.976
			c-0.08,0.443-0.893,1.038-1.379,1.046c-0.497,0.008-1.333-0.541-1.441-0.986c-0.271-1.112-0.271-2.305-0.275-3.465
			C426.688,295.479,426.698,288.486,426.694,281.493z"/>
		<path fill-rule="evenodd" clip-rule="evenodd" fill="#6E6E6E" d="M206.78,279.772c0.002,7.31,0.013,14.618-0.007,21.928
			c-0.004,1.324,0.04,2.693-0.288,3.951c-0.144,0.554-1.178,1.234-1.778,1.207c-0.561-0.025-1.425-0.84-1.552-1.435
			c-0.271-1.278-0.189-2.639-0.19-3.966c-0.009-13.788,0.006-27.575-0.012-41.363c-0.007-5.057-0.041-5.047-5.271-5.116
			c-1.491-0.02-2.998-0.011-4.464-0.234c-0.44-0.066-1.079-0.886-1.061-1.337c0.019-0.464,0.721-1.277,1.14-1.288
			c3.975-0.098,7.968-0.221,11.917,0.112c0.619,0.052,1.474,2.349,1.495,3.621C206.845,263.823,206.777,271.799,206.78,279.772z"/>
		<path fill-rule="evenodd" clip-rule="evenodd" fill="#727272" d="M330.813,147.798c0.372,1.082,0.743,2.163,1.116,3.243
			c-1.98,0.879-3.961,1.758-6.738,2.99c2.147,1.877,3.436,3.104,4.826,4.202c8.723,6.892,17.554,13.648,26.152,20.689
			c2.58,2.112,4.377,1.988,6.845,0.013c5.546-4.437,11.277-8.642,17.531-13.396c-3.48-2.937-6.489-5.474-9.498-8.012
			c0.325-0.389,0.65-0.778,0.977-1.167c4.01,2.619,7.639,5.764,11.462,9.009c-2.988,2.656-5.788,5.146-8.589,7.636
			c-0.313,0.551-0.624,1.103-0.937,1.653c-0.984,0.109-1.968,0.219-2.952,0.328c-0.685,0.616-1.369,1.234-2.055,1.852
			c-1.987,1.491-3.968,2.989-5.962,4.47c-3.509,2.604-3.514,2.602-7.095-0.166c-6.937-5.365-13.872-10.731-20.808-16.096
			c-0.423-0.435-0.845-0.869-1.268-1.304c-3.711-2.958-7.423-5.917-11.568-9.221C325.273,152.15,328.044,149.975,330.813,147.798z"
			/>
		<path fill-rule="evenodd" clip-rule="evenodd" fill="#727272" d="M333.822,163.743c0.423,0.435,0.845,0.869,1.268,1.304
			c-3.428,3.686-6.855,7.373-10.544,11.339c4.545,2.822,8.476,5.265,12.407,7.705c-0.396,0.329-0.791,0.659-1.187,0.988
			c-4.639-2.566-9.278-5.133-14.269-7.896c0.836-1.474,1.517-2.675,2.487-4.388c-0.3-0.149-0.719-0.419-1.177-0.574
			c-1.458-0.495-2.65-0.207-3.246,1.343c-1.599,4.156-3.167,8.326-4.95,13.029c11.975,3.6,23.461,7.05,34.945,10.502
			c-3.15,1.198-31.161-6.559-37.291-9.74c1.987-5.353,3.928-10.792,6.084-16.144c0.305-0.758,2.002-1.762,2.476-1.52
			c5.346,2.732,8.284-0.722,11.298-4.122C332.675,164.948,333.256,164.352,333.822,163.743z"/>
		<path fill-rule="evenodd" clip-rule="evenodd" fill="#6D6D6D" d="M73.005,287.483c0,4.161,0.228,8.339-0.088,12.476
			c-0.179,2.349,1.688,6.69-1.663,6.656c-3.829-0.039-1.869-4.506-1.964-6.942c-0.287-7.312-0.103-14.642-0.104-21.964
			c0-0.998-0.079-2.003,0.006-2.994c0.242-2.787-0.975-3.975-3.765-3.751c-1.487,0.119-3.021,0.179-4.482-0.057
			c-0.97-0.156-1.848-0.88-2.768-1.351c0.841-0.551,1.657-1.525,2.528-1.578c3.15-0.193,6.32-0.029,9.48-0.092
			c2.224-0.044,2.837,1.137,2.82,3.122c-0.046,5.492-0.016,10.983-0.016,16.475C72.995,287.483,73,287.483,73.005,287.483z"/>
		<path fill-rule="evenodd" clip-rule="evenodd" fill="#6F6F6F" d="M440.697,236.696c0.696-6.072,1.319-11.655,1.988-17.233
			c0.214-1.788-0.492-2.831-2.213-3.324c-1.397-0.401-2.759-0.925-4.034-1.946c2.71-0.861,5.158,0.358,7.544,1.298
			c0.517,0.204,0.774,1.768,0.695,2.665c-0.522,5.961-1.21,11.908-1.754,17.867c-0.191,2.087-1.01,2.897-3.204,2.599
			c-12.848-1.744-25.709-3.391-38.563-5.082c-8.734-1.15-17.468-2.316-26.199-3.488c-0.799-0.107-1.584-0.32-2.501-1.318
			c0.906-0.193,1.848-0.654,2.715-0.541c13.517,1.752,27.021,3.603,40.535,5.377C423.771,234.628,431.849,235.593,440.697,236.696z"
			/>
		<path fill-rule="evenodd" clip-rule="evenodd" fill="#717171" d="M373.961,174.659c0.313-0.551,0.624-1.103,0.937-1.653
			c10.596,3.429,21.179,6.893,31.792,10.268c3.563,1.133,3.841,0.942,5.014-2.553c1.11-3.31,2.116-6.652,3.16-9.984
			c1.594-5.083,1.593-5.091-3.328-6.561c-7.484-2.236-14.978-4.446-22.455-6.703c-1.669-0.503-3.291-1.156-5.871-2.072
			c4.202-0.672,26.481,5.528,35.494,9.466c-2.272,7.136-4.565,14.332-7.036,22.086C398.825,182.766,386.393,178.712,373.961,174.659
			z"/>
		<path fill-rule="evenodd" clip-rule="evenodd" fill="#737373" d="M362.314,217.785c-0.408,0.488-0.745,1.067-1.235,1.45
			c-5.896,4.608-11.835,9.159-17.709,13.793c-1.637,1.291-2.919,1.643-4.792,0.168c-14.633-11.521-29.353-22.931-44.028-34.396
			c-0.461-0.36-0.735-0.958-0.521-2.245c0.989,0.561,2.066,1.008,2.955,1.698c13.264,10.299,26.51,20.624,39.747,30.958
			c4.114,3.212,4.106,3.242,8.365-0.044c4.607-3.556,9.185-7.15,13.812-10.681c0.841-0.642,1.857-1.053,2.793-1.57
			C361.905,217.206,362.109,217.496,362.314,217.785z"/>
		<path fill-rule="evenodd" clip-rule="evenodd" fill="#717171" d="M433.468,226.787c-0.894-6.693-1.716-12.84-2.538-18.988
			c0.411-0.063,0.822-0.127,1.232-0.19c2.193,6.571,2.089,13.6,3.662,20.253c-3.695,1.226-63.486-2.166-68.27-4.14
			c7.097-0.871,14.198,0.325,21.286,0.486c7.472,0.169,14.925,1.043,22.393,1.49C418.481,226.132,425.737,226.415,433.468,226.787z"
			/>
		<path fill-rule="evenodd" clip-rule="evenodd" fill="#737373" d="M399.89,62.127c-5.434-7.581-6.313-5.538-1.027-15.211
			c4.658-8.526,11.544-14.884,20.782-19.894c4.742,7.458,9.392,14.773,14.094,22.172c-2.926,1.864-5.296,3.374-7.667,4.884
			c-0.374-0.36-0.749-0.721-1.123-1.081c1.883-1.53,3.767-3.06,5.902-4.794c-3.499-5.498-6.936-10.759-10.217-16.117
			c-1.482-2.421-2.954-1.963-4.844-0.596c-5.834,4.22-10.915,9.15-14.692,15.32c-4.359,7.123-4.335,7.137-0.249,14.186
			C400.528,61.374,400.209,61.75,399.89,62.127z"/>
		<path fill-rule="evenodd" clip-rule="evenodd" fill="#737373" d="M447.404,235.069c6.813-2.284,13.616-4.596,20.44-6.844
			c6.924-2.28,13.869-4.499,21.517-6.974c-3.532-6.705-8.727-11.825-11.829-18.172c2.979,1.47,11.133,12.255,14.335,18.383
			C488.534,224.066,451.323,236.114,447.404,235.069z"/>
		<path fill-rule="evenodd" clip-rule="evenodd" fill="#737373" d="M335.767,185.079c0.396-0.329,0.791-0.659,1.187-0.988
			c9.316,5.304,18.632,10.607,28.242,16.078c4.049-6.403,7.837-12.396,11.739-18.566c-2.905-1.733-5.443-3.248-7.98-4.763
			c0.686-0.618,1.37-1.236,2.055-1.853c2.632,1.866,5.263,3.734,8.501,6.033c-4.375,6.988-8.887,14.193-13.774,22.001
			C355.534,196.915,345.65,190.997,335.767,185.079z"/>
		<path fill-rule="evenodd" clip-rule="evenodd" fill="#727272" d="M325.917,234.91c-0.724,0.688-1.411,1.929-2.177,1.979
			c-6.977,0.46-13.968,0.7-20.952,1.036c-1.687,0.08-2.907-0.397-3.395-2.173c-3.606-13.148-7.227-26.293-10.827-39.442
			c-0.028-0.105,0.158-0.27,0.771-1.246c0.677,1.599,1.291,2.718,1.634,3.914c3.021,10.561,6.003,21.134,8.982,31.707
			c1.478,5.249,1.467,5.311,7.095,5.125c6.322-0.209,12.641-0.536,18.96-0.813L325.917,234.91z"/>
		<path fill-rule="evenodd" clip-rule="evenodd" fill="#727272" d="M319.131,224.869c4.656,4.515,9.326,9.016,13.961,13.552
			c1.222,1.196,2.32,2.319,4.309,1.575c8.874-3.32,17.774-6.568,26.655-9.869c0.258-0.095,0.403-0.493,0.74-0.933
			c-1.19-1.741-2.417-3.536-3.645-5.332c0.355-0.269,0.711-0.537,1.067-0.805c2.071,2.337,4.145,4.674,6.637,7.483
			c-3.329,1.256-6.076,2.323-8.846,3.332c-6.877,2.504-13.84,4.796-20.615,7.549c-3.313,1.345-5.505,0.796-7.791-1.82
			c-1.597-1.824-3.771-3.146-5.687-4.691l0.091,0.088c-2.693-2.991-5.388-5.982-8.082-8.974
			C318.328,225.639,318.729,225.254,319.131,224.869z"/>
		<path fill-rule="evenodd" clip-rule="evenodd" fill="#424242" d="M267.675,104.839c-0.332,0.015-0.663,0.027-0.994,0.044
			c-1.517,0.079-2.861-0.354-2.467-2.117c0.165-0.739,1.4-1.629,2.251-1.754c2.946-0.432,5.935-0.59,8.912-0.791
			c5.789-0.391,11.58-0.746,17.371-1.102c1.561-0.096,3.093-0.129,3.076,2.119c-0.016,2.101-1.624,1.726-2.85,1.812
			c-8.433,0.592-16.87,1.146-25.305,1.712C267.671,104.788,267.673,104.814,267.675,104.839z"/>
		<path fill-rule="evenodd" clip-rule="evenodd" fill="#737373" d="M444.854,96.954c-6.379,11.764-10.12,24.503-13.771,37.275
			c-0.41,1.435-0.619,2.953-1.219,4.3c-0.323,0.727-1.469,1.792-1.914,1.653c-5.393-1.691-10.785-3.434-15.846-5.935
			c0.164-0.45,0.328-0.899,0.492-1.349c2.724,0.94,5.444,1.884,8.17,2.821c8.531,2.931,6.63,3.324,9.179-4.401
			c3.167-9.604,6.482-19.163,9.957-28.66c0.891-2.436,2.617-4.566,3.961-6.836C444.193,96.199,444.523,96.577,444.854,96.954z"/>
		<path fill-rule="evenodd" clip-rule="evenodd" fill="#747474" d="M451.896,159.004c1.905,2.472,3.811,4.945,6.099,7.916
			c-3.738,1.521-7.057,2.867-10.369,4.224c-4.608,1.888-9.217,3.771-13.815,5.682c-1.661,0.69-3.063,0.933-4.286-0.916
			c-3.481-5.26-7.093-10.434-10.613-15.667c-0.226-0.335-0.117-0.894-0.247-2.141c1.135,0.925,1.92,1.331,2.372,1.972
			c2.966,4.206,5.908,8.431,8.752,12.72c1.16,1.749,2.354,2.586,4.518,1.68c6.564-2.747,13.175-5.38,20.207-8.235
			c-1.348-2.261-2.497-4.19-3.646-6.119C451.209,159.746,451.552,159.375,451.896,159.004z"/>
		<path fill-rule="evenodd" clip-rule="evenodd" fill="#737373" d="M444.854,96.954c-0.33-0.377-0.66-0.754-0.99-1.132
			c0.444-0.844,0.89-1.688,1.474-2.797c-7.409-3.523-15.127-5.351-22.911-6.915c-7.906-1.589-9.71-0.351-11.613,7.739
			c-0.522,2.222-0.876,4.483-1.981,6.841c-0.267-0.775-0.815-1.573-0.755-2.321c0.354-4.34,1.237-8.558,3.841-12.187
			c1.408-1.963,3.114-3.432,5.836-2.952c9.992,1.761,19.84,4.022,29.138,8.23c0.593,0.268,1.115,0.689,2.245,1.403
			C447.594,94.337,446.224,95.645,444.854,96.954z"/>
		<path fill-rule="evenodd" clip-rule="evenodd" fill="#727272" d="M355.123,202.853c0,0.758,0.095,1.53-0.019,2.271
			c-0.251,1.635,0.329,2.501,2.011,2.752c5.266,0.786,10.531,1.575,15.774,2.487c2.396,0.417,2.772-0.984,3.127-2.787
			c1.253-6.365,2.569-12.718,3.898-19.068c0.36-1.723,0.848-3.419,1.464-5.876c1.241,3.895-2.667,24.71-5.287,30.165
			c-7.752-1.229-15.59-2.472-24.091-3.819c0.765-2.421,1.377-4.363,1.99-6.307C354.369,202.73,354.747,202.792,355.123,202.853z"/>
		<path fill-rule="evenodd" clip-rule="evenodd" fill="#737373" d="M453.962,208.033c9.735-4.693,19.473-9.381,29.202-14.088
			c1.597-0.772,3.154-1.627,5.213-2.694c-3.426-4.317-6.497-8.188-9.567-12.059c0.335-0.389,0.67-0.776,1.005-1.164
			c3.79,4.362,7.581,8.725,11.34,13.052c-2.647,2.782-25.344,14.036-36.012,18.018C454.749,208.742,454.355,208.388,453.962,208.033
			z"/>
		<path fill-rule="evenodd" clip-rule="evenodd" fill="#747474" d="M351.948,219.96c-2.981,2.394-6.007,4.732-8.927,7.199
			c-1.682,1.421-3.024,1.41-4.792,0.003c-9.372-7.46-18.833-14.81-28.263-22.197c0.378-0.358,0.757-0.717,1.135-1.076
			c8.576,6.55,17.148,13.105,25.73,19.647c3.778,2.881,3.782,2.86,7.565,0.048c2.129-1.581,4.281-3.13,6.424-4.694
			C351.197,219.246,351.573,219.603,351.948,219.96z"/>
		<path fill-rule="evenodd" clip-rule="evenodd" fill="#757575" d="M266.917,219.998c4.002,5.489,8.094,10.917,11.964,16.499
			c1.615,2.327,3.233,2.912,5.833,1.686c2.842-1.34,5.833-2.373,8.79-3.458c0.817-0.3,1.743-0.308,2.619-0.449
			c0.138,0.371,0.275,0.742,0.413,1.113c-2.315,0.973-4.595,2.042-6.954,2.894c-3.066,1.108-6.553,3.372-9.19,2.66
			c-2.397-0.646-3.971-4.559-5.782-7.121c-2.965-4.191-5.827-8.457-8.732-12.69C266.223,220.753,266.57,220.376,266.917,219.998z"/>
		<path fill-rule="evenodd" clip-rule="evenodd" fill="#767676" d="M266.917,219.998c-0.347,0.378-0.693,0.755-1.04,1.133
			c-2.167-2.869-4.333-5.738-6.93-9.179c9.828-4.401,18.866-8.881,28.212-12.661c0.209,0.398,0.418,0.796,0.627,1.194
			c-1.193,0.688-2.342,1.468-3.586,2.048c-6.019,2.808-12.083,5.518-18.09,8.348c-3.86,1.819-3.833,1.911-1.595,5.349
			C265.328,217.479,266.117,218.741,266.917,219.998z"/>
		<path fill-rule="evenodd" clip-rule="evenodd" fill="#414141" d="M383.64,308.18c-3.115-0.008-4.98-1.922-4.855-4.986
			c0.114-2.822,2.466-4.995,5.238-4.841c2.433,0.137,4.665,2.457,4.745,4.937C388.855,306.003,386.563,308.188,383.64,308.18z"/>
		<path fill-rule="evenodd" clip-rule="evenodd" fill="#757575" d="M451.896,159.004c-0.344,0.371-0.687,0.742-1.03,1.113
			c-3.066-4.132-6.25-8.185-9.157-12.426c-1.686-2.459-3.409-3.166-6.264-1.983c-4.386,1.816-8.918,3.279-13.388,4.892
			c-0.169-0.315-0.338-0.629-0.507-0.944c0.604-0.526,1.122-1.272,1.824-1.542c4.499-1.729,9.058-3.308,13.558-5.035
			c1.934-0.741,3.38-0.736,4.691,1.216C444.959,149.257,448.461,154.108,451.896,159.004z"/>
		<path fill-rule="evenodd" clip-rule="evenodd" fill="#454545" d="M288.01,125.123c0.353,0.422,1.053,1.258,1.753,2.094
			c-0.756,0.631-1.446,1.694-2.279,1.822c-4.599,0.707-9.225,1.278-13.861,1.65c-0.759,0.062-2.024-0.931-2.341-1.723
			c-0.592-1.483,0.597-1.941,1.909-2.09C277.815,126.351,282.436,125.786,288.01,125.123z"/>
		<path fill-rule="evenodd" clip-rule="evenodd" fill="#757575" d="M422.008,58.088c-4.216,6.138-8.43,12.275-13.039,18.987
			c-2.678-4.434-5.3-8.775-7.92-13.116c0.32-0.379,0.639-0.759,0.959-1.138c2.34,3.34,4.68,6.679,6.973,9.952
			c4.132-5.491,8.015-10.648,11.896-15.806C421.254,57.341,421.631,57.715,422.008,58.088z"/>
		<path fill-rule="evenodd" clip-rule="evenodd" fill="#767676" d="M299.813,197.063c-2.787-2.056-5.574-4.111-8.799-6.489
			c7.32-5.347,13.971-10.58,21.076-15.156c0.322,0.429,0.645,0.859,0.967,1.289c-6.03,4.492-12.062,8.982-18.462,13.75
			c2.403,2.086,4.383,3.806,6.362,5.525C300.576,196.343,300.195,196.703,299.813,197.063z"/>
		<path fill-rule="evenodd" clip-rule="evenodd" fill="#737373" d="M479.867,162.022c-4.815-3.992-9.63-7.984-14.651-12.146
			c-2.729,2.536-5.226,4.854-8.16,7.579c0.656-2.613,5.962-9.212,7.595-9.53c0.767-0.149,1.878,0.335,2.523,0.892
			c4.64,3.993,9.199,8.078,13.783,12.134C480.594,161.308,480.23,161.665,479.867,162.022z"/>
		<path fill-rule="evenodd" clip-rule="evenodd" fill="#7B7B7B" d="M319.131,224.869c-0.401,0.385-0.803,0.77-1.205,1.155
			c-6.09-6.083-12.184-12.164-18.247-18.274c-0.102-0.104,0.156-0.563,0.247-0.856c0.297-0.07,0.752-0.301,0.867-0.188
			C306.925,212.742,313.026,218.807,319.131,224.869z"/>
		<path fill-rule="evenodd" clip-rule="evenodd" fill="#4B4B4B" d="M296.16,125.107c3.86-0.64,7.27-1.158,10.658-1.789
			c1.611-0.3,2.79,0.181,2.722,1.816c-0.03,0.716-1.134,1.804-1.926,1.997c-2.716,0.66-5.502,1.055-8.276,1.442
			C297.104,128.885,297.094,128.815,296.16,125.107z"/>
		<path fill-rule="evenodd" clip-rule="evenodd" fill="#454545" d="M270.133,119.884c-0.328-0.291-1.583-0.879-1.896-1.792
			c-0.626-1.821,0.853-2.081,2.276-2.203c2.451-0.211,4.893-0.524,7.344-0.735c1.329-0.114,2.682-0.207,2.941,1.692
			c0.264,1.936-0.955,2.116-2.377,2.233C275.969,119.282,273.523,119.551,270.133,119.884z"/>
		<path fill-rule="evenodd" clip-rule="evenodd" fill="#454545" d="M289.025,117.898c-0.339-0.34-1.534-0.993-1.802-1.915
			c-0.554-1.903,1.057-1.97,2.398-2.096c2.614-0.244,5.225-0.668,7.838-0.676c0.774-0.002,1.554,1.136,2.331,1.751
			c-0.666,0.691-1.244,1.847-2.012,1.99C295.208,117.433,292.568,117.551,289.025,117.898z"/>
		<path fill-rule="evenodd" clip-rule="evenodd" fill="#6A6A6A" d="M71.122,252.46c1.949,0.074,3.742,1.89,3.772,3.822
			c0.035,2.184-1.926,3.888-4.254,3.695c-2.079-0.171-3.672-1.956-3.515-3.939C67.281,254.072,69.165,252.386,71.122,252.46z"/>
		<path fill-rule="evenodd" clip-rule="evenodd" fill="#7A7A7A" d="M479.814,178.028c-0.335,0.388-0.67,0.775-1.005,1.164
			c-0.996,0.2-2.218,0.104-2.944,0.656c-2.075,1.583-3.949,3.429-5.903,5.172c-0.367-0.36-0.735-0.721-1.103-1.082
			c5.334-5,10.67-10,16.005-15.002c0.345,0.301,0.69,0.603,1.036,0.903c-1.654,1.765-3.393,3.459-4.92,5.326
			C480.356,175.928,480.188,177.063,479.814,178.028z"/>
		<path fill-rule="evenodd" clip-rule="evenodd" fill="#797979" d="M343.196,141.233c-0.395-0.786-0.788-1.572-1.182-2.358
			c0.166,0.006,0.351,0.063,0.497,0.012c1.937-0.683,4.421-2.493,5.693-1.86c3.276,1.628,6.482,3.808,9.057,7.431
			c-2.856,0.279-4.218-1.476-5.435-2.692C348.958,138.895,346.242,138.707,343.196,141.233z"/>
		<path fill-rule="evenodd" clip-rule="evenodd" fill="#797979" d="M453.962,208.033c0.394,0.354,0.787,0.709,1.181,1.064
			c-2.089,1.993-3.703,1.549-5.09-0.872c-0.899-1.569-2.184-2.94-2.944-4.565c-1.462-3.12-3.793-4.326-7.112-3.878
			c2.382-0.242,4.765-0.483,7.147-0.725C448.681,202.608,449.927,206.381,453.962,208.033z"/>
		<path fill-rule="evenodd" clip-rule="evenodd" fill="#777777" d="M468.859,183.938c0.367,0.361,0.735,0.722,1.103,1.082
			c-3.346,3.187-6.69,6.373-10.036,9.56c-0.375-0.394-0.75-0.786-1.125-1.18C461.973,190.076,465.256,186.856,468.859,183.938z"/>
		<path fill-rule="evenodd" clip-rule="evenodd" fill="#7C7C7C" d="M299.813,197.063c0.382-0.36,0.763-0.721,1.145-1.081
			c3.382,2.636,6.764,5.271,10.144,7.906c-0.378,0.359-0.757,0.718-1.135,1.076C306.583,202.331,303.197,199.697,299.813,197.063z"
			/>
		<path fill-rule="evenodd" clip-rule="evenodd" fill="#7A7A7A" d="M485.9,169.84c-0.346-0.301-0.691-0.603-1.036-0.903
			c-0.231-0.976-0.177-2.188-0.751-2.877c-1.244-1.488-2.812-2.708-4.246-4.037c0.363-0.357,0.727-0.715,1.09-1.071
			c2.541,2.074,5.082,4.148,7.979,6.514C487.631,168.485,486.766,169.163,485.9,169.84z"/>
		<path fill-rule="evenodd" clip-rule="evenodd" fill="#7B7B7B" d="M351.948,219.96c-0.375-0.357-0.751-0.714-1.127-1.07
			c2.522-2.027,5.043-4.055,7.565-6.081C357.746,216.791,354.54,218.063,351.948,219.96z"/>
		<path fill-rule="evenodd" clip-rule="evenodd" fill="#3D3D3D" d="M311.243,115.387c-1.939,0.816-2.833,1.517-3.629,1.42
			c-0.594-0.072-1.615-1.379-1.469-1.779c0.289-0.791,1.211-1.773,1.954-1.849C308.774,113.111,309.561,114.142,311.243,115.387z"/>
		<path fill-rule="evenodd" clip-rule="evenodd" fill="#808080" d="M422.008,58.088c-0.377-0.374-0.754-0.748-1.131-1.121
			c1.357-1.323,2.714-2.646,4.071-3.97c0.374,0.36,0.749,0.721,1.123,1.081C424.718,55.415,423.362,56.751,422.008,58.088z"/>
		<path fill-rule="evenodd" clip-rule="evenodd" fill="#727272" d="M402.008,62.821c-0.32,0.379-0.639,0.759-0.959,1.138
			c-0.387-0.61-0.773-1.221-1.159-1.832c0.319-0.377,0.639-0.754,0.959-1.131C401.235,61.605,401.622,62.213,402.008,62.821z"/>
		<path fill-rule="evenodd" clip-rule="evenodd" fill="none" d="M321.925,113.198c0.147-3.921,1.331-4.751,4.43-3.727
			c5.339,1.764,9.984,8.69,9.602,14.318c-0.182,2.682-1.253,3.756-3.789,2.991c-1.971-0.594-4.077-1.641-5.455-3.113
			C323.859,120.618,322.045,116.902,321.925,113.198z"/>
		<path fill-rule="evenodd" clip-rule="evenodd" fill="none" d="M338.375,139.982c-1.862,1.605-3.065,2.643-4.678,4.033
			c-1.396-4.343-2.724-8.482-4.085-12.72c5.684-0.556,5.69-0.559,7.32,4.251C337.512,137.255,338.05,138.979,338.375,139.982z"/>
		<path fill-rule="evenodd" clip-rule="evenodd" fill="none" d="M347.948,286.078c0,2.996,0.052,5.993-0.012,8.986
			c-0.097,4.482-2.82,8.344-6.649,9.568c-3.727,1.191-7.977-0.134-10.723-3.508c-0.934-1.145-1.819-2.447-2.296-3.827
			c-2.185-6.322-2.422-12.803-0.097-19.07c2.878-7.754,11.17-10.589,17.391-6.11c1.15,0.828,2.129,2.573,2.271,3.987
			c0.332,3.294,0.106,6.646,0.106,9.974C347.942,286.078,347.945,286.078,347.948,286.078z"/>
		<path fill-rule="evenodd" clip-rule="evenodd" fill="none" d="M237.502,287.389c0.627-3.402,0.91-6.916,1.963-10.182
			c1.52-4.709,5.169-7.136,9.702-7.207c4.578-0.071,8.093,2.259,9.912,6.932c2.702,6.942,2.578,14.019,0.145,20.978
			c-1.697,4.853-5.001,7.045-9.728,7.071c-5.192,0.029-8.145-2.05-10.119-7.213c-0.474-1.238-0.947-2.521-1.108-3.823
			c-0.265-2.137-0.275-4.306-0.392-6.462C237.752,287.451,237.627,287.42,237.502,287.389z"/>
		<path fill-rule="evenodd" clip-rule="evenodd" fill="none" d="M368.954,176.84c2.537,1.515,5.075,3.029,7.98,4.763
			c-3.902,6.171-7.69,12.163-11.739,18.566c-9.61-5.471-18.926-10.774-28.242-16.078c-3.932-2.44-7.862-4.883-12.407-7.705
			c3.688-3.966,7.116-7.653,10.544-11.339c6.936,5.364,13.871,10.73,20.808,16.096c3.581,2.768,3.586,2.771,7.095,0.166
			C364.986,179.828,366.967,178.33,368.954,176.84z"/>
		<path fill-rule="evenodd" clip-rule="evenodd" fill="none" d="M402.008,62.821c-0.386-0.608-0.772-1.216-1.159-1.825
			c-4.086-7.049-4.11-7.063,0.249-14.186c3.777-6.17,8.858-11.1,14.692-15.32c1.89-1.367,3.361-1.825,4.844,0.596
			c3.281,5.357,6.718,10.619,10.217,16.117c-2.136,1.734-4.02,3.265-5.902,4.794c-1.357,1.323-2.714,2.647-4.071,3.97
			c-3.882,5.158-7.765,10.315-11.896,15.806C406.688,69.5,404.348,66.161,402.008,62.821z"/>
	</g>
</g>
</svg>
