<?xml version="1.0" encoding="utf-8"?>
<!-- Generator: Adobe Illustrator 16.0.0, SVG Export Plug-In . SVG Version: 6.00 Build 0)  -->
<!DOCTYPE svg PUBLIC "-//W3C//DTD SVG 1.1//EN" "http://www.w3.org/Graphics/SVG/1.1/DTD/svg11.dtd">
<svg version="1.1" id="Layer_1" xmlns="http://www.w3.org/2000/svg" xmlns:xlink="http://www.w3.org/1999/xlink" x="0px" y="0px"
	 width="570px" height="320px" viewBox="0 0 570 320" enable-background="new 0 0 570 320" xml:space="preserve">
<g>
	<g>
		<path fill-rule="evenodd" clip-rule="evenodd" fill="none" d="M1,321.96C1,214.973,1,107.986,1,1c190.31,0,380.619,0,570.929,0
			c0,106.986,0,213.973,0,320.96C381.619,321.96,191.31,321.96,1,321.96z M485.9,169.84c0.865-0.677,1.73-1.354,3.035-2.375
			c-2.896-2.365-5.438-4.439-7.979-6.514c-4.584-4.056-9.144-8.142-13.783-12.134c-0.646-0.556-1.757-1.041-2.523-0.892
			c-1.633,0.318-6.938,6.917-7.595,9.529c2.934-2.725,5.431-5.043,8.16-7.579c5.021,4.163,9.836,8.155,14.651,12.147
			c1.435,1.329,3.002,2.549,4.246,4.037c0.574,0.688,0.52,1.901,0.751,2.877c-5.335,5.002-10.671,10.002-16.005,15.002
			c-3.604,2.918-6.887,6.138-10.059,9.462c0.375,0.394,0.75,0.786,1.125,1.18c3.346-3.188,6.69-6.373,10.036-9.56
			c1.954-1.743,3.827-3.589,5.903-5.172c0.727-0.554,1.948-0.456,2.944-0.656c3.07,3.871,6.142,7.741,9.567,12.059
			c-2.059,1.067-3.616,1.922-5.213,2.694c-9.729,4.707-19.467,9.395-29.202,14.088c-4.035-1.652-5.281-5.425-6.818-8.976
			c3.083-0.14,6.167-0.278,9.732-0.44c-1.637-8.171-2.548-15.724-4.516-23.051c-0.467,0.081-0.933,0.164-1.399,0.246
			c1.136,6.874,2.271,13.747,3.449,20.883c-7.823,0.657-14.924,1.271-22.028,1.847c-9.112,0.739-18.229,1.427-27.34,2.189
			c-2.086,0.175-3.121-0.512-3.082-2.722c0.06-3.327,0.059-6.658-0.047-9.982c-0.029-0.929-0.516-1.844-1.051-3.617
			c-0.521,1.469-0.818,1.926-0.825,2.388c-0.062,3.992-0.127,7.985-0.08,11.978c0.048,4.134,0.264,4.287,4.229,3.939
			c5.133-0.449,10.26-0.967,15.399-1.308c0.995-0.065,2.883,0.484,2.909,0.855c0.128,1.768,0.061,3.695-0.591,5.3
			c-0.256,0.631-2.253,0.896-3.397,0.771c-11.234-1.211-22.456-2.554-33.687-3.802c-0.765-0.085-1.58,0.295-2.371,0.458
			c0.013,0.347,0.026,0.693,0.039,1.039c13.603,1.604,27.206,3.207,41.049,4.839c0.429-2.554,0.913-4.646,1.098-6.764
			c0.194-2.227,1.147-3.156,3.44-3.265c3.982-0.189,7.948-0.688,11.921-1.058c3.319-0.448,5.65,0.758,7.112,3.878
			c0.761,1.625,2.045,2.995,2.944,4.565c1.387,2.421,3.001,2.865,5.09,0.872c10.668-3.981,33.364-15.235,36.013-18.018
			c-3.76-4.327-7.551-8.689-11.341-13.052c0.374-0.966,0.542-2.101,1.166-2.862C482.508,173.299,484.246,171.604,485.9,169.84z
			 M300.958,195.982c-1.979-1.72-3.959-3.439-6.362-5.525c6.4-4.768,12.432-9.259,18.462-13.75c-0.322-0.431-0.645-0.86-0.967-1.289
			c-7.105,4.576-13.756,9.81-21.076,15.156c3.225,2.378,6.012,4.434,8.799,6.489c3.384,2.634,6.77,5.268,10.153,7.901
			c9.43,7.388,18.891,14.737,28.263,22.197c1.768,1.407,3.11,1.418,4.792-0.003c2.92-2.467,5.945-4.806,8.927-7.199
			c2.592-1.896,5.798-3.169,6.438-7.151c-2.522,2.026-5.043,4.054-7.565,6.081c-2.143,1.564-4.295,3.113-6.424,4.694
			c-3.783,2.813-3.787,2.833-7.565-0.048c-8.582-6.542-17.154-13.098-25.73-19.647C307.722,201.253,304.34,198.618,300.958,195.982z
			 M422.008,58.088c1.354-1.337,2.71-2.673,4.063-4.01c2.371-1.51,4.741-3.02,7.667-4.884c-4.703-7.399-9.352-14.713-14.139-22.242
			c-9.13,5.147-16.094,11.414-20.742,19.961c-5.266,9.684-4.401,7.632,1.032,15.213c0.386,0.611,0.772,1.222,1.159,1.832
			c2.62,4.341,5.242,8.682,7.92,13.116C413.578,70.363,417.792,64.226,422.008,58.088z M266.917,219.998
			c-0.8-1.257-1.589-2.52-2.401-3.769c-2.238-3.438-2.265-3.529,1.595-5.349c6.007-2.83,12.072-5.54,18.09-8.348
			c1.244-0.58,2.393-1.36,3.586-2.048c-0.209-0.398-0.418-0.796-0.627-1.194c-9.346,3.78-18.384,8.26-28.212,12.661
			c2.597,3.44,4.763,6.31,6.93,9.179c2.905,4.233,5.768,8.499,8.732,12.69c1.811,2.563,3.385,6.475,5.782,7.121
			c2.637,0.712,6.124-1.552,9.19-2.66c2.359-0.852,4.639-1.921,6.954-2.894c-0.132-0.372-0.263-0.744-0.395-1.116
			c-0.882,0.143-1.814,0.15-2.638,0.452c-2.956,1.085-5.947,2.118-8.79,3.458c-2.599,1.227-4.218,0.642-5.833-1.686
			C275.011,230.915,270.919,225.487,266.917,219.998z M450.865,160.117c1.149,1.929,2.299,3.858,3.646,6.119
			c-7.033,2.855-13.645,5.488-20.206,8.235c-2.165,0.906-3.358,0.069-4.519-1.68c-2.844-4.289-5.786-8.513-8.752-12.72
			c-0.452-0.641-1.237-1.047-2.372-1.972c0.13,1.247,0.021,1.806,0.247,2.141c3.521,5.234,7.132,10.408,10.613,15.667
			c1.223,1.849,2.625,1.606,4.286,0.916c4.599-1.91,9.207-3.794,13.815-5.682c3.313-1.356,6.631-2.702,10.369-4.224
			c-2.288-2.971-4.193-5.443-6.099-7.916c-3.435-4.896-6.937-9.747-10.272-14.71c-1.312-1.952-2.758-1.957-4.691-1.216
			c-4.5,1.727-9.059,3.306-13.558,5.035c-0.702,0.27-1.221,1.017-1.824,1.542c0.172,0.314,0.344,0.627,0.516,0.941
			c4.467-1.612,8.996-3.074,13.379-4.889c2.854-1.183,4.578-0.476,6.264,1.983C444.615,151.933,447.799,155.985,450.865,160.117z
			 M443.863,95.822c-1.344,2.271-3.07,4.4-3.961,6.836c-3.475,9.497-6.79,19.056-9.957,28.66c-2.549,7.726-0.647,7.332-9.179,4.401
			c-2.726-0.937-5.446-1.88-8.17-2.821c-0.164,0.45-0.328,0.9-0.492,1.35c5.061,2.501,10.453,4.243,15.846,5.935
			c0.445,0.14,1.591-0.926,1.914-1.653c0.6-1.347,0.809-2.865,1.219-4.3c3.65-12.772,7.392-25.511,13.771-37.275
			c1.37-1.309,2.74-2.617,4.282-4.091c-1.13-0.713-1.652-1.135-2.245-1.403c-9.298-4.208-19.146-6.469-29.138-8.23
			c-2.722-0.48-4.428,0.989-5.836,2.952c-2.603,3.629-3.487,7.847-3.84,12.187c-0.062,0.748,0.487,1.545,0.754,2.321
			c1.105-2.357,1.459-4.619,1.981-6.841c1.903-8.09,3.707-9.328,11.613-7.739c7.784,1.564,15.502,3.392,22.911,6.915
			C444.753,94.133,444.308,94.978,443.863,95.822z M319.131,224.869c-6.104-6.063-12.206-12.127-18.338-18.164
			c-0.115-0.112-0.57,0.118-0.868,0.188c-0.09,0.294-0.348,0.753-0.246,0.856c6.063,6.11,12.157,12.191,18.247,18.274
			c2.694,2.991,5.389,5.982,8.082,8.974c-6.319,0.276-12.638,0.604-18.96,0.813c-5.628,0.186-5.617,0.124-7.095-5.125
			c-2.979-10.573-5.961-21.146-8.982-31.707c-0.343-1.196-0.957-2.315-1.634-3.914c-0.612,0.977-0.799,1.141-0.771,1.246
			c3.601,13.149,7.221,26.294,10.827,39.442c0.487,1.775,1.708,2.253,3.395,2.173c6.985-0.336,13.976-0.576,20.952-1.036
			c0.766-0.051,1.453-1.291,2.177-1.979c1.916,1.546,4.09,2.867,5.687,4.691c2.286,2.616,4.479,3.165,7.789,1.819
			c6.777-2.752,13.74-5.044,20.617-7.548c2.77-1.009,5.517-2.076,8.846-3.332c-2.492-2.81-4.565-5.146-6.637-7.483
			c-0.355,0.27-0.71,0.539-1.064,0.809c1.227,1.794,2.452,3.589,3.642,5.328c-0.337,0.439-0.482,0.838-0.74,0.933
			c-8.881,3.301-17.781,6.549-26.655,9.869c-1.988,0.744-3.087-0.379-4.309-1.575C328.457,233.885,323.787,229.384,319.131,224.869z
			 M335.767,185.079c9.884,5.918,19.768,11.836,29.969,17.942c4.888-7.808,9.399-15.013,13.774-22.001
			c-3.238-2.299-5.869-4.167-8.501-6.033c0.984-0.109,1.968-0.219,2.952-0.328c12.432,4.053,24.864,8.106,37.706,12.293
			c2.471-7.754,4.764-14.95,7.036-22.086c-9.012-3.938-31.292-10.138-35.494-9.466c2.58,0.916,4.202,1.569,5.871,2.072
			c7.478,2.257,14.971,4.467,22.455,6.703c4.921,1.47,4.922,1.478,3.328,6.561c-1.044,3.332-2.05,6.675-3.16,9.984
			c-1.173,3.495-1.451,3.686-5.014,2.553c-10.613-3.375-21.196-6.839-31.792-10.268c2.801-2.49,5.601-4.979,8.589-7.636
			c-3.823-3.245-7.452-6.39-11.462-9.009c-0.326,0.389-0.651,0.778-0.977,1.167c3.009,2.538,6.018,5.075,9.498,8.012
			c-6.254,4.754-11.985,8.959-17.531,13.396c-2.468,1.976-4.265,2.1-6.845-0.013c-8.599-7.041-17.43-13.798-26.152-20.689
			c-1.391-1.098-2.679-2.325-4.826-4.202c2.777-1.232,4.758-2.111,6.738-2.99c0.417,1.12,0.835,2.239,1.424,3.819
			c1.583-2.873,2.836-5.146,4.345-7.886c3.474,3.636,6.691,7.003,10.676,11.174c-1.928-6.303-3.552-11.608-5.176-16.914
			c3.046-2.533,5.76-2.337,8.63,0.531c1.217,1.216,2.578,2.972,5.06,2.728c-1.538-2.246-7.165-7.694-8.563-7.557
			c-1.981,0.195-3.877,1.267-5.813,1.95c-0.146,0.051-0.331-0.005-0.497-0.012c-0.25-0.789-0.491-1.581-0.751-2.367
			c-1.292-3.9-2.341-7.569-1.55-12.019c1.351-7.59-5.154-16.479-12.647-18.84c-5.405-1.704-9.202,0.652-8.899,6.35
			c0.194,3.653,1.43,7.571,3.285,10.734c2.386,4.071,4.112,8.276,5.47,12.722c1.259,4.125,2.592,8.229,3.892,12.342
			c-2.77,2.176-5.54,4.352-8.559,6.724c4.145,3.305,7.856,6.263,11.567,9.221c-0.566,0.608-1.147,1.205-1.698,1.827
			c-3.014,3.4-5.952,6.854-11.298,4.122c-0.474-0.242-2.171,0.762-2.476,1.519c-2.156,5.353-4.097,10.792-6.334,16.818
			c12.737,3.433,24.736,7.65,37.111,10.501c0.144-0.478,0.286-0.956,0.43-1.435c-11.484-3.452-22.971-6.902-34.945-10.502
			c1.783-4.703,3.352-8.873,4.95-13.029c0.596-1.55,1.788-1.838,3.246-1.343c0.458,0.155,0.877,0.425,1.177,0.574
			c-0.971,1.714-1.651,2.914-2.487,4.388C326.488,179.946,331.128,182.513,335.767,185.079z M377.671,89.978
			c-3.447,1.399-8.005,0.698-12.356,2.938c-3.609,1.859-5.5,3.999-7.34,7.466c-2.499,4.71-5.331,9.226-11.274,11.393
			c-6.271,2.286-7.331,6.477-4.769,11.909c0.422,0.895,1.404,1.522,2.117,2.284c2.982,3.187,7.155,1.55,10.695,2.576
			c4.109,1.19,8.401,1.891,12.664,2.358c2.731,0.3,4.704,0.47,6.825,3.075c3.383,4.153,3.625,7.827,1.428,12.258
			c-0.265,0.533-0.173,1.697,0.209,2.005c0.977,0.789,2.156,1.41,3.348,1.833c6.463,2.293,12.923,4.602,19.445,6.713
			c4.509,1.459,9.102,2.678,13.69,3.874c3.265,0.85,4.829-0.167,4.507-3.181c-0.345-3.224-0.836-6.552-2.006-9.544
			c-3.179-8.131-6.647-16.154-10.205-24.129c-2.017-4.522-3.111-8.519,1.337-12.483c2.342-2.087,2.618-5.232,0.984-8.233
			c-1.447-2.658-3.235-4.618-6.669-3.899c-2.22,0.464-3.645-0.239-4.386-2.629c-0.341-1.101-1.501-2.242-2.58-2.769
			C388.671,91.513,383.758,90.019,377.671,89.978z M261.055,140.315c0.786,0.238,1.106,0.447,1.391,0.406
			c18.115-2.558,36.229-5.116,54.329-7.772c0.867-0.127,1.606-1.133,2.404-1.729c-0.952-0.374-1.954-1.16-2.849-1.053
			c-5.283,0.632-10.538,1.494-15.809,2.239c-11.198,1.583-22.415,3.044-33.59,4.775c-2.892,0.448-3.705-0.437-4.17-3.159
			c-1.401-8.193-3.145-16.327-4.702-24.493c-0.824-4.319-1.538-8.66-2.358-13.311c1.877-0.16,3.013-0.283,4.151-0.349
			c8.144-0.471,16.287-0.954,24.433-1.389c15.128-0.808,30.263-1.512,45.384-2.44c2.932-0.18,4.168,1.033,5.083,3.519
			c1.724,4.681,3.627,9.297,5.526,13.911c0.401,0.975,0.821,2.555,2.361,1.503c0.463-0.316,0.563-1.747,0.291-2.463
			c-1.831-4.818-3.805-9.582-5.737-14.361c-2.158-5.338-2.156-5.247-7.912-4.936c-18.119,0.977-36.244,1.863-54.365,2.816
			c-7.452,0.393-14.9,0.868-22.846,1.334C255.126,109.331,258.113,124.938,261.055,140.315z M347.951,269.551
			c-1.581-0.665-2.323-1.006-3.085-1.295c-8.297-3.138-15.913-0.332-19.552,7.693c-3.709,8.18-3.398,16.545,0.612,24.566
			c2.783,5.568,8.511,8.568,14.52,7.334c2.901-0.597,5.508-2.628,8.388-4.08c0.196,0.448,0.401,1.293,0.885,1.925
			c0.599,0.783,1.429,1.389,2.158,2.071c0.3-0.982,0.886-1.978,0.845-2.945c-0.105-2.478-0.7-4.94-0.728-7.414
			c-0.146-13.14-0.176-26.282-0.251-39.422c-0.007-1.331,0.157-2.712-0.151-3.973c-0.183-0.743-1.14-1.297-1.748-1.937
			c-0.61,0.612-1.544,1.132-1.756,1.86c-0.313,1.078-0.132,2.306-0.134,3.471C347.946,261.213,347.951,265.019,347.951,269.551z
			 M473.039,308.203c7.762-0.039,12.799-3.061,14.605-8.904c2.3-7.442,0.695-12.76-5.599-16.976
			c-2.764-1.852-5.616-3.572-8.402-5.394c-2.087-1.363-4.268-2.631-6.168-4.226c-4.296-3.604-5.288-8.252-2.891-12.421
			c2.37-4.12,7.683-5.968,12.633-4.066c2.133,0.819,4.036,2.263,5.987,3.513c1.031,0.661,1.877,1.39,2.942,0.021
			c1.078-1.383,0.15-2.074-0.776-2.83c-3.609-2.941-7.767-4.586-12.394-4.563c-6.247,0.032-11.197,3.513-12.794,8.607
			c-1.724,5.497-0.04,10.695,4.908,14.637c1.685,1.341,3.589,2.407,5.406,3.579c3.354,2.163,6.839,4.148,10.048,6.506
			c4.089,3.004,5.219,6.787,3.873,11.434c-1.319,4.557-5.038,7.606-9.742,8.058c-5.071,0.487-9.007-1.597-12.453-5.13
			c-0.55-0.564-1.907-0.343-2.892-0.484c0.143,0.961-0.061,2.233,0.482,2.832C463.46,306.426,467.956,308.651,473.039,308.203z
			 M304.343,297.172c0.526,3.416,0.745,5.741,1.31,7.979c0.178,0.704,1.281,1.175,1.962,1.752c0.346-0.786,1.012-1.583,0.986-2.357
			c-0.21-6.479-0.624-12.95-0.818-19.431c-0.141-4.66,0.066-9.331-0.122-13.989c-0.042-1.038-0.964-2.785-1.701-2.911
			c-2.344-0.4-1.949,1.68-1.972,3.064c-0.074,4.664,0.312,9.366-0.168,13.982c-0.423,4.072-1.171,8.333-2.902,11.976
			c-1.323,2.788-4.057,5.34-6.785,6.925c-4.188,2.432-8.019,0.295-8.969-4.44c-0.389-1.939-0.376-3.977-0.388-5.971
			c-0.045-7.496-0.004-14.993-0.049-22.489c-0.009-1.443,0.172-3.437-2.078-3.055c-0.706,0.12-1.592,1.901-1.607,2.935
			c-0.127,8.661-0.102,17.325-0.038,25.987c0.01,1.307,0.4,2.622,0.705,3.911c1.431,6.055,6.155,8.805,12.691,6.1
			c2.765-1.146,4.982-3.714,7.287-5.813C302.608,300.486,303.097,299.171,304.343,297.172z M15.254,277.282
			c-0.479-2.813-0.687-4.812-1.196-6.729c-0.294-1.108-1.153-3.009-1.623-2.969c-2.282,0.196-1.451,2.185-1.394,3.52
			c0.254,5.976,0.715,11.943,0.92,17.92c0.154,4.489-0.073,8.993,0.088,13.482c0.056,1.572-1.074,4.277,1.754,4.326
			c2.77,0.049,1.893-2.622,1.943-4.244c0.178-5.654-0.066-11.332,0.337-16.967c0.406-5.664,2.478-10.762,7.565-13.939
			c6.105-3.813,10.882-1.288,11.235,5.918c0.204,4.153,0.089,8.322,0.102,12.484c0.015,4.661-0.015,9.324,0.035,13.985
			c0.014,1.275-0.125,3.103,1.815,2.741c0.789-0.146,1.831-1.804,1.846-2.787c0.123-8.322,0.073-16.647-0.023-24.97
			c-0.019-1.648-0.358-3.315-0.729-4.933c-1.322-5.771-6.195-8.777-11.697-6.596c-2.96,1.175-5.491,3.553-8.029,5.617
			C17.108,274.036,16.484,275.51,15.254,277.282z M264.981,287.412c-1.04-4.275-1.574-8.609-3.167-12.511
			c-2.217-5.43-6.874-7.967-12.717-7.953c-5.708,0.013-9.88,2.784-12.253,7.912c-3.844,8.307-3.749,16.848-0.201,25.142
			c2.26,5.283,6.57,8.117,12.628,8.074c5.98-0.043,10.442-2.604,12.609-8.023C263.448,296.136,263.951,291.794,264.981,287.412z
			 M101.166,268.562c3.325,5,6.227,9.866,9.656,14.329c1.957,2.546,1.663,4.363-0.183,6.503c-0.759,0.88-1.429,1.84-2.105,2.789
			c-3.354,4.704-6.695,9.417-10.122,14.241c2.879,1.409,4.463,0.466,5.814-1.654c2.594-4.07,5.286-8.078,7.991-12.075
			c0.776-1.146,1.739-2.168,2.838-3.52c1.382,1.975,2.448,3.446,3.463,4.954c2.415,3.591,4.819,7.188,7.201,10.801
			c1.357,2.059,3.01,2.942,5.751,1.436c-3.638-5.121-7.186-10.111-10.73-15.104c-4.66-6.564-4.195-4.419-0.325-10.564
			c2.515-3.992,5.052-7.972,7.579-11.957c-0.438-0.352-0.876-0.704-1.314-1.056c-6.213,2.763-6.769,10.896-12.157,14.759
			c-2.739-4.17-5.321-8.037-7.831-11.953C105.529,268.678,104.283,267.265,101.166,268.562z M511.955,278.746
			c0-6.823,0.002-13.647-0.002-20.471c0-0.999,0.197-2.07-0.103-2.974c-0.249-0.747-1.094-1.297-1.675-1.933
			c-0.641,0.62-1.367,1.178-1.882,1.89c-0.244,0.339-0.104,0.97-0.104,1.469c-0.003,15.645,0.029,31.29-0.031,46.935
			c-0.009,2.497,0.813,3.629,3.444,3.589c6.823-0.103,13.647-0.038,20.472-0.041c0.166,0,0.362,0.043,0.494-0.028
			c0.778-0.423,1.542-0.873,2.31-1.314c-0.683-0.539-1.294-1.318-2.07-1.556c-0.918-0.28-1.979-0.104-2.977-0.105
			c-4.826-0.008-9.655-0.096-14.479,0.021c-2.59,0.063-3.477-0.946-3.434-3.513C512.04,293.394,511.961,286.069,511.955,278.746z
			 M145.018,287.764c0.229,0.063,0.457,0.127,0.685,0.19c0.088,1.825,0.013,3.676,0.293,5.47c0.986,6.31,3.912,11.369,10.167,13.651
			c5.465,1.992,10.844,1.553,15.471-2.304c1.195-0.995,3.914-1.992,2.459-4.058c-2.088-2.966-3.302,0.396-4.548,1.371
			c-5.787,4.528-12.866,3.793-17.064-1.956c-4.545-6.227-4.649-18.83-0.206-25.109c4.376-6.185,12.337-6.746,17.624-1.225
			c0.686,0.717,1.143,1.729,1.94,2.231c0.482,0.303,1.524,0.074,2.11-0.268c0.403-0.234,0.771-1.2,0.602-1.613
			c-0.366-0.894-0.998-1.728-1.676-2.438c-7.393-7.749-20.123-6.01-24.657,3.707C146.45,279.204,146.044,283.629,145.018,287.764z
			 M426.698,281.623c0,6.827-0.109,13.656,0.078,20.478c0.046,1.655-1.377,4.779,1.773,4.697c2.495-0.065,1.416-2.933,1.428-4.527
			c0.096-13.486,0.049-26.974,0.058-40.461c0.004-5.556,0.019-5.555,5.33-5.593c2.83-0.021,5.664,0.03,8.485-0.143
			c0.535-0.032,1.015-0.967,1.52-1.485c-0.466-0.409-0.871-1.019-1.41-1.179c-0.773-0.231-1.645-0.172-2.475-0.173
			c-8.824-0.01-17.648-0.01-26.474-0.002c-0.83,0.001-1.747-0.129-2.464,0.177c-0.585,0.248-0.93,1.058-1.381,1.618
			c0.478,0.362,0.942,1.017,1.435,1.038c2.991,0.13,5.988,0.114,8.984,0.149c5.036,0.061,5.074,0.061,5.101,4.926
			C426.724,267.97,426.696,274.797,426.698,281.623z M206.783,279.869c0-6.313,0.053-12.625-0.012-18.938
			c-0.107-10.469,1.328-8.959-8.908-8.991c-1.933-0.006-5.409-1.207-5.498,1.378c-0.106,3.081,3.396,1.078,5.218,1.66
			c0.151,0.048,0.33,0.005,0.497,0.007c4.826,0.067,4.863,0.067,4.87,5.011c0.021,13.788,0.005,27.576,0.013,41.364
			c0,1.327-0.087,2.686,0.17,3.969c0.125,0.619,1.123,1.627,1.438,1.53c0.779-0.241,1.743-0.896,1.992-1.609
			c0.365-1.049,0.211-2.292,0.213-3.452C206.788,294.488,206.782,287.179,206.783,279.869z M73.004,287.746
			c-0.003,0-0.007,0-0.011,0c0-5.491,0.083-10.984-0.07-16.472c-0.03-1.09-0.904-3.043-1.497-3.084
			c-3.967-0.281-7.964-0.191-11.948-0.101c-0.44,0.01-1.298,0.99-1.213,1.172c0.291,0.623,0.861,1.466,1.422,1.546
			c1.633,0.234,3.314,0.138,4.977,0.175c4.403,0.101,4.478,0.101,4.504,4.464c0.054,8.819,0.006,17.639,0.031,26.458
			c0.004,1.323-0.01,2.697,0.35,3.942c0.149,0.517,1.241,0.972,1.942,1.036c0.408,0.037,1.178-0.694,1.284-1.187
			c0.241-1.122,0.217-2.311,0.222-3.473C73.015,297.398,73.004,292.572,73.004,287.746z M440.699,236.693
			c-8.805-1.096-16.881-2.057-24.945-3.115c-13.515-1.774-27.018-3.629-40.534-5.383c-0.887-0.115-1.847,0.339-2.772,0.527
			c0.893,0.985,1.67,1.216,2.463,1.322c8.731,1.173,17.465,2.335,26.199,3.484c12.854,1.692,25.715,3.341,38.563,5.085
			c2.154,0.293,3.055-0.417,3.248-2.544c0.544-5.959,1.23-11.906,1.756-17.866c0.079-0.903-0.146-2.466-0.662-2.681
			c-2.384-0.988-4.845-2.159-7.58-1.353c1.253,1.02,2.604,1.551,3.993,1.952c1.697,0.49,2.479,1.478,2.262,3.292
			C442.02,224.996,441.398,230.582,440.699,236.693z M294.315,196.396c-0.311,0.342-0.621,0.685-0.932,1.027
			c0.644,0.666,1.218,1.42,1.941,1.983c14.285,11.155,28.628,22.237,42.845,33.479c2.195,1.738,3.619,1.438,5.592-0.145
			c5.446-4.37,11.041-8.555,16.532-12.869c0.782-0.613,1.319-1.538,1.971-2.319c-1.482-0.123-2.505,0.284-3.347,0.927
			c-4.627,3.529-9.204,7.124-13.812,10.681c-4.269,3.294-4.264,3.268-8.365,0.061c-12.706-9.937-25.417-19.864-38.14-29.778
			C297.22,198.367,295.746,197.408,294.315,196.396z M433.307,226.92c-4.887-0.331-9.319-0.642-13.755-0.931
			c-4.313-0.281-8.627-0.578-12.943-0.802c-4.487-0.232-8.979-0.354-13.465-0.579c-4.318-0.217-8.632-0.705-12.948-0.704
			c-4.208,0.001-8.489-1.681-12.662-0.393c-0.003,0.445-0.006,0.89-0.009,1.334c22.608,1.347,45.218,2.692,68.363,4.071
			c-1.187-7.614-2.26-14.5-3.332-21.388c-0.487,0.062-0.976,0.124-1.464,0.186C431.122,213.871,433.077,219.878,433.307,226.92z
			 M489.527,220.956c-14.376,5.451-28.559,8.893-42.004,14.33c0.169,0.484,0.337,0.969,0.506,1.453
			c14.682-4.787,29.362-9.572,44.137-14.39c-3.275-7.009-12.043-18.403-15.376-19.487
			C481.139,209.04,485.11,214.682,489.527,220.956z M267.91,104.88c-0.003-0.081-0.005-0.161-0.008-0.241
			c5.132-0.26,10.266-0.483,15.395-0.793c3.475-0.21,6.958-0.435,10.401-0.906c0.778-0.106,1.413-1.264,2.113-1.937
			c-0.767-0.635-1.484-1.352-2.325-1.865c-0.354-0.215-0.97-0.01-1.467,0.021c-5.461,0.343-10.921,0.67-16.38,1.042
			c-3.142,0.214-6.297,0.381-9.407,0.839c-0.782,0.115-1.412,1.266-2.111,1.94c0.766,0.633,1.483,1.346,2.321,1.863
			C266.802,105.064,267.413,104.88,267.91,104.88z M382.635,183.695c-0.466-0.115-0.933-0.229-1.399-0.344
			c-0.437,1.669-0.945,3.322-1.297,5.008c-1.36,6.515-2.694,13.034-3.981,19.563c-0.332,1.682-0.872,2.803-2.921,2.458
			c-5.881-0.989-11.774-1.902-17.731-2.855c-0.131-1.825-0.237-3.313-0.344-4.803c-0.305-0.024-0.609-0.05-0.914-0.075
			c-0.646,1.914-1.292,3.828-2.134,6.319c8.587,1.352,16.543,2.604,24.856,3.913C378.952,202.844,381.138,193.333,382.635,183.695z
			 M383.624,308.18c2.925,0.016,5.224-2.163,5.146-4.875c-0.077-2.666-2.628-5.087-5.231-4.964
			c-2.587,0.121-4.641,2.211-4.754,4.838C378.652,306.249,380.508,308.166,383.624,308.18z M272.995,130.833
			c5.58-0.662,10.199-1.229,14.824-1.748c1.372-0.154,2.438-0.745,1.821-2.159c-0.34-0.78-1.627-1.706-2.412-1.642
			c-4.635,0.377-9.261,0.945-13.858,1.657c-0.809,0.125-1.466,1.236-2.193,1.891C271.913,129.642,272.649,130.452,272.995,130.833z
			 M296.337,125.101c0.642,3.636,0.662,3.792,2.354,3.573c3.104-0.402,6.201-0.918,9.257-1.595c0.673-0.149,1.747-1.499,1.621-1.721
			c-0.473-0.836-1.434-2.084-2.088-2.014C303.746,123.744,300.049,124.479,296.337,125.101z M270.459,119.85
			c3.438-0.335,5.916-0.427,8.32-0.896c0.771-0.15,1.347-1.298,2.012-1.989c-0.776-0.616-1.563-1.768-2.327-1.753
			c-2.943,0.056-5.895,0.384-8.803,0.858c-0.597,0.097-1.478,1.325-1.401,1.925c0.087,0.681,1.042,1.333,1.745,1.816
			C270.339,120.04,270.961,119.85,270.459,119.85z M289.115,117.886c3.391-0.333,5.837-0.599,8.29-0.805
			c1.41-0.119,2.655-0.269,2.396-2.218c-0.252-1.895-1.594-1.826-2.931-1.71c-2.452,0.213-4.895,0.522-7.347,0.736
			c-1.413,0.123-2.91,0.356-2.293,2.188C287.539,116.992,288.786,117.589,289.115,117.886z M74.894,256.2
			c-0.074-1.933-1.909-3.716-3.851-3.743c-2.153-0.029-4.111,2.04-3.926,4.149c0.175,1.994,1.978,3.479,4.096,3.371
			C73.352,259.869,74.97,258.208,74.894,256.2z M311.279,114.776c-1.91-0.928-2.758-1.673-3.55-1.618
			c-0.604,0.042-1.707,1.275-1.585,1.667c0.251,0.808,1.098,1.839,1.839,1.966C308.646,116.904,309.495,115.927,311.279,114.776z"/>
		<path fill-rule="evenodd" clip-rule="evenodd" fill="#3D3D3D" d="M377.671,89.978c6.087,0.041,11,1.535,15.665,3.813
			c1.079,0.527,2.239,1.668,2.58,2.769c0.741,2.39,2.166,3.093,4.386,2.629c3.434-0.719,5.222,1.241,6.669,3.899
			c1.634,3,1.357,6.146-0.984,8.233c-4.448,3.964-3.354,7.96-1.337,12.483c3.558,7.975,7.026,15.998,10.205,24.129
			c1.17,2.992,1.661,6.32,2.006,9.544c0.322,3.015-1.242,4.031-4.507,3.181c-4.589-1.196-9.182-2.415-13.69-3.874
			c-6.522-2.112-12.982-4.42-19.445-6.713c-1.191-0.423-2.371-1.043-3.348-1.833c-0.382-0.308-0.474-1.473-0.209-2.005
			c2.197-4.431,1.955-8.104-1.428-12.258c-2.121-2.604-4.094-2.775-6.825-3.075c-4.263-0.467-8.555-1.167-12.664-2.358
			c-3.54-1.025-7.713,0.611-10.695-2.576c-0.713-0.761-1.695-1.389-2.117-2.284c-2.563-5.432-1.503-9.623,4.769-11.909
			c5.943-2.167,8.775-6.682,11.274-11.393c1.84-3.467,3.73-5.607,7.34-7.466C369.666,90.676,374.224,91.377,377.671,89.978z"/>
		<path fill-rule="evenodd" clip-rule="evenodd" fill="#3F3F3F" d="M261.055,140.315c-2.942-15.378-5.929-30.984-8.984-46.952
			c7.946-0.467,15.394-0.942,22.846-1.334c18.121-0.953,36.246-1.839,54.365-2.816c5.756-0.311,5.754-0.402,7.912,4.936
			c1.933,4.779,3.906,9.543,5.737,14.361c0.272,0.716,0.172,2.146-0.291,2.463c-1.54,1.052-1.96-0.529-2.361-1.503
			c-1.899-4.613-3.803-9.229-5.526-13.911c-0.915-2.486-2.151-3.699-5.083-3.519c-15.121,0.928-30.256,1.632-45.384,2.44
			c-8.146,0.435-16.289,0.918-24.433,1.389c-1.139,0.066-2.274,0.189-4.151,0.349c0.82,4.651,1.535,8.992,2.358,13.311
			c1.557,8.167,3.301,16.3,4.702,24.493c0.465,2.723,1.278,3.607,4.17,3.159c11.175-1.731,22.392-3.192,33.59-4.775
			c5.271-0.745,10.525-1.607,15.809-2.239c0.895-0.107,1.896,0.679,2.849,1.053c-0.798,0.597-1.537,1.603-2.404,1.729
			c-18.1,2.656-36.214,5.215-54.329,7.772C262.161,140.762,261.841,140.554,261.055,140.315z"/>
		<path fill-rule="evenodd" clip-rule="evenodd" fill="#3E3E3E" d="M330.813,147.798c-1.3-4.113-2.633-8.216-3.892-12.342
			c-1.357-4.446-3.084-8.651-5.47-12.722c-1.855-3.163-3.091-7.082-3.285-10.734c-0.303-5.698,3.494-8.054,8.899-6.35
			c7.493,2.361,13.998,11.25,12.647,18.84c-0.791,4.449,0.258,8.119,1.55,12.019c0.26,0.786,0.501,1.578,0.751,2.367
			c0.395,0.787,0.789,1.573,1.184,2.36c1.624,5.305,3.248,10.61,5.176,16.914c-3.984-4.171-7.202-7.539-10.676-11.174
			c-1.509,2.74-2.762,5.014-4.345,7.886c-0.589-1.58-1.007-2.7-1.424-3.819C331.557,149.961,331.186,148.88,330.813,147.798z
			 M335.965,123.372c0.119-5.603-4.348-12.11-9.539-13.866c-1.82-0.616-3.619-1.063-4.348,1.499
			c-1.523,5.353,4.542,14.978,9.984,15.855C334.896,127.317,335.9,126.42,335.965,123.372z M329.503,130.948
			c1.479,4.605,2.807,8.739,4.18,13.014c1.782-1.445,3.153-2.556,4.717-3.823c0.017,0.056-0.115-0.417-0.264-0.884
			c-0.399-1.251-0.79-2.505-1.213-3.749C335.41,131.054,335.405,131.055,329.503,130.948z"/>
		<path fill-rule="evenodd" clip-rule="evenodd" fill="#6A6A6A" d="M347.951,269.551c0-4.532-0.005-8.338,0.003-12.145
			c0.002-1.165-0.18-2.393,0.134-3.471c0.212-0.729,1.146-1.248,1.756-1.86c0.608,0.64,1.565,1.193,1.748,1.937
			c0.309,1.261,0.145,2.642,0.151,3.973c0.075,13.14,0.105,26.282,0.251,39.422c0.027,2.474,0.622,4.937,0.728,7.414
			c0.041,0.968-0.545,1.963-0.845,2.945c-0.729-0.683-1.56-1.288-2.158-2.071c-0.483-0.632-0.688-1.477-0.885-1.925
			c-2.88,1.452-5.486,3.483-8.388,4.08c-6.009,1.234-11.736-1.766-14.52-7.334c-4.011-8.021-4.321-16.387-0.612-24.566
			c3.639-8.025,11.255-10.831,19.552-7.693C345.628,268.545,346.37,268.886,347.951,269.551z M347.943,286.38
			c0-3.328-0.075-6.659,0.027-9.983c0.063-2.075-0.793-3.392-2.506-4.484c-5.409-3.447-11.979-2.073-15.775,3.409
			c-4.138,5.974-4.105,18.771,0.081,24.778c0.473,0.678,1,1.338,1.596,1.909c3.036,2.912,6.665,3.968,10.534,2.291
			c3.737-1.62,6.073-4.567,6.049-8.934C347.933,292.372,347.946,289.376,347.943,286.38z"/>
		<path fill-rule="evenodd" clip-rule="evenodd" fill="#3F3F3F" d="M473.039,308.203c-5.083,0.448-9.579-1.777-13.225-5.807
			c-0.543-0.599-0.34-1.871-0.482-2.832c0.984,0.142,2.342-0.08,2.892,0.484c3.446,3.533,7.382,5.617,12.453,5.13
			c4.704-0.451,8.423-3.501,9.742-8.058c1.346-4.646,0.216-8.43-3.873-11.434c-3.209-2.357-6.694-4.343-10.048-6.506
			c-1.817-1.172-3.722-2.238-5.406-3.579c-4.948-3.941-6.632-9.14-4.908-14.637c1.597-5.095,6.547-8.575,12.794-8.607
			c4.627-0.023,8.784,1.621,12.394,4.563c0.927,0.756,1.854,1.447,0.776,2.83c-1.065,1.368-1.911,0.64-2.942-0.021
			c-1.951-1.25-3.854-2.693-5.987-3.513c-4.95-1.901-10.263-0.054-12.633,4.066c-2.397,4.169-1.405,8.816,2.891,12.421
			c1.9,1.595,4.081,2.862,6.168,4.226c2.786,1.821,5.639,3.542,8.402,5.394c6.294,4.216,7.898,9.533,5.599,16.976
			C485.838,305.143,480.801,308.164,473.039,308.203z"/>
		<path fill-rule="evenodd" clip-rule="evenodd" fill="#6B6B6B" d="M304.343,297.172c-1.246,1.999-1.734,3.314-2.656,4.154
			c-2.305,2.099-4.522,4.667-7.287,5.813c-6.536,2.705-11.26-0.045-12.691-6.1c-0.305-1.289-0.695-2.604-0.705-3.911
			c-0.063-8.662-0.089-17.326,0.038-25.987c0.015-1.033,0.901-2.814,1.607-2.935c2.25-0.382,2.069,1.611,2.078,3.055
			c0.045,7.496,0.003,14.993,0.049,22.489c0.012,1.994-0.001,4.031,0.388,5.971c0.95,4.735,4.78,6.872,8.969,4.44
			c2.729-1.585,5.462-4.137,6.785-6.925c1.731-3.643,2.479-7.903,2.902-11.976c0.479-4.616,0.094-9.318,0.168-13.982
			c0.022-1.385-0.372-3.465,1.972-3.064c0.737,0.126,1.659,1.873,1.701,2.911c0.188,4.658-0.019,9.329,0.122,13.989
			c0.194,6.48,0.608,12.952,0.818,19.431c0.025,0.774-0.641,1.571-0.986,2.357c-0.681-0.577-1.784-1.048-1.962-1.752
			C305.088,302.913,304.869,300.588,304.343,297.172z"/>
		<path fill-rule="evenodd" clip-rule="evenodd" fill="#6A6A6A" d="M15.254,277.282c1.23-1.772,1.854-3.246,2.95-4.139
			c2.538-2.064,5.069-4.442,8.029-5.617c5.502-2.182,10.375,0.825,11.697,6.596c0.371,1.617,0.71,3.284,0.729,4.933
			c0.096,8.322,0.146,16.647,0.023,24.97c-0.015,0.983-1.057,2.641-1.846,2.787c-1.94,0.361-1.802-1.466-1.815-2.741
			c-0.05-4.661-0.02-9.324-0.035-13.985c-0.013-4.162,0.102-8.331-0.102-12.484c-0.353-7.206-5.13-9.73-11.235-5.918
			c-5.087,3.178-7.159,8.275-7.565,13.939c-0.403,5.635-0.16,11.313-0.337,16.967c-0.051,1.622,0.826,4.293-1.943,4.244
			c-2.828-0.049-1.698-2.754-1.754-4.326c-0.161-4.489,0.066-8.993-0.088-13.482c-0.205-5.977-0.667-11.944-0.92-17.92
			c-0.057-1.335-0.888-3.323,1.394-3.52c0.469-0.04,1.328,1.86,1.623,2.969C14.568,272.471,14.776,274.469,15.254,277.282z"/>
		<path fill-rule="evenodd" clip-rule="evenodd" fill="#696969" d="M264.981,287.412c-1.031,4.382-1.533,8.724-3.099,12.641
			c-2.167,5.42-6.629,7.98-12.609,8.023c-6.058,0.043-10.368-2.791-12.628-8.074c-3.548-8.294-3.643-16.835,0.201-25.142
			c2.373-5.128,6.545-7.899,12.253-7.912c5.843-0.014,10.5,2.523,12.717,7.953C263.407,278.803,263.942,283.137,264.981,287.412z
			 M237.434,287.533c0.7,3.634,1.005,7.145,2.089,10.396c1.681,5.041,4.727,6.996,9.674,7.047c4.862,0.05,8.132-1.979,9.911-6.791
			c2.625-7.104,2.679-14.336-0.103-21.437c-1.667-4.251-4.841-6.669-9.536-6.746c-4.627-0.076-8.281,2.216-9.872,6.938
			C238.451,280.339,238.121,284.015,237.434,287.533z"/>
		<path fill-rule="evenodd" clip-rule="evenodd" fill="#6A6A6A" d="M101.166,268.562c3.117-1.297,4.363,0.116,5.525,1.929
			c2.51,3.916,5.092,7.783,7.831,11.953c5.388-3.863,5.944-11.996,12.157-14.759c0.438,0.352,0.876,0.704,1.314,1.056
			c-2.527,3.985-5.064,7.965-7.579,11.957c-3.87,6.146-4.334,4,0.325,10.564c3.544,4.992,7.092,9.982,10.73,15.104
			c-2.741,1.507-4.394,0.623-5.751-1.436c-2.382-3.613-4.787-7.21-7.201-10.801c-1.015-1.508-2.081-2.979-3.463-4.954
			c-1.099,1.352-2.062,2.373-2.838,3.52c-2.705,3.997-5.397,8.005-7.991,12.075c-1.351,2.12-2.935,3.063-5.814,1.654
			c3.427-4.824,6.769-9.537,10.122-14.241c0.676-0.949,1.346-1.909,2.105-2.789c1.846-2.14,2.14-3.957,0.183-6.503
			C107.393,278.428,104.491,273.562,101.166,268.562z"/>
		<path fill-rule="evenodd" clip-rule="evenodd" fill="#454545" d="M511.958,278.746c0.003,7.323,0.082,14.647-0.039,21.969
			c-0.043,2.566,0.844,3.576,3.434,3.513c4.823-0.117,9.652-0.029,14.479-0.021c0.998,0.001,2.059-0.175,2.977,0.105
			c0.776,0.237,1.388,1.017,2.07,1.556c-0.768,0.441-1.531,0.892-2.31,1.314c-0.132,0.071-0.328,0.028-0.494,0.028
			c-6.824,0.003-13.648-0.062-20.472,0.041c-2.632,0.04-3.453-1.092-3.444-3.589c0.061-15.645,0.028-31.29,0.031-46.935
			c0-0.499-0.14-1.13,0.104-1.469c0.515-0.712,1.241-1.27,1.882-1.89c0.581,0.636,1.426,1.186,1.675,1.933
			c0.3,0.903,0.103,1.975,0.103,2.974C511.957,265.099,511.955,271.923,511.958,278.746z"/>
		<path fill-rule="evenodd" clip-rule="evenodd" fill="#696969" d="M145.018,287.764c1.027-4.135,1.433-8.56,3.201-12.349
			c4.534-9.717,17.264-11.456,24.657-3.707c0.678,0.71,1.31,1.544,1.676,2.438c0.169,0.413-0.198,1.379-0.602,1.613
			c-0.586,0.342-1.628,0.57-2.11,0.268c-0.798-0.503-1.255-1.515-1.94-2.231c-5.286-5.521-13.247-4.96-17.624,1.225
			c-4.443,6.279-4.34,18.883,0.206,25.109c4.198,5.749,11.277,6.484,17.064,1.956c1.246-0.976,2.46-4.337,4.548-1.371
			c1.454,2.065-1.265,3.063-2.459,4.058c-4.627,3.856-10.006,4.296-15.471,2.304c-6.255-2.282-9.181-7.342-10.167-13.651
			c-0.28-1.794-0.206-3.645-0.293-5.47C145.474,287.891,145.246,287.827,145.018,287.764z"/>
		<path fill-rule="evenodd" clip-rule="evenodd" fill="#6D6D6D" d="M439.996,199.782c-3.973,0.369-7.938,0.868-11.921,1.058
			c-2.293,0.108-3.246,1.038-3.44,3.265c-0.185,2.118-0.669,4.21-1.098,6.764c-13.843-1.632-27.446-3.235-41.049-4.839
			c-0.013-0.346-0.026-0.692-0.039-1.039c0.791-0.163,1.606-0.543,2.371-0.458c11.23,1.248,22.452,2.591,33.687,3.802
			c1.145,0.124,3.142-0.141,3.397-0.771c0.651-1.604,0.719-3.532,0.591-5.3c-0.026-0.371-1.914-0.921-2.909-0.855
			c-5.14,0.341-10.267,0.858-15.399,1.308c-3.966,0.348-4.182,0.194-4.229-3.939c-0.047-3.992,0.019-7.985,0.08-11.978
			c0.007-0.462,0.305-0.919,0.825-2.388c0.535,1.773,1.021,2.688,1.051,3.617c0.105,3.324,0.106,6.655,0.047,9.982
			c-0.039,2.21,0.996,2.896,3.082,2.722c9.11-0.763,18.228-1.45,27.34-2.189c7.104-0.576,14.205-1.189,22.028-1.847
			c-1.179-7.136-2.313-14.009-3.449-20.883c0.467-0.082,0.933-0.165,1.399-0.246c1.968,7.327,2.879,14.88,4.516,23.051
			c-3.565,0.162-6.649,0.301-9.732,0.44C444.761,199.299,442.378,199.54,439.996,199.782z"/>
		<path fill-rule="evenodd" clip-rule="evenodd" fill="#414141" d="M426.697,281.623c-0.001-6.826,0.026-13.653-0.011-20.479
			c-0.026-4.865-0.064-4.865-5.101-4.926c-2.996-0.035-5.993-0.02-8.984-0.149c-0.492-0.021-0.957-0.676-1.435-1.038
			c0.451-0.561,0.796-1.37,1.381-1.618c0.717-0.306,1.634-0.176,2.464-0.177c8.825-0.008,17.649-0.008,26.474,0.002
			c0.83,0.001,1.701-0.059,2.475,0.173c0.539,0.16,0.944,0.77,1.41,1.179c-0.505,0.519-0.984,1.453-1.52,1.485
			c-2.821,0.173-5.655,0.122-8.485,0.143c-5.312,0.038-5.326,0.037-5.33,5.593c-0.009,13.487,0.038,26.975-0.058,40.461
			c-0.012,1.595,1.067,4.462-1.428,4.527c-3.15,0.082-1.728-3.042-1.773-4.697C426.589,295.279,426.698,288.45,426.697,281.623z"/>
		<path fill-rule="evenodd" clip-rule="evenodd" fill="#6E6E6E" d="M206.782,279.869c0,7.31,0.006,14.619-0.006,21.929
			c-0.002,1.16,0.152,2.403-0.213,3.452c-0.249,0.713-1.212,1.368-1.992,1.609c-0.315,0.097-1.313-0.911-1.438-1.53
			c-0.258-1.283-0.17-2.642-0.17-3.969c-0.008-13.788,0.008-27.576-0.013-41.364c-0.007-4.943-0.044-4.943-4.87-5.011
			c-0.167-0.002-0.346,0.041-0.497-0.007c-1.822-0.582-5.325,1.421-5.218-1.66c0.089-2.585,3.565-1.384,5.498-1.378
			c10.235,0.032,8.801-1.478,8.908,8.991C206.835,267.244,206.783,273.557,206.782,279.869z"/>
		<path fill-rule="evenodd" clip-rule="evenodd" fill="#727272" d="M330.813,147.798c0.372,1.082,0.743,2.163,1.116,3.243
			c-1.98,0.879-3.961,1.758-6.738,2.99c2.147,1.877,3.436,3.104,4.826,4.202c8.723,6.892,17.554,13.648,26.152,20.689
			c2.58,2.112,4.377,1.988,6.845,0.013c5.546-4.437,11.277-8.642,17.531-13.396c-3.48-2.937-6.489-5.474-9.498-8.012
			c0.325-0.389,0.65-0.778,0.977-1.167c4.01,2.619,7.639,5.764,11.462,9.009c-2.988,2.656-5.788,5.146-8.589,7.636
			c-0.313,0.551-0.624,1.103-0.937,1.653c-0.984,0.109-1.968,0.219-2.952,0.328c-0.685,0.616-1.369,1.234-2.055,1.852
			c-1.987,1.491-3.968,2.989-5.962,4.47c-3.509,2.604-3.514,2.602-7.095-0.166c-6.937-5.365-13.872-10.731-20.808-16.096
			c-0.423-0.435-0.845-0.869-1.268-1.304c-3.711-2.958-7.423-5.917-11.567-9.221C325.273,152.15,328.044,149.975,330.813,147.798z"
			/>
		<path fill-rule="evenodd" clip-rule="evenodd" fill="#727272" d="M333.822,163.743c0.423,0.435,0.845,0.869,1.268,1.304
			c-3.428,3.686-6.855,7.373-10.544,11.339c4.545,2.822,8.476,5.265,12.407,7.705c-0.396,0.329-0.791,0.659-1.187,0.988
			c-4.639-2.566-9.278-5.133-14.269-7.896c0.836-1.474,1.517-2.674,2.487-4.388c-0.3-0.149-0.719-0.419-1.177-0.574
			c-1.458-0.495-2.65-0.207-3.246,1.343c-1.599,4.156-3.167,8.326-4.95,13.029c11.975,3.6,23.461,7.05,34.945,10.502
			c-0.144,0.479-0.286,0.957-0.43,1.435c-12.375-2.851-24.374-7.068-37.111-10.501c2.237-6.026,4.178-11.466,6.334-16.818
			c0.305-0.757,2.002-1.761,2.476-1.519c5.346,2.732,8.284-0.722,11.298-4.122C332.675,164.948,333.256,164.352,333.822,163.743z"/>
		<path fill-rule="evenodd" clip-rule="evenodd" fill="#6D6D6D" d="M73.004,287.746c0,4.826,0.011,9.652-0.008,14.478
			c-0.004,1.162,0.019,2.351-0.222,3.473c-0.106,0.492-0.876,1.224-1.284,1.187c-0.701-0.064-1.792-0.52-1.942-1.036
			c-0.36-1.245-0.346-2.619-0.35-3.942c-0.025-8.819,0.022-17.639-0.031-26.458c-0.026-4.363-0.101-4.363-4.504-4.464
			c-1.662-0.037-3.343,0.06-4.977-0.175c-0.561-0.08-1.131-0.923-1.422-1.546c-0.084-0.182,0.773-1.162,1.213-1.172
			c3.984-0.091,7.981-0.181,11.948,0.101c0.592,0.041,1.466,1.994,1.497,3.084c0.153,5.487,0.07,10.98,0.07,16.472
			C72.998,287.746,73.001,287.746,73.004,287.746z"/>
		<path fill-rule="evenodd" clip-rule="evenodd" fill="#6F6F6F" d="M440.699,236.693c0.699-6.111,1.32-11.697,1.989-17.278
			c0.218-1.814-0.564-2.802-2.262-3.292c-1.389-0.401-2.74-0.933-3.993-1.952c2.735-0.807,5.196,0.364,7.58,1.353
			c0.517,0.215,0.741,1.777,0.662,2.681c-0.525,5.96-1.212,11.907-1.756,17.866c-0.193,2.127-1.094,2.837-3.248,2.544
			c-12.848-1.744-25.708-3.393-38.563-5.085c-8.734-1.149-17.468-2.312-26.199-3.484c-0.793-0.106-1.57-0.337-2.463-1.322
			c0.926-0.188,1.886-0.643,2.772-0.527c13.517,1.754,27.02,3.608,40.534,5.383C423.818,234.637,431.895,235.598,440.699,236.693z"
			/>
		<path fill-rule="evenodd" clip-rule="evenodd" fill="#717171" d="M373.961,174.659c0.313-0.551,0.624-1.103,0.937-1.653
			c10.596,3.429,21.179,6.893,31.792,10.268c3.563,1.133,3.841,0.942,5.014-2.553c1.11-3.31,2.116-6.652,3.16-9.984
			c1.594-5.083,1.593-5.091-3.328-6.561c-7.484-2.236-14.978-4.446-22.455-6.703c-1.669-0.503-3.291-1.156-5.871-2.072
			c4.202-0.672,26.482,5.528,35.494,9.466c-2.272,7.136-4.565,14.332-7.036,22.086C398.825,182.766,386.393,178.712,373.961,174.659
			z"/>
		<path fill-rule="evenodd" clip-rule="evenodd" fill="#737373" d="M294.315,196.396c1.431,1.013,2.904,1.972,4.286,3.047
			c12.723,9.914,25.434,19.842,38.14,29.778c4.102,3.207,4.097,3.233,8.365-0.061c4.607-3.557,9.185-7.151,13.812-10.681
			c0.842-0.643,1.864-1.05,3.347-0.927c-0.651,0.781-1.188,1.706-1.971,2.319c-5.491,4.314-11.086,8.499-16.532,12.869
			c-1.973,1.583-3.396,1.883-5.592,0.145c-14.217-11.242-28.56-22.324-42.845-33.479c-0.724-0.563-1.298-1.317-1.941-1.983
			C293.694,197.08,294.005,196.737,294.315,196.396z"/>
		<path fill-rule="evenodd" clip-rule="evenodd" fill="#717171" d="M433.307,226.92c-0.229-7.042-2.185-13.049-2.215-19.205
			c0.488-0.062,0.977-0.124,1.464-0.186c1.072,6.888,2.146,13.773,3.332,21.388c-23.146-1.379-45.755-2.725-68.363-4.071
			c0.003-0.444,0.006-0.889,0.009-1.334c4.173-1.288,8.454,0.394,12.662,0.393c4.316-0.001,8.63,0.487,12.948,0.704
			c4.486,0.226,8.978,0.347,13.465,0.579c4.316,0.224,8.63,0.521,12.943,0.802C423.987,226.278,428.42,226.589,433.307,226.92z"/>
		<path fill-rule="evenodd" clip-rule="evenodd" fill="#737373" d="M399.89,62.127c-5.434-7.581-6.298-5.53-1.032-15.213
			c4.648-8.547,11.612-14.814,20.742-19.961c4.787,7.529,9.436,14.843,14.139,22.242c-2.926,1.864-5.296,3.374-7.667,4.884
			c-0.374-0.36-0.749-0.721-1.123-1.081c1.883-1.53,3.767-3.06,5.902-4.794c-3.499-5.498-6.936-10.759-10.217-16.117
			c-1.482-2.421-2.954-1.963-4.844-0.596c-5.834,4.22-10.915,9.15-14.692,15.32c-4.36,7.123-4.335,7.137-0.249,14.186
			C400.528,61.374,400.209,61.75,399.89,62.127z"/>
		<path fill-rule="evenodd" clip-rule="evenodd" fill="#737373" d="M489.527,220.956c-4.417-6.274-8.389-11.916-12.737-18.094
			c3.333,1.084,12.101,12.479,15.376,19.487c-14.774,4.817-29.455,9.603-44.137,14.39c-0.169-0.484-0.337-0.969-0.506-1.453
			C460.969,229.849,475.151,226.407,489.527,220.956z"/>
		<path fill-rule="evenodd" clip-rule="evenodd" fill="#737373" d="M335.767,185.079c0.396-0.329,0.791-0.659,1.187-0.988
			c9.316,5.304,18.632,10.607,28.242,16.078c4.049-6.403,7.837-12.396,11.74-18.566c-2.907-1.734-5.445-3.249-7.981-4.763
			c0.686-0.618,1.37-1.236,2.055-1.853c2.632,1.866,5.263,3.734,8.501,6.033c-4.375,6.988-8.887,14.193-13.774,22.001
			C355.534,196.915,345.65,190.997,335.767,185.079z"/>
		<path fill-rule="evenodd" clip-rule="evenodd" fill="#727272" d="M325.917,234.91c-0.724,0.688-1.411,1.929-2.177,1.979
			c-6.977,0.46-13.967,0.7-20.952,1.036c-1.687,0.08-2.907-0.397-3.395-2.173c-3.606-13.148-7.227-26.293-10.827-39.442
			c-0.028-0.105,0.158-0.27,0.771-1.246c0.677,1.599,1.291,2.718,1.634,3.914c3.021,10.561,6.003,21.134,8.982,31.707
			c1.478,5.249,1.467,5.311,7.095,5.125c6.322-0.209,12.641-0.536,18.96-0.813L325.917,234.91z"/>
		<path fill-rule="evenodd" clip-rule="evenodd" fill="#727272" d="M319.131,224.869c4.656,4.515,9.326,9.016,13.961,13.552
			c1.222,1.196,2.32,2.319,4.309,1.575c8.874-3.32,17.774-6.568,26.655-9.869c0.258-0.095,0.403-0.493,0.74-0.933
			c-1.189-1.739-2.415-3.534-3.642-5.328c0.354-0.27,0.709-0.539,1.064-0.809c2.071,2.337,4.145,4.674,6.637,7.483
			c-3.329,1.256-6.076,2.323-8.846,3.332c-6.877,2.504-13.84,4.796-20.617,7.548c-3.311,1.346-5.503,0.797-7.789-1.819
			c-1.597-1.824-3.771-3.146-5.687-4.691l0.091,0.088c-2.693-2.991-5.388-5.982-8.082-8.974
			C318.328,225.639,318.729,225.254,319.131,224.869z"/>
		<path fill-rule="evenodd" clip-rule="evenodd" fill="#424242" d="M267.91,104.88c-0.497,0-1.108,0.185-1.468-0.038
			c-0.838-0.517-1.555-1.229-2.321-1.863c0.699-0.674,1.329-1.825,2.111-1.94c3.11-0.458,6.265-0.625,9.407-0.839
			c5.458-0.372,10.919-0.7,16.38-1.042c0.497-0.031,1.113-0.236,1.467-0.021c0.841,0.513,1.559,1.23,2.325,1.865
			c-0.7,0.673-1.335,1.831-2.113,1.937c-3.443,0.471-6.926,0.695-10.401,0.906c-5.128,0.311-10.262,0.533-15.395,0.793
			C267.905,104.719,267.907,104.799,267.91,104.88z"/>
		<path fill-rule="evenodd" clip-rule="evenodd" fill="#737373" d="M444.854,96.954c-6.379,11.764-10.12,24.503-13.771,37.275
			c-0.41,1.435-0.619,2.953-1.219,4.3c-0.323,0.727-1.469,1.792-1.914,1.653c-5.393-1.691-10.785-3.434-15.846-5.935
			c0.164-0.45,0.328-0.899,0.492-1.35c2.724,0.941,5.444,1.885,8.17,2.821c8.531,2.931,6.63,3.325,9.179-4.401
			c3.167-9.604,6.482-19.163,9.957-28.66c0.891-2.436,2.617-4.566,3.961-6.836C444.193,96.199,444.523,96.576,444.854,96.954z"/>
		<path fill-rule="evenodd" clip-rule="evenodd" fill="#747474" d="M451.896,159.004c1.905,2.472,3.811,4.945,6.099,7.916
			c-3.738,1.521-7.057,2.867-10.369,4.224c-4.608,1.888-9.217,3.771-13.815,5.682c-1.661,0.69-3.063,0.933-4.286-0.916
			c-3.481-5.26-7.092-10.434-10.613-15.667c-0.226-0.335-0.117-0.894-0.247-2.141c1.135,0.925,1.92,1.331,2.372,1.972
			c2.966,4.207,5.908,8.431,8.752,12.72c1.16,1.749,2.354,2.586,4.519,1.68c6.562-2.747,13.173-5.38,20.206-8.235
			c-1.348-2.261-2.497-4.19-3.646-6.119C451.209,159.746,451.552,159.375,451.896,159.004z"/>
		<path fill-rule="evenodd" clip-rule="evenodd" fill="#737373" d="M444.854,96.954c-0.33-0.377-0.66-0.754-0.99-1.132
			c0.444-0.844,0.89-1.688,1.474-2.797c-7.409-3.523-15.127-5.351-22.911-6.915c-7.906-1.589-9.71-0.351-11.613,7.739
			c-0.522,2.222-0.876,4.483-1.981,6.841c-0.267-0.775-0.815-1.573-0.754-2.321c0.353-4.34,1.237-8.558,3.84-12.187
			c1.408-1.963,3.114-3.432,5.836-2.952c9.992,1.761,19.84,4.022,29.138,8.23c0.593,0.268,1.115,0.689,2.245,1.403
			C447.594,94.336,446.224,95.645,444.854,96.954z"/>
		<path fill-rule="evenodd" clip-rule="evenodd" fill="#727272" d="M382.635,183.695c-1.497,9.638-3.683,19.148-5.865,29.184
			c-8.313-1.309-16.27-2.562-24.856-3.913c0.842-2.491,1.488-4.405,2.134-6.319c0.305,0.025,0.609,0.051,0.914,0.075
			c0.106,1.489,0.213,2.978,0.344,4.803c5.957,0.953,11.851,1.866,17.731,2.855c2.049,0.345,2.589-0.776,2.921-2.458
			c1.287-6.528,2.621-13.048,3.981-19.563c0.352-1.686,0.86-3.339,1.297-5.008C381.702,183.466,382.169,183.58,382.635,183.695z"/>
		<path fill-rule="evenodd" clip-rule="evenodd" fill="#737373" d="M479.814,178.028c3.79,4.362,7.581,8.725,11.341,13.052
			c-2.648,2.782-25.345,14.036-36.013,18.018c-0.394-0.355-0.787-0.71-1.181-1.064c9.735-4.693,19.473-9.381,29.202-14.088
			c1.597-0.772,3.154-1.627,5.213-2.694c-3.426-4.317-6.497-8.188-9.567-12.059C479.145,178.804,479.479,178.416,479.814,178.028z"
			/>
		<path fill-rule="evenodd" clip-rule="evenodd" fill="#747474" d="M311.102,203.889c8.576,6.55,17.148,13.105,25.73,19.647
			c3.778,2.881,3.782,2.86,7.565,0.048c2.129-1.581,4.281-3.13,6.424-4.694c0.376,0.356,0.752,0.713,1.127,1.07
			c-2.981,2.394-6.007,4.732-8.927,7.199c-1.682,1.421-3.024,1.41-4.792,0.003c-9.372-7.46-18.833-14.81-28.263-22.197
			C310.345,204.606,310.724,204.248,311.102,203.889z"/>
		<path fill-rule="evenodd" clip-rule="evenodd" fill="#757575" d="M266.917,219.998c4.002,5.489,8.094,10.917,11.964,16.499
			c1.615,2.327,3.233,2.912,5.833,1.686c2.842-1.34,5.833-2.373,8.79-3.458c0.823-0.302,1.756-0.31,2.638-0.452
			c0.132,0.372,0.263,0.744,0.395,1.116c-2.315,0.973-4.595,2.042-6.954,2.894c-3.066,1.108-6.553,3.372-9.19,2.66
			c-2.397-0.646-3.971-4.559-5.782-7.121c-2.965-4.191-5.827-8.457-8.732-12.69C266.223,220.753,266.57,220.376,266.917,219.998z"/>
		<path fill-rule="evenodd" clip-rule="evenodd" fill="#767676" d="M266.917,219.998c-0.347,0.378-0.693,0.755-1.04,1.133
			c-2.167-2.869-4.333-5.738-6.93-9.179c9.828-4.401,18.866-8.881,28.212-12.661c0.209,0.398,0.418,0.796,0.627,1.194
			c-1.193,0.688-2.342,1.468-3.586,2.048c-6.018,2.808-12.083,5.518-18.09,8.348c-3.86,1.819-3.833,1.911-1.595,5.349
			C265.328,217.479,266.117,218.741,266.917,219.998z"/>
		<path fill-rule="evenodd" clip-rule="evenodd" fill="#414141" d="M383.624,308.18c-3.116-0.014-4.972-1.931-4.839-5.001
			c0.113-2.627,2.167-4.717,4.754-4.838c2.604-0.123,5.154,2.298,5.231,4.964C388.848,306.017,386.549,308.195,383.624,308.18z"/>
		<path fill-rule="evenodd" clip-rule="evenodd" fill="#757575" d="M451.896,159.004c-0.344,0.371-0.687,0.742-1.03,1.113
			c-3.066-4.132-6.25-8.185-9.157-12.426c-1.686-2.459-3.409-3.166-6.264-1.983c-4.383,1.815-8.912,3.277-13.379,4.889
			c-0.172-0.314-0.344-0.627-0.516-0.941c0.604-0.526,1.122-1.272,1.824-1.542c4.499-1.729,9.058-3.308,13.558-5.035
			c1.934-0.741,3.38-0.736,4.691,1.216C444.959,149.257,448.461,154.108,451.896,159.004z"/>
		<path fill-rule="evenodd" clip-rule="evenodd" fill="#454545" d="M272.995,130.833c-0.346-0.381-1.082-1.19-1.817-2
			c0.727-0.655,1.384-1.766,2.193-1.891c4.597-0.712,9.223-1.28,13.858-1.657c0.785-0.063,2.072,0.862,2.412,1.642
			c0.616,1.414-0.449,2.005-1.821,2.159C283.194,129.603,278.575,130.17,272.995,130.833z"/>
		<path fill-rule="evenodd" clip-rule="evenodd" fill="#757575" d="M422.008,58.088c-4.216,6.138-8.43,12.275-13.039,18.987
			c-2.678-4.434-5.3-8.775-7.92-13.116c0.32-0.379,0.639-0.759,0.959-1.138c2.34,3.34,4.68,6.679,6.973,9.952
			c4.133-5.491,8.015-10.648,11.896-15.806C421.254,57.341,421.631,57.715,422.008,58.088z"/>
		<path fill-rule="evenodd" clip-rule="evenodd" fill="#767676" d="M299.813,197.063c-2.787-2.056-5.574-4.111-8.799-6.489
			c7.32-5.347,13.971-10.58,21.076-15.156c0.322,0.429,0.645,0.858,0.967,1.289c-6.03,4.491-12.062,8.982-18.462,13.75
			c2.403,2.086,4.383,3.806,6.362,5.525C300.576,196.343,300.195,196.703,299.813,197.063z"/>
		<path fill-rule="evenodd" clip-rule="evenodd" fill="#737373" d="M479.867,162.022c-4.815-3.992-9.63-7.984-14.651-12.147
			c-2.729,2.536-5.227,4.854-8.16,7.579c0.656-2.613,5.962-9.211,7.595-9.529c0.767-0.149,1.878,0.335,2.523,0.892
			c4.64,3.993,9.199,8.078,13.783,12.134C480.594,161.308,480.23,161.665,479.867,162.022z"/>
		<path fill-rule="evenodd" clip-rule="evenodd" fill="#7B7B7B" d="M319.131,224.869c-0.401,0.385-0.803,0.77-1.205,1.155
			c-6.09-6.083-12.184-12.164-18.247-18.274c-0.102-0.104,0.156-0.563,0.247-0.856c0.297-0.07,0.752-0.301,0.867-0.188
			C306.925,212.742,313.026,218.807,319.131,224.869z"/>
		<path fill-rule="evenodd" clip-rule="evenodd" fill="#4B4B4B" d="M296.337,125.101c3.712-0.622,7.409-1.356,11.144-1.756
			c0.654-0.07,1.615,1.178,2.088,2.014c0.126,0.222-0.948,1.571-1.621,1.721c-3.056,0.676-6.153,1.193-9.257,1.595
			C296.999,128.892,296.979,128.736,296.337,125.101z"/>
		<path fill-rule="evenodd" clip-rule="evenodd" fill="#454545" d="M270.459,119.85c0.501,0-0.121,0.19-0.455-0.04
			c-0.702-0.484-1.657-1.135-1.745-1.816c-0.077-0.6,0.804-1.828,1.401-1.925c2.908-0.475,5.86-0.802,8.803-0.858
			c0.764-0.014,1.551,1.138,2.327,1.753c-0.665,0.691-1.241,1.839-2.012,1.989C276.375,119.422,273.898,119.515,270.459,119.85z"/>
		<path fill-rule="evenodd" clip-rule="evenodd" fill="#454545" d="M289.115,117.886c-0.329-0.296-1.576-0.894-1.885-1.808
			c-0.617-1.832,0.88-2.065,2.293-2.188c2.452-0.213,4.895-0.523,7.347-0.736c1.337-0.116,2.679-0.185,2.931,1.71
			c0.26,1.949-0.985,2.099-2.396,2.218C294.952,117.287,292.506,117.553,289.115,117.886z"/>
		<path fill-rule="evenodd" clip-rule="evenodd" fill="#6A6A6A" d="M74.894,256.2c0.077,2.008-1.542,3.669-3.681,3.777
			c-2.118,0.107-3.921-1.377-4.096-3.371c-0.185-2.109,1.773-4.179,3.926-4.149C72.985,252.484,74.82,254.268,74.894,256.2z"/>
		<path fill-rule="evenodd" clip-rule="evenodd" fill="#7A7A7A" d="M479.814,178.028c-0.335,0.388-0.67,0.775-1.005,1.164
			c-0.996,0.2-2.218,0.103-2.944,0.656c-2.076,1.583-3.949,3.429-5.903,5.172c-0.367-0.36-0.735-0.721-1.103-1.082
			c5.334-5,10.67-10,16.005-15.002c0.345,0.301,0.69,0.603,1.036,0.903c-1.654,1.765-3.393,3.459-4.92,5.326
			C480.356,175.928,480.188,177.063,479.814,178.028z"/>
		<path fill-rule="evenodd" clip-rule="evenodd" fill="#797979" d="M343.198,141.235c-0.395-0.787-0.789-1.573-1.184-2.36
			c0.166,0.006,0.351,0.063,0.497,0.012c1.937-0.683,3.832-1.755,5.813-1.95c1.397-0.137,7.024,5.312,8.563,7.557
			c-2.481,0.245-3.843-1.512-5.06-2.728C348.958,138.898,346.244,138.702,343.198,141.235z"/>
		<path fill-rule="evenodd" clip-rule="evenodd" fill="#797979" d="M453.962,208.033c0.394,0.354,0.787,0.709,1.181,1.064
			c-2.089,1.993-3.703,1.549-5.09-0.872c-0.899-1.57-2.184-2.94-2.944-4.565c-1.462-3.12-3.793-4.326-7.112-3.878
			c2.382-0.242,4.765-0.483,7.147-0.725C448.681,202.608,449.927,206.381,453.962,208.033z"/>
		<path fill-rule="evenodd" clip-rule="evenodd" fill="#777777" d="M468.859,183.938c0.367,0.361,0.735,0.722,1.103,1.082
			c-3.346,3.187-6.69,6.372-10.036,9.56c-0.375-0.394-0.75-0.786-1.125-1.18C461.973,190.076,465.256,186.856,468.859,183.938z"/>
		<path fill-rule="evenodd" clip-rule="evenodd" fill="#7C7C7C" d="M299.813,197.063c0.382-0.36,0.763-0.721,1.145-1.081
			c3.382,2.636,6.764,5.271,10.144,7.906c-0.378,0.359-0.757,0.718-1.135,1.076C306.583,202.331,303.197,199.697,299.813,197.063z"
			/>
		<path fill-rule="evenodd" clip-rule="evenodd" fill="#7A7A7A" d="M485.9,169.84c-0.346-0.301-0.691-0.603-1.036-0.903
			c-0.231-0.976-0.177-2.188-0.751-2.877c-1.244-1.488-2.812-2.708-4.246-4.037c0.363-0.357,0.727-0.715,1.09-1.071
			c2.541,2.074,5.082,4.148,7.979,6.514C487.631,168.485,486.766,169.163,485.9,169.84z"/>
		<path fill-rule="evenodd" clip-rule="evenodd" fill="#7B7B7B" d="M351.948,219.96c-0.375-0.357-0.751-0.714-1.127-1.07
			c2.522-2.027,5.043-4.055,7.565-6.081C357.746,216.791,354.54,218.063,351.948,219.96z"/>
		<path fill-rule="evenodd" clip-rule="evenodd" fill="#3D3D3D" d="M311.279,114.776c-1.784,1.151-2.634,2.128-3.296,2.015
			c-0.741-0.127-1.588-1.158-1.839-1.966c-0.122-0.392,0.98-1.624,1.585-1.667C308.521,113.103,309.369,113.848,311.279,114.776z"/>
		<path fill-rule="evenodd" clip-rule="evenodd" fill="#808080" d="M422.008,58.088c-0.377-0.374-0.754-0.748-1.131-1.121
			c1.357-1.323,2.714-2.646,4.071-3.97c0.374,0.361,0.749,0.721,1.123,1.082C424.718,55.415,423.362,56.751,422.008,58.088z"/>
		<path fill-rule="evenodd" clip-rule="evenodd" fill="#727272" d="M402.008,62.821c-0.32,0.379-0.639,0.759-0.959,1.138
			c-0.387-0.61-0.773-1.221-1.159-1.832c0.319-0.377,0.639-0.754,0.959-1.131C401.235,61.605,401.622,62.213,402.008,62.821z"/>
		<path fill-rule="evenodd" clip-rule="evenodd" fill="none" d="M335.965,123.372c-0.064,3.048-1.069,3.945-3.902,3.488
			c-5.442-0.877-11.508-10.502-9.984-15.855c0.729-2.563,2.527-2.115,4.348-1.499C331.617,111.262,336.084,117.769,335.965,123.372z
			"/>
		<path fill-rule="evenodd" clip-rule="evenodd" fill="none" d="M329.503,130.948c5.902,0.107,5.907,0.105,7.42,4.558
			c0.423,1.244,0.813,2.498,1.213,3.749c0.148,0.467,0.28,0.939,0.264,0.884c-1.563,1.267-2.935,2.378-4.717,3.823
			C332.31,139.688,330.982,135.553,329.503,130.948z"/>
		<path fill-rule="evenodd" clip-rule="evenodd" fill="none" d="M347.944,286.38c0.002,2.996-0.012,5.992,0.005,8.986
			c0.024,4.366-2.312,7.313-6.049,8.934c-3.869,1.677-7.498,0.621-10.534-2.291c-0.596-0.571-1.123-1.231-1.596-1.909
			c-4.187-6.007-4.219-18.805-0.081-24.778c3.796-5.482,10.366-6.856,15.775-3.409c1.713,1.093,2.569,2.409,2.506,4.484
			C347.868,279.721,347.943,283.052,347.944,286.38z"/>
		<path fill-rule="evenodd" clip-rule="evenodd" fill="none" d="M237.434,287.533c0.688-3.519,1.017-7.194,2.163-10.594
			c1.59-4.722,5.244-7.014,9.872-6.938c4.695,0.077,7.87,2.495,9.536,6.746c2.782,7.101,2.728,14.332,0.103,21.437
			c-1.778,4.813-5.048,6.841-9.911,6.791c-4.947-0.051-7.993-2.006-9.674-7.047C238.439,294.678,238.134,291.167,237.434,287.533z"
			/>
		<path fill-rule="evenodd" clip-rule="evenodd" fill="none" d="M368.954,176.84c2.536,1.514,5.074,3.028,7.981,4.763
			c-3.903,6.171-7.691,12.163-11.74,18.566c-9.61-5.471-18.926-10.774-28.242-16.078c-3.932-2.44-7.862-4.883-12.407-7.705
			c3.688-3.966,7.116-7.653,10.544-11.339c6.936,5.364,13.871,10.73,20.808,16.096c3.581,2.768,3.586,2.771,7.095,0.166
			C364.986,179.828,366.967,178.33,368.954,176.84z"/>
		<path fill-rule="evenodd" clip-rule="evenodd" fill="none" d="M402.008,62.821c-0.386-0.608-0.772-1.216-1.159-1.825
			c-4.086-7.049-4.111-7.063,0.249-14.186c3.777-6.17,8.858-11.1,14.692-15.32c1.89-1.367,3.361-1.825,4.844,0.596
			c3.281,5.357,6.718,10.619,10.217,16.117c-2.136,1.734-4.02,3.265-5.902,4.794c-1.357,1.323-2.714,2.647-4.071,3.97
			c-3.882,5.157-7.764,10.314-11.896,15.806C406.688,69.5,404.348,66.161,402.008,62.821z"/>
	</g>
</g>
</svg>
