<?xml version="1.0" encoding="utf-8"?>
<!-- Generator: Adobe Illustrator 16.0.0, SVG Export Plug-In . SVG Version: 6.00 Build 0)  -->
<!DOCTYPE svg PUBLIC "-//W3C//DTD SVG 1.1//EN" "http://www.w3.org/Graphics/SVG/1.1/DTD/svg11.dtd">
<svg version="1.1" id="Layer_1" xmlns="http://www.w3.org/2000/svg" xmlns:xlink="http://www.w3.org/1999/xlink" x="0px" y="0px"
	 width="900px" height="300px" viewBox="0 0 900 300" enable-background="new 0 0 900 300" xml:space="preserve">
<g>
	<g>
		<path fill-rule="evenodd" clip-rule="evenodd" fill="none" d="M1,301.962C1,201.642,1,101.321,1,1c300.296,0,600.592,0,900.887,0
			c0,100.321,0,200.642,0,300.962C601.592,301.962,301.296,301.962,1,301.962z M261.92,96.025l0.094-0.074
			c-1.031,0.691-2.063,1.383-3.093,2.074l0.094-0.074c-1.698,1.024-3.396,2.048-5.094,3.073l0.095-0.074
			c-1.366,0.691-2.731,1.381-4.096,2.072l0.096-0.073c-1.667,0.976-3.333,1.951-5,2.927c-1.388,0.717-2.775,1.434-4.163,2.151
			c-2.644,0.998-5.288,1.995-7.933,2.993l0.099-0.069c-2.681-0.017-5.362-0.033-8.044-0.05c-1.262,4.116-4.787,5.99-8.052,8.119
			l0.101-0.068c-7.644-0.309-15.288-0.618-22.931-0.927c-1.056-0.383-2.11-0.766-3.166-1.148c-1.612-0.617-3.223-1.234-4.834-1.851
			c-0.722-0.383-1.443-0.766-2.164-1.149c-1.33-0.979-2.66-1.958-3.99-2.937l0.084,0.083c-1.311-0.999-2.621-1.997-3.93-2.996
			c-1.053-1.052-2.105-2.104-3.158-3.157c-0.665-0.977-1.33-1.954-1.996-2.93l0.075,0.093c-0.665-0.977-1.33-1.954-1.995-2.931
			c-2.028-4.411-4.055-8.821-6.083-13.231c-0.306-1.255-0.612-2.511-0.918-3.766c-0.693-1.745-1.387-3.489-2.082-5.233
			c0.697-0.973,1.393-1.945,2.089-2.918l-0.098,0.07c6.716-1.516,13.015-3.734,16.932-9.992c0.719-0.719,1.438-1.438,2.157-2.158
			c0.664-1.311,1.329-2.621,1.993-3.932l-0.069,0.1c1.597-4.458,2.117-8.846-0.858-13.002c-0.385-0.385-0.771-0.771-1.155-1.157
			c-2.946-3.388-5.298-3.825-10.003-1.857l0.098-0.07c-1,0.643-1.999,1.285-2.999,1.928c-3.228,2.313-5.511,5.34-7.044,9.005
			c-0.479,1.145-1.395,2.106-2.11,3.151c-0.309,1.333-0.618,2.667-0.927,4l0.068-0.101c-1.684,2.367-1.684,4.733,0,7.101
			l-0.067-0.102c0.356,1.7,0.712,3.4,1.067,5.101l-0.068-0.1c-1.193,3.916-4.474,2.222-6.37,1.674
			c-4.952-1.43-9.672-3.664-14.484-5.577c-0.717-0.388-1.434-0.775-2.151-1.163c-0.005-0.329,0.127-0.77-0.036-0.971
			c-3.928-4.844-6.235-10.441-8.215-16.308c-0.935-2.768-3.122-5.113-4.743-7.65l0.074,0.094c-0.691-1.031-1.382-2.062-2.074-3.093
			l0.074,0.094c-0.691-1.031-1.383-2.062-2.074-3.093l0.074,0.094c-0.642-1-1.285-2-1.927-2.999
			c-1.052-1.052-2.104-2.104-3.156-3.157c-1.006-1.642-1.191-4.121-4-3.927l0.094,0.074c-1.031-0.691-2.063-1.382-3.093-2.074
			l0.096,0.072c-2.292-2.101-4.922-3.304-8.098-3.069l0.1,0.069c-7.805-4.122-15.819-3.903-23.955-1.152
			c-0.105-0.899-0.21-1.798-0.362-3.097c-0.735,1.652-1.279,2.873-1.822,4.094c-1.677,1.681-3.355,3.362-5.032,5.042
			c-1.55,0.785-3.102,1.567-4.649,2.357c-1.069,0.545-2.133,1.102-3.198,1.654c-0.804-0.977-1.608-1.955-2.673-3.25
			c-0.2,0.99-0.322,1.593-0.444,2.196c-0.989-0.61-1.908-1.539-2.98-1.78c-7.929-1.781-15.948-1.528-23.792,0.164
			c-1.93,0.417-5.276,1.964-4.149,5.667c-1.746,1.289-3.672,2.397-5.197,3.911c-2.388,2.37-2.914,5.792-4.358,8.626
			c-1.575,3.089-2.244,5.066,0.081,7.862c1.513,1.821,0.52,4.493-1.688,5.635c-6.688,3.458-9.636,14.771-2.76,19.594
			c1.191,0.835,2.265,1.861,3.519,2.581c4.154,2.382,6.231,5.825,8.003,10.431c2.411,6.269,1.481,11.145-2.537,15.752
			c-2.219,2.545-3.113,5.249-3.053,8.462c0.019,0.998,0.198,2.058-0.065,2.985c-2.327,8.193-0.772,16.402,0.297,24.482
			c1.303,9.838,4.175,19.47,3.777,29.535c-0.026,0.664-0.164,1.398,0.055,1.986c2.482,6.668,1.815,13.615,1.977,20.502
			c0.075,3.183,0.544,6.354,0.835,9.537c10.522,0,20.32,0,30.119,0c1.829,0.055,3.657,0.157,5.486,0.158
			c37.987,0.009,75.973-0.054,113.959,0.02c69.286,0.134,138.571,0.35,207.856,0.479c0.869,0.002,1.739-0.668,2.515-0.986
			c1.375-35.37,0.529-179.527-1.276-182.733c-0.543,3.301-1.032,6.277-1.521,9.253c-0.671,1.014-1.342,2.028-2.013,3.041
			c-7.123,3.029-14.256,6.034-21.355,9.118c-0.967,0.42-1.759,1.241-2.632,1.876c-1.674,0.334-3.348,0.668-5.022,1.001
			c-1.44,0.21-2.922,0.272-4.315,0.655c-7.376,2.027-14.731,3.979-22.456,4.38c-4.867,0.252-9.683,1.578-14.546,1.768
			c-4.194,0.164-8.423-0.598-12.637-0.951c-0.759-0.717-1.519-1.434-2.278-2.15c-0.24,0.239-0.48,0.478-0.721,0.717
			c0.575,0.894,1.149,1.789,1.725,2.682c-0.25,1.246-0.5,2.493-0.75,3.738c-0.383,1.055-0.766,2.109-1.149,3.164
			c-0.976,2.333-1.953,4.665-2.929,6.998L291,66.944c-0.69,1.365-1.381,2.73-2.071,4.096l0.072-0.096
			c-1.025,1.364-2.049,2.729-3.074,4.093l0.074-0.094c-3.361,3.361-6.722,6.722-10.083,10.083l0.084-0.084
			c-1.024,1.031-2.049,2.063-3.074,3.094l0.084-0.084c-1,0.643-2,1.285-2.999,1.928c-0.721,0.717-1.442,1.434-2.163,2.151
			c-0.977,0.665-1.954,1.33-2.93,1.996l0.093-0.075C263.982,94.643,262.951,95.334,261.92,96.025z M427.678,264.833
			c0.284,0.034,0.568,0.067,0.853,0.102c2.229,7.545,4.459,15.089,6.783,22.952c1.447-0.069,2.833-0.135,4.256-0.203
			c2.329-13.395,4.589-26.404,6.856-39.448c-3.983-0.308-4.042-0.317-4.53,2.6c-1.016,6.06-1.936,12.135-2.948,18.194
			c-0.572,3.427-1.25,6.836-1.88,10.253c-2.442-6.022-4.167-11.9-5.9-17.778c-0.489-1.657-0.274-3.739-3.013-3.79
			c-2.697-0.049-2.678,1.957-3.171,3.63c-1.806,6.124-3.589,12.252-5.678,19.393c-0.59-3.027-1.023-4.968-1.342-6.928
			c-1.254-7.699-2.556-15.392-3.662-23.111c-0.422-2.945-1.743-3.512-4.626-2.358c2.272,13.102,4.533,26.133,6.832,39.385
			c1.432,0.074,2.693,0.139,4.237,0.219c1.148-3.94,2.227-7.733,3.361-11.511C425.268,272.557,426.485,268.699,427.678,264.833z
			 M508.302,283.432c7.991,8.891,18.756,4.366,22.242-2.228c4.644-8.786,4.937-17.889,0.228-26.757
			c-3.516-6.621-10.842-9.17-17.948-6.74c-1.203,0.411-2.399,0.843-3.995,1.405c0-5.04-0.096-9.688,0.035-14.33
			c0.079-2.809-1.021-3.556-3.695-2.621c-1.123,18.479,1.337,37.072-1.789,55.462C508.25,289.688,506.384,284.475,508.302,283.432z
			 M347.982,249.378c-14.577-6.923-23.359,2.322-24.602,12.283c-0.624,4.997-0.277,10.37,0.887,15.274
			c1.827,7.7,8.172,12.079,15.536,11.032c3.168-0.45,6.09-2.629,9.208-4.061c0.868,1.303-0.053,5.532,3.862,3.877
			c-0.358-6.269-0.913-12.209-0.994-18.155c-0.156-11.488-0.07-22.98-0.028-34.471c0.01-2.685-0.509-4.351-3.869-2.542
			C347.982,237.95,347.982,243.42,347.982,249.378z M620.858,281.116c-14.909,8.341-24.757,2.725-24.329-13.024
			c8.689,0,17.406,0,26.976,0c-0.82-4.321-1.174-8.107-2.296-11.65c-1.736-5.48-5.484-9.003-11.494-9.537
			c-6.215-0.552-11.25,1.658-14.171,7.202c-4.717,8.95-4.822,18.15-0.049,27.156c2.04,3.849,5.332,6.346,9.831,6.803
			c5.919,0.602,11.543-0.331,16.949-3.46C621.825,283.499,621.415,282.487,620.858,281.116z M820.127,268.024
			c9.086,0,17.814,0,27.343,0c-0.85-4.298-1.226-8.1-2.389-11.643c-1.786-5.437-5.469-9.026-11.538-9.499
			c-6.457-0.502-11.531,1.929-14.412,7.717c-4.238,8.515-4.365,17.292-0.201,25.923c1.981,4.105,5.267,6.912,9.921,7.484
			c6.074,0.748,11.889-0.185,17.4-3.503c-0.522-1.113-0.999-2.128-1.473-3.137C828.432,288.484,821.09,284.687,820.127,268.024z
			 M489.281,268.162c-0.808-4.129-1.222-7.707-2.236-11.107c-1.694-5.674-5.286-9.54-11.539-10.136
			c-6.65-0.633-11.807,1.917-14.727,7.939c-4.154,8.566-4.081,17.311,0.059,25.911c1.741,3.615,4.652,6.286,8.575,7.011
			c6.497,1.2,12.786,0.287,18.745-3.374c-0.651-1.159-1.186-2.113-1.708-3.043c-16.422,6.924-25.224,2.231-24.186-13.201
			C470.95,268.162,479.679,268.162,489.281,268.162z M34.99,287.271c3.255,0.753,3.935-0.499,3.909-2.807
			c-0.071-6.332,0.06-12.666-0.056-18.995c-0.066-3.646-0.106-7.353-0.777-10.915c-1.259-6.685-6.306-9.498-12.621-6.859
			c-2.783,1.163-5.116,3.496-7.497,5.485c-1.038,0.866-1.681,2.204-2.703,3.601c-0.43-2.787-0.875-5.077-1.118-7.39
			c-0.299-2.854-1.75-2.607-3.023-2.036c0.434,13.705,0.853,26.914,1.272,40.181c3.356-0.724,3.451-0.723,3.481-3.14
			c0.065-5.165-0.36-10.368,0.144-15.484c0.398-4.048,1.24-8.324,3.092-11.869c1.4-2.68,4.419-4.929,7.233-6.351
			c3.757-1.898,6.891-0.093,7.932,4.07c0.596,2.383,0.678,4.936,0.702,7.414C35.04,270.478,34.99,278.781,34.99,287.271z
			 M303.931,248.374c0,5.322,0.184,10.792-0.047,16.244c-0.279,6.579-1.488,12.952-6.729,17.661
			c-2.453,2.205-5.379,3.671-8.658,2.195c-2.938-1.321-3.438-4.278-3.595-7.186c-0.09-1.659-0.054-3.326-0.055-4.99
			c-0.005-7.155-0.054-14.312,0.022-21.466c0.029-2.735-0.952-3.644-3.909-2.435c0,1.73,0,3.534,0,5.338
			c0.001,7.987-0.2,15.981,0.057,23.961c0.306,9.498,7.039,12.801,14.593,9.126c2.426-1.181,4.258-3.604,6.312-5.514
			c0.737-0.686,1.327-1.529,2.203-2.559c1.867,8.251,1.867,8.251,4.657,8.438c-0.315-4.946-0.794-9.865-0.901-14.791
			c-0.155-7.152-0.095-14.311-0.013-21.466C307.899,248.289,307.073,247.168,303.931,248.374z M233.4,267.429
			c0.918,4.111,1.313,8.158,2.752,11.79c2.16,5.449,6.173,8.821,12.527,8.972c6.425,0.152,11.07-2.542,13.509-8.286
			c3.524-8.304,3.618-16.823-0.216-25.109c-2.564-5.542-7.158-8.103-13.248-7.946c-5.984,0.153-10.184,3.251-12.307,8.591
			C234.91,259.232,234.374,263.41,233.4,267.429z M100.979,248.379c3.969,6.039,7.859,11.959,11.688,17.786
			c-5.083,7.141-9.926,13.945-14.947,21c3.375,0.975,5.221,0.164,6.6-2.203c1.337-2.295,2.888-4.468,4.379-6.672
			c1.981-2.929,3.995-5.836,6.3-9.198c3.884,5.808,7.323,10.886,10.69,16.01c1.545,2.353,3.347,3.388,6.289,1.723
			c-5.027-7.059-9.923-13.934-14.866-20.874c3.88-5.963,7.644-11.746,11.538-17.729c-5.567-1.575-5.891,3.168-7.794,5.605
			c-2.087,2.675-3.753,5.678-5.924,9.033c-3.095-4.721-5.828-8.666-8.308-12.764C105.262,247.846,103.669,247.245,100.979,248.379z
			 M699.31,287.793c4.13-13.337,8.178-26.415,12.293-39.706c-2.801-0.631-4.217-0.423-5.018,2.592
			c-1.957,7.365-4.417,14.599-6.71,21.874c-0.802,2.546-1.704,5.059-2.877,8.524c-0.66-1.607-0.938-2.158-1.117-2.739
			c-2.778-9.03-5.535-18.065-8.316-27.094c-0.706-2.291-1.439-4.629-5.082-2.774c4.044,13.055,8.099,26.145,12.181,39.323
			C696.204,287.793,697.504,287.793,699.31,287.793z M885.939,253.91c1.346-1.584,1.936-2.803-0.183-4.114
			c-4.305-2.666-8.962-3.83-13.813-2.545c-3.982,1.057-7.239,3.498-7.999,7.985c-0.796,4.698,0.969,8.061,5.568,10.652
			c2.015,1.134,4.204,1.958,6.315,2.918c1.658,0.754,3.404,1.36,4.964,2.282c3.197,1.893,4.686,5.312,3.879,8.423
			c-0.881,3.392-3.892,5.566-7.959,5.406c-1.782-0.07-3.686-0.41-5.281-1.164c-2.662-1.258-5.12-2.945-7.966-4.631
			c-0.527,0.979-1.084,2.012-1.775,3.295c2.316,1.381,4.168,2.999,6.313,3.644c3.43,1.031,7.052,1.924,10.6,1.953
			c4.958,0.04,8.989-3.686,9.996-8.225c0.963-4.339-0.997-8.992-5.291-11.398c-3.164-1.774-6.655-2.956-9.94-4.523
			c-5.004-2.388-6.75-5.627-5.179-9.33c1.531-3.612,6.001-5.286,10.644-3.749C881.152,251.557,883.333,252.749,885.939,253.91z
			 M572.506,253.792c1.446-1.473,1.856-2.701-0.228-3.984c-3.504-2.157-7.224-3.26-11.348-2.938
			c-5.131,0.398-9.303,3.55-10.387,7.876c-1.159,4.625,0.815,8.616,5.95,11.335c2.916,1.545,6.237,2.384,9.014,4.118
			c2.112,1.32,4.509,3.25,5.287,5.438c2.129,5.991-3.343,10.964-10.035,9.021c-3.709-1.076-7.066-3.361-10.659-5.14
			c-1.933,2.536-2.013,2.651,0.153,4.143c3.877,2.668,8.023,4.621,12.924,4.549c5.86-0.087,10.443-2.939,11.672-7.475
			c1.503-5.55-0.641-10.165-6.356-13.106c-3.087-1.589-6.426-2.686-9.515-4.271c-4.262-2.187-5.591-4.945-4.382-8.326
			c1.271-3.553,5.299-5.766,9.338-4.671C566.77,251.131,569.432,252.536,572.506,253.792z M799.97,278.64
			c-1.75,1.595-2.895,2.823-4.219,3.81c-5.836,4.347-13.277,3.13-16.726-3.251c-4.126-7.636-4.226-15.749-0.055-23.407
			c3.759-6.899,12.266-7.58,17.689-1.826c0.898,0.953,1.704,1.995,2.767,3.248c1.049-0.942,1.938-1.742,2.861-2.571
			c-4.409-6.565-10.278-9.056-17.479-7.415c-6.946,1.583-10.655,6.758-11.716,13.446c-0.69,4.354-0.663,8.952-0.129,13.342
			c0.824,6.785,4.479,11.992,11.352,13.708c6.975,1.742,13.162-0.014,18.032-6.624C801.553,280.276,800.772,279.471,799.97,278.64z
			 M175.468,254.88c-4.2-6.332-9.618-8.932-16.54-7.818c-6.639,1.067-10.448,5.461-12.302,11.667
			c-1.805,6.043-1.808,12.119,0.084,18.171c1.838,5.877,5.571,9.902,11.71,11.007c6.686,1.203,12.443-0.561,16.704-6.571
			c-0.938-0.812-1.753-1.515-2.608-2.253c-0.817,0.772-1.409,1.355-2.024,1.911c-7.63,6.893-16.797,4.579-20.026-5.151
			c-1.83-5.518-1.836-11.16-0.06-16.694c1.462-4.555,4.351-7.854,9.258-8.871c4.879-1.01,8.344,1.323,11.161,4.981
			c0.497,0.646,0.827,1.42,1.227,2.124C173.525,256.303,174.301,255.734,175.468,254.88z M641.441,247.362
			c0.274,8.258,0.584,16.058,0.772,23.86c0.108,4.495,0.049,8.993,0.011,13.488c-0.023,2.828,1.274,3.343,3.926,2.389
			c0-5.306-0.121-10.455,0.029-15.598c0.21-7.159,1.609-14.028,7.56-18.767c1.747-1.391,4.55-2.404,6.679-2.13
			c2.843,0.366,3.072,3.512,3.475,5.991c0.124,0.769,0.242,1.538,0.396,2.521c1.365-0.251,2.425-0.445,3.756-0.69
			c-0.371-1.932-0.557-3.583-1.016-5.153c-1.622-5.563-5.852-8.09-11.072-5.896c-2.754,1.157-4.955,3.711-7.273,5.781
			c-0.959,0.855-1.572,2.1-2.645,3.585c-0.441-2.636-0.986-4.592-1.046-6.563C644.915,247.585,644.067,246.455,641.441,247.362z
			 M203.096,234.974c0,17.874,0,35.082,0,52.287c4.322,1.061,3.754-1.75,3.757-3.972c0.017-15.943,0.016-31.886-0.007-47.829
			c-0.001-1.11-0.228-2.222-0.384-3.653c-4.53,0-8.827-0.072-13.116,0.075c-0.678,0.022-1.322,1.039-1.982,1.597
			c0.702,0.498,1.382,1.386,2.109,1.427C196.427,235.069,199.396,234.974,203.096,234.974z M740.982,250.908
			c0,12.528,0,24.461,0,36.306c3.716,1.148,3.86-0.862,3.848-3.307c-0.053-9.998-0.022-19.997-0.022-29.996c0-1.942,0-3.886,0-6.171
			c-4.736,0-8.88,0.009-13.023-0.004c-2.156-0.008-3.054,0.782-2.028,3.172C733.298,250.908,736.765,250.908,740.982,250.908z
			 M72.735,247.802c-4.38,0-8.507-0.068-12.627,0.063c-0.745,0.023-1.463,0.867-2.193,1.333c0.753,0.591,1.475,1.637,2.267,1.693
			c2.908,0.204,5.838,0.081,8.924,0.081c0,2.565,0,4.392,0,6.217c0,8.989-0.037,17.979,0.021,26.968
			c0.021,3.204,0.125,3.203,3.609,2.788C72.735,274.031,72.735,261.117,72.735,247.802z M383.677,288.636
			c2.933-0.037,5.353-2.529,5.234-5.391c-0.11-2.663-2.446-5.064-5.026-5.168c-2.771-0.11-5.443,2.422-5.514,5.226
			C378.298,286.183,380.774,288.673,383.677,288.636z M746.805,236.482c-0.052-2.553-2.002-4.578-4.156-4.334
			c-2.374,0.269-3.985,1.587-3.913,4.197c0.071,2.571,1.438,3.925,4.078,3.84C745.423,240.102,746.631,238.629,746.805,236.482z
			 M71.214,240.141c2.591-0.104,4.002-1.663,3.778-4.177c-0.215-2.403-1.771-3.534-3.942-3.742
			c-2.196-0.211-4.097,1.859-4.054,4.123C67.043,238.849,68.595,240.246,71.214,240.141z"/>
		<path fill-rule="evenodd" clip-rule="evenodd" fill="none" d="M159.939,76.874c0.694,1.744,1.388,3.488,2.082,5.233
			c0.306,1.255,0.612,2.511,0.918,3.766c2.028,4.41,4.055,8.82,6.083,13.231c0.665,0.977,1.33,1.954,1.995,2.931l-0.075-0.093
			c0.666,0.977,1.331,1.953,1.996,2.93c1.052,1.052,2.105,2.105,3.158,3.157c1.31,0.999,2.62,1.997,3.93,2.996l-0.084-0.083
			c0.044,2.726,2.175,2.616,3.99,2.937c0.721,0.383,1.442,0.767,2.164,1.149c1.611,0.617,3.222,1.234,4.834,1.851
			c1.055,0.383,2.11,0.766,3.166,1.148c7.419,2.912,15.055,2.238,22.7,1.347c0.092-0.011,0.155-0.275,0.231-0.42l-0.101,0.068
			c3.976-0.186,6.791-1.976,8.095-5.855c1.142,0.604,2.298,1.183,3.422,1.818c5.389,3.046,10.77,6.107,16.152,9.163
			c3.774,2.315,7.547,4.63,11.321,6.945c1.808,0.636,2.902,3.325,5.431,1.89l0.492-0.038c0.003,3.374,3.254,3.062,5.025,4.428
			c0.598,1.295,1.174,2.601,1.798,3.883c2.601,5.351,3.019,10.78,1.491,16.608c-0.94,3.582-0.847,7.436-1.218,11.166
			c0,0,0.068-0.1,0.068-0.1c-2.664,4.645-5.329,9.288-7.993,13.933c-0.384,0.72-0.767,1.44-1.15,2.161
			c-1.283,1.612-2.566,3.226-3.849,4.838c-1.385,1.385-2.771,2.771-4.156,4.156c-4.301,2.958-8.602,5.915-12.903,8.873
			c-54.949,0.016-109.898,0.03-164.847,0.045c-0.037-2.151-0.141-4.303-0.099-6.452c0.17-8.524-0.282-16.972-1.926-25.383
			c-0.889-4.553-0.953-9.269-1.389-13.91c0.414-0.253,0.827-0.506,1.24-0.759c7.126,3.434,13.332,8.48,20.159,12.437
			c-2.605,3.819-5.211,7.638-8.362,12.257c1.765-0.287,2.441-0.255,2.987-0.507c5.106-2.354,10.205-4.728,15.278-7.152
			c4.746-2.269,10.995-2.497,12.577-9.15c0.052-0.218,0.654-0.261,0.809-0.506c2.541-4.017,5.109-8.016,7.545-12.094
			c1.626-2.724,2.923-5.646,4.598-8.336c3.042-4.887,6.27-9.658,9.396-14.492c2.822-4.362,5.764-8.656,8.367-13.146
			c1.807-3.116,3.129-6.512,4.668-9.784c0.576-0.357,1.153-0.715,1.729-1.072c-0.2-0.2-0.399-0.399-0.599-0.599
			c-0.357,0.577-0.715,1.153-1.072,1.73c-0.961,0.153-2.111,0.021-2.852,0.509c-3.022,1.991-5.847,4.281-8.878,6.257
			c-5.071,3.306-10.232,6.473-15.379,9.662c-2.14,1.326-4.218,2.894-6.548,3.732c-2.147,0.772-3.254,2.306-4.486,3.901
			c-2.898-0.365-5.873-0.432-8.68-1.151c-8.21-2.104-16.456-4.159-24.488-6.832c-5.725-1.905-11.126-4.778-16.671-7.219
			c0.339-2.294,0.678-4.587,1.017-6.881c4.033-3.579,8.089-1.682,12.348-0.334c7.135,2.258,14.398,4.196,21.639,0.173
			c3.337-3.168,4.374-7.67,1.793-11.078c-3.635-4.798-7.803-9.191-11.744-13.758c1.955-2.769,4.762-5.294,5.639-8.37
			c0.992-3.479,1.109-7.591-2.214-10.671c-1.132-1.05-1.798-2.601-2.677-3.923c0.427-3.313,0.854-6.626,1.28-9.939
			c2.711-1.291,5.055-2.925,5.718-6.127c0.66-1.319,1.32-2.639,1.981-3.958c0.058-5.927-1.438-7.563-7.143-8.042
			c-1.249-0.105-2.465-0.584-3.697-0.891c0.036-3.906-2.952,0.591-3.765-1.935c-0.157-1.304-0.389-3.242-0.742-6.176
			c-1.583,2.402-2.502,3.798-3.422,5.194c-0.982-0.397-1.963-0.795-2.945-1.193c-0.003-1.95-0.007-3.9-0.01-5.85
			c4.834-1.738,9.81-2.702,14.933-2.015c3.039,0.407,6.016,1.271,9.021,1.93l-0.1-0.069c2.699,1.023,5.398,2.046,8.098,3.069
			l-0.096-0.072c1.031,0.691,2.062,1.382,3.093,2.074l-0.094-0.074c1.338,1.304,1.436,3.872,4,3.927
			c1.052,1.052,2.104,2.104,3.156,3.157c0.643,1,1.285,1.999,1.927,2.999l-0.074-0.094c0.691,1.031,1.383,2.062,2.074,3.093
			l-0.074-0.094c0.691,1.031,1.383,2.062,2.074,3.093l-0.074-0.094c2.339,5.65,4.585,11.34,7.051,16.934
			c1.355,3.074,2.502,6.42,5.942,7.995c0.717,0.388,1.434,0.775,2.151,1.163c0.149,0.584,0.126,1.538,0.472,1.698
			c5.399,2.5,10.727,5.424,16.911,5.182C157.471,74.841,158.742,75.56,159.939,76.874z"/>
		<path fill-rule="evenodd" clip-rule="evenodd" fill="#4A4A4A" d="M92.088,168.868c-6.827-3.956-13.033-9.003-20.159-12.437
			c-0.413,0.253-0.826,0.506-1.24,0.759c0.437,4.642,0.5,9.357,1.389,13.91c1.644,8.411,2.096,16.858,1.926,25.383
			c-0.042,2.149,0.062,4.301,0.099,6.452c-5.254,0.014-10.508,0.015-15.762,0.048c-1.419,0.009-3.117-0.397-3.354,1.826
			c-9.799,0-19.597,0-30.119,0c-0.291-3.183-0.76-6.354-0.835-9.537c-0.162-6.887,0.505-13.834-1.977-20.502
			c-0.219-0.588-0.081-1.322-0.055-1.986c0.397-10.064-2.474-19.696-3.777-29.535c-1.07-8.081-2.624-16.289-0.297-24.482
			c0.264-0.927,0.084-1.988,0.065-2.985c-0.06-3.213,0.833-5.917,3.053-8.462c4.019-4.607,4.948-9.483,2.537-15.752
			c-1.771-4.606-3.849-8.049-8.003-10.431c-1.254-0.719-2.328-1.745-3.519-2.581c-6.876-4.823-3.929-16.136,2.76-19.594
			c2.208-1.142,3.202-3.814,1.688-5.635c-2.324-2.796-1.655-4.772-0.081-7.862c1.444-2.834,1.97-6.257,4.358-8.626
			c1.524-1.513,3.451-2.622,5.197-3.911c-0.071,2.178,0.27,3.735,3.102,2.597c1.03-0.414,2.334-0.649,3.392-0.416
			c7.757,1.715,16.052,0.132,23.476,3.83c-0.348,2.34-0.696,4.681-1.044,7.021c0.24,0.035,0.48,0.069,0.72,0.104
			c0.47-2.041,0.94-4.083,1.41-6.124c1.051,0.507,2.109,0.998,3.15,1.525c0.931,0.471,1.842,0.981,2.763,1.474
			c-0.357,2.669-0.714,5.339-1.072,8.008c0.215,0.018,0.43,0.037,0.645,0.055c0.507-2.02,1.014-4.039,1.521-6.059
			c1.965,1.326,3.931,2.652,5.896,3.978c-0.372,2.051-0.743,4.102-1.115,6.152c0.353,0.041,0.706,0.082,1.059,0.123
			c0.054-1.087,0.108-2.174,0.163-3.26c2.493,0.881,3.896,2.796,4.863,5.126c1.134,6.15,1.918,6.633,8.059,5.083
			c0.612-0.155,1.292-0.04,1.94-0.05c0.28,3.071,1.502,6.462,0.596,9.131c-1.072,3.158-3.417,6.654-6.212,8.291
			c-5.217,3.054-11.339,3.878-17.49,3.459c-4.94-0.336-9.882-0.647-14.824-0.97c-1.09-1.85-1.09-1.85-2.974-0.456
			c1.195,0.167,2.101,0.294,3.007,0.422c6.157,2.255,11.919,5.936,18.941,5.048c1.798-0.227,3.65-0.035,5.477-0.034
			c5.556,0.002,11.345,0.915,15.65-3.991c3.94,4.566,8.109,8.96,11.744,13.758c2.581,3.408,1.544,7.91-1.793,11.078
			c-6.805-0.55-12.077-4.344-17.549-7.941c-4.346-2.857-8.381-6.34-13.717-7.566c-5.152-1.184-9.181-0.435-11.563,3.135
			c-0.715,1.07-1.009,3.511-0.333,4.23c2.817,2.995,6.078,5.573,9.175,8.303c-0.339,2.294-0.678,4.587-1.017,6.881
			c1.187,3.771,2.591,7.489,3.51,11.324c1.393,5.81,5.916,8.336,10.574,10.835c1.767,1.621,3.498,3.285,5.313,4.85
			c1.473,1.27,2.959,2.562,4.596,3.597c4.611,2.917,9.302,5.708,13.96,8.547c1.482,2.296,3.261,4.459,4.368,6.922
			c1.317,2.932,1.507,6.441-1.004,8.643c-2.4,2.104-5.601,2.389-8.479-0.063C94.22,168.979,93.028,169.071,92.088,168.868z"/>
		<path fill-rule="evenodd" clip-rule="evenodd" fill="none" d="M261.837,132.944l-0.492,0.038
			c-1.334-1.072-2.668-2.144-4.003-3.215c-3.729-1.951-7.459-3.902-11.188-5.853c-0.848-0.677-1.638-1.444-2.552-2.015
			c-4.824-3.012-9.679-5.975-14.523-8.954c1.314-0.665,2.628-1.329,3.941-1.993l-0.099,0.069c2.804-0.573,5.985-0.148,7.933-2.993
			c1.388-0.717,2.775-1.434,4.163-2.151c1.667-0.976,3.333-1.952,5-2.927l-0.096,0.073c1.365-0.691,2.73-1.381,4.096-2.072
			l-0.095,0.074c1.698-1.025,3.396-2.049,5.094-3.073l-0.094,0.074c1.031-0.691,2.062-1.383,3.093-2.074l-0.094,0.074
			c1.031-0.691,2.062-1.382,3.093-2.074l-0.093,0.075c0.977-0.666,1.954-1.331,2.93-1.996c0.721-0.717,1.442-1.434,2.163-2.151
			c1-0.643,1.999-1.285,2.999-1.928c0,0-0.084,0.084-0.084,0.084c1.025-1.031,2.049-2.062,3.074-3.093l-0.084,0.084
			c4.579-2.143,7.94-5.503,10.083-10.083l-0.074,0.094c1.024-1.364,2.049-2.729,3.074-4.093l-0.072,0.096
			c0.69-1.366,1.381-2.731,2.071-4.096l-0.073,0.095c2.7-1.612,3.31-4.098,2.929-6.998c0.383-1.055,0.766-2.109,1.149-3.164
			c0.653-0.295,1.306-0.589,1.958-0.884c3.271,5.456,6.541,10.913,9.812,16.369c0.81,1.532,1.619,3.063,2.429,4.594
			c0.061,1.373,0.553,2.911,0.102,4.086c-1.438,3.736-3.289,7.311-4.865,10.997c-1.551,3.627-2.961,7.315-4.433,10.977
			c-3.667,6.334-7.333,12.667-11,19.002c-0.666,1.004-1.332,2.009-1.998,3.014c-4.332,2.997-8.664,5.994-12.996,8.992
			c-1.681,0.664-3.362,1.328-5.042,1.993c-0.678-0.268-1.356-0.537-2.035-0.805C265.237,134.456,263.537,133.7,261.837,132.944z"/>
		<path fill-rule="evenodd" clip-rule="evenodd" fill="#505050" d="M54.987,204.81c0.237-2.224,1.935-1.817,3.354-1.826
			c5.254-0.033,10.508-0.034,15.762-0.048c54.949-0.015,109.898-0.029,164.847-0.045c1.049,0.005,2.099,0.01,3.149,0.015
			c15.934,0.012,31.868,0.023,47.802,0.035c0.73-0.012,1.461-0.022,2.192-0.034c13.061,0.023,26.121,0.095,39.181,0.021
			c2.237-0.013,4.471-0.645,6.706-0.99c0.465,0.341,0.928,0.976,1.394,0.978c11.927,0.059,23.855,0.058,35.783,0.008
			c0.267-0.001,0.531-0.676,0.796-1.037c-0.001-0.579-0.001-1.158-0.001-1.738c1.209,0.483,2.419,0.966,4.106,1.639
			c-0.553-1.531-0.91-2.52-1.268-3.508c0.375-0.428,0.749-0.855,1.123-1.283c0.807,1.135,1.615,2.27,2.698,3.792
			c0.179-0.978,0.327-1.408,0.327-1.839c0.014-14.694,0.032-29.389-0.024-44.083c-0.004-1.031-0.564-2.06-0.867-3.089
			c0.302-4.089,0.805-8.175,0.864-12.268c0.132-9.072,0.041-18.149,0.041-27.625c-1.335,0.868-2.123,1.38-2.91,1.892
			c0.97-2.28,2.734-4.543,2.779-6.841c0.266-13.39,0.134-26.788,0.108-40.182c-0.001-0.528-0.282-1.056-0.446-1.63
			c-0.737,0.424-1.164,0.669-1.589,0.914c0.686-2.091,1.907-4.169,1.964-6.277c0.227-8.456,0.132-16.922,0.048-25.383
			c-0.011-1.154-0.634-2.302-0.974-3.454L382.006,31c0.489-2.976,0.979-5.952,1.521-9.253c1.805,3.206,2.651,147.363,1.276,182.733
			c-0.776,0.318-1.646,0.988-2.515,0.986c-69.285-0.13-138.571-0.346-207.856-0.479c-37.986-0.073-75.973-0.011-113.959-0.02
			C58.644,204.967,56.815,204.864,54.987,204.81z"/>
		<path fill-rule="evenodd" clip-rule="evenodd" fill="none" d="M181.02,61.876c-0.719,0.719-1.438,1.438-2.157,2.158
			c-0.725,0.252-1.704,0.288-2.132,0.792c-2.911,3.433-6.631,5.44-10.847,6.809c-1.426,0.462-2.641,1.576-3.953,2.392l0.098-0.07
			c-1.027-0.671-2.054-1.343-3.082-2.014l0.068,0.1c-0.355-1.701-0.711-3.401-1.067-5.101l0.067,0.102c0-2.367,0-4.734,0-7.101
			l-0.068,0.101c0.309-1.333,0.618-2.667,0.927-4c0.716-1.045,1.631-2.007,2.11-3.151c1.533-3.666,3.816-6.692,7.044-9.005
			c1-0.643,1.999-1.285,2.999-1.928l-0.098,0.07c3.509-0.325,6.889,0.051,10.003,1.857c0.385,0.386,0.77,0.772,1.155,1.157
			c0.286,4.334,0.572,8.668,0.858,13.002l0.069-0.1C182.348,59.255,181.684,60.565,181.02,61.876z"/>
		<path fill-rule="evenodd" clip-rule="evenodd" fill="#4A4A4A" d="M427.678,264.833c-1.193,3.866-2.41,7.724-3.573,11.599
			c-1.134,3.777-2.213,7.57-3.361,11.511c-1.544-0.08-2.806-0.145-4.237-0.219c-2.299-13.252-4.559-26.283-6.832-39.385
			c2.883-1.153,4.204-0.587,4.626,2.358c1.106,7.72,2.407,15.412,3.662,23.111c0.319,1.96,0.751,3.9,1.342,6.928
			c2.089-7.141,3.872-13.269,5.678-19.393c0.494-1.673,0.475-3.679,3.171-3.63c2.739,0.051,2.524,2.133,3.013,3.79
			c1.733,5.878,3.458,11.756,5.9,17.778c0.63-3.417,1.308-6.826,1.88-10.253c1.012-6.06,1.933-12.135,2.948-18.194
			c0.489-2.917,0.547-2.907,4.53-2.6c-2.267,13.044-4.528,26.054-6.856,39.448c-1.423,0.068-2.809,0.134-4.256,0.203
			c-2.324-7.863-4.554-15.407-6.783-22.952C428.247,264.9,427.962,264.867,427.678,264.833z"/>
		<path fill-rule="evenodd" clip-rule="evenodd" fill="#4A4A4A" d="M508.302,283.432c-1.918,1.043-0.052,6.257-4.923,4.191
			c3.126-18.39,0.666-36.983,1.789-55.462c2.674-0.935,3.774-0.188,3.695,2.621c-0.131,4.642-0.035,9.29-0.035,14.33
			c1.596-0.563,2.792-0.994,3.995-1.405c7.106-2.43,14.433,0.119,17.948,6.74c4.709,8.868,4.416,17.971-0.228,26.757
			C527.058,287.798,516.293,292.322,508.302,283.432z M508.83,265.907c0,3.16-0.077,6.323,0.019,9.481
			c0.124,4.072,2.884,7.807,6.573,9.121c3.44,1.225,7.694,0.07,10.308-3.111c1.241-1.512,2.375-3.285,2.965-5.129
			c1.815-5.672,1.962-11.48,0.057-17.157c-1.587-4.729-4.838-7.91-9.881-8.87c-5.643-1.074-10.029,2.546-10.041,8.179
			C508.824,260.916,508.828,263.411,508.83,265.907z"/>
		<path fill-rule="evenodd" clip-rule="evenodd" fill="#6E6E6E" d="M347.982,249.378c0-5.958,0-11.428,0-16.762
			c3.359-1.809,3.878-0.143,3.869,2.542c-0.042,11.49-0.128,22.982,0.028,34.471c0.081,5.946,0.635,11.887,0.994,18.155
			c-3.915,1.655-2.995-2.574-3.862-3.877c-3.118,1.432-6.04,3.61-9.208,4.061c-7.364,1.047-13.709-3.332-15.536-11.032
			c-1.164-4.904-1.511-10.277-0.887-15.274C324.624,251.7,333.405,242.455,347.982,249.378z M347.953,266.036
			c0-2.498,0.004-4.997,0-7.495c-0.011-5.313-0.67-6.234-5.631-7.897c-4.477-1.501-9.597,0.451-12.552,4.784
			c-4.327,6.346-4.094,19.052,0.46,25.147c2.761,3.697,7.195,5.325,10.958,4.025c3.83-1.322,6.65-5.255,6.751-9.57
			C348.009,272.033,347.953,269.034,347.953,266.036z"/>
		<path fill-rule="evenodd" clip-rule="evenodd" fill="#4A4A4A" d="M620.858,281.116c0.557,1.371,0.967,2.383,1.417,3.489
			c-5.406,3.129-11.03,4.062-16.949,3.46c-4.499-0.457-7.791-2.954-9.831-6.803c-4.773-9.006-4.668-18.206,0.049-27.156
			c2.921-5.544,7.956-7.754,14.171-7.202c6.01,0.534,9.758,4.057,11.494,9.537c1.122,3.543,1.476,7.329,2.296,11.65
			c-9.569,0-18.286,0-26.976,0C596.102,283.841,605.949,289.457,620.858,281.116z M618.901,264.794
			c0.054-8.39-4.621-14.599-10.777-14.765c-6.303-0.17-11.339,6.013-11.896,14.765C603.673,264.794,611.108,264.794,618.901,264.794
			z"/>
		<path fill-rule="evenodd" clip-rule="evenodd" fill="#4A4A4A" d="M820.127,268.024c0.963,16.662,8.305,20.46,24.651,13.343
			c0.474,1.009,0.95,2.023,1.473,3.137c-5.512,3.318-11.326,4.251-17.4,3.503c-4.654-0.572-7.939-3.379-9.921-7.484
			c-4.164-8.631-4.037-17.408,0.201-25.923c2.881-5.788,7.955-8.219,14.412-7.717c6.069,0.473,9.752,4.063,11.538,9.499
			c1.163,3.543,1.539,7.345,2.389,11.643C837.941,268.024,829.213,268.024,820.127,268.024z M842.849,264.772
			c0.026-8.438-4.605-14.591-10.789-14.743c-6.372-0.157-11.561,6.194-11.891,14.743
			C827.607,264.772,835.039,264.772,842.849,264.772z"/>
		<path fill-rule="evenodd" clip-rule="evenodd" fill="#4A4A4A" d="M489.281,268.162c-9.603,0-18.331,0-27.017,0
			c-1.038,15.433,7.764,20.125,24.186,13.201c0.522,0.93,1.057,1.884,1.708,3.043c-5.959,3.661-12.248,4.574-18.745,3.374
			c-3.923-0.725-6.834-3.396-8.575-7.011c-4.14-8.601-4.213-17.345-0.059-25.911c2.92-6.022,8.076-8.572,14.727-7.939
			c6.253,0.596,9.845,4.462,11.539,10.136C488.06,260.455,488.474,264.033,489.281,268.162z M461.985,264.602
			c7.807,0,15.33,0,22.87,0c-0.684-8.954-5.083-14.705-11.157-14.554C466.805,250.221,461.702,257.065,461.985,264.602z"/>
		<path fill-rule="evenodd" clip-rule="evenodd" fill="#6E6E6E" d="M34.99,287.271c0-8.49,0.05-16.794-0.03-25.095
			c-0.024-2.479-0.106-5.031-0.702-7.414c-1.041-4.163-4.174-5.969-7.932-4.07c-2.813,1.422-5.833,3.671-7.233,6.351
			c-1.852,3.545-2.693,7.821-3.092,11.869c-0.503,5.116-0.079,10.319-0.144,15.484c-0.03,2.417-0.125,2.416-3.481,3.14
			c-0.42-13.267-0.838-26.476-1.272-40.181c1.273-0.571,2.724-0.818,3.023,2.036c0.243,2.313,0.688,4.603,1.118,7.39
			c1.021-1.396,1.665-2.734,2.703-3.601c2.381-1.989,4.714-4.322,7.497-5.485c6.315-2.639,11.362,0.175,12.621,6.859
			c0.671,3.563,0.711,7.269,0.777,10.915c0.116,6.329-0.016,12.663,0.056,18.995C38.925,286.772,38.245,288.024,34.99,287.271z"/>
		<path fill-rule="evenodd" clip-rule="evenodd" fill="#6E6E6E" d="M303.931,248.374c3.143-1.206,3.968-0.085,3.938,2.558
			c-0.083,7.155-0.142,14.313,0.013,21.466c0.107,4.926,0.586,9.845,0.901,14.791c-2.79-0.187-2.79-0.187-4.657-8.438
			c-0.876,1.029-1.466,1.873-2.203,2.559c-2.053,1.909-3.886,4.333-6.312,5.514c-7.554,3.675-14.287,0.372-14.593-9.126
			c-0.257-7.979-0.056-15.974-0.057-23.961c0-1.804,0-3.607,0-5.338c2.958-1.209,3.938-0.301,3.909,2.435
			c-0.077,7.154-0.028,14.311-0.022,21.466c0.001,1.664-0.035,3.331,0.055,4.99c0.157,2.907,0.658,5.864,3.595,7.186
			c3.279,1.476,6.205,0.01,8.658-2.195c5.241-4.709,6.45-11.082,6.729-17.661C304.115,259.166,303.931,253.696,303.931,248.374z"/>
		<path fill-rule="evenodd" clip-rule="evenodd" fill="#6E6E6E" d="M233.4,267.429c0.973-4.019,1.51-8.196,3.017-11.989
			c2.123-5.34,6.323-8.438,12.307-8.591c6.09-0.156,10.684,2.404,13.248,7.946c3.833,8.286,3.74,16.806,0.216,25.109
			c-2.439,5.744-7.084,8.438-13.509,8.286c-6.354-0.15-10.367-3.522-12.527-8.972C234.713,275.587,234.318,271.54,233.4,267.429z
			 M261.362,267.766c-0.872-3.871-1.382-7.672-2.616-11.222c-1.514-4.356-5.061-6.544-9.642-6.479
			c-4.393,0.063-7.643,2.356-9.217,6.437c-2.857,7.404-2.879,14.93,0.1,22.311c1.641,4.065,4.82,6.134,9.32,6.188
			c4.565,0.055,7.77-2.178,9.317-6.169C259.978,275.337,260.472,271.511,261.362,267.766z"/>
		<path fill-rule="evenodd" clip-rule="evenodd" fill="#6E6E6E" d="M100.979,248.379c2.69-1.134,4.282-0.533,5.644,1.717
			c2.48,4.098,5.213,8.043,8.308,12.764c2.171-3.355,3.837-6.358,5.924-9.033c1.903-2.438,2.227-7.181,7.794-5.605
			c-3.894,5.983-7.657,11.767-11.538,17.729c4.943,6.94,9.839,13.815,14.866,20.874c-2.942,1.665-4.744,0.63-6.289-1.723
			c-3.367-5.124-6.806-10.202-10.69-16.01c-2.305,3.362-4.318,6.27-6.3,9.198c-1.491,2.204-3.042,4.377-4.379,6.672
			c-1.379,2.367-3.226,3.178-6.6,2.203c5.021-7.055,9.864-13.859,14.947-21C108.838,260.338,104.949,254.418,100.979,248.379z"/>
		<path fill-rule="evenodd" clip-rule="evenodd" fill="#4B4A4B" d="M699.31,287.793c-1.806,0-3.105,0-4.646,0
			c-4.082-13.179-8.137-26.269-12.181-39.323c3.643-1.854,4.376,0.483,5.082,2.774c2.781,9.028,5.538,18.063,8.316,27.094
			c0.179,0.581,0.457,1.132,1.117,2.739c1.173-3.466,2.075-5.979,2.877-8.524c2.293-7.275,4.753-14.509,6.71-21.874
			c0.801-3.015,2.217-3.223,5.018-2.592C707.487,261.378,703.439,274.456,699.31,287.793z"/>
		<path fill-rule="evenodd" clip-rule="evenodd" fill="#4B4B4B" d="M885.939,253.91c-2.606-1.161-4.787-2.354-7.107-3.121
			c-4.643-1.537-9.112,0.137-10.644,3.749c-1.571,3.703,0.175,6.942,5.179,9.33c3.285,1.567,6.776,2.749,9.94,4.523
			c4.294,2.406,6.254,7.06,5.291,11.398c-1.007,4.539-5.038,8.265-9.996,8.225c-3.548-0.029-7.17-0.922-10.6-1.953
			c-2.145-0.645-3.996-2.263-6.313-3.644c0.691-1.283,1.248-2.316,1.775-3.295c2.846,1.686,5.304,3.373,7.966,4.631
			c1.596,0.754,3.499,1.094,5.281,1.164c4.067,0.16,7.078-2.015,7.959-5.406c0.807-3.111-0.682-6.53-3.879-8.423
			c-1.56-0.922-3.306-1.528-4.964-2.282c-2.111-0.96-4.301-1.784-6.315-2.918c-4.6-2.592-6.364-5.954-5.568-10.652
			c0.76-4.487,4.017-6.929,7.999-7.985c4.851-1.285,9.508-0.121,13.813,2.545C887.875,251.107,887.285,252.326,885.939,253.91z"/>
		<path fill-rule="evenodd" clip-rule="evenodd" fill="#4B4B4B" d="M572.506,253.792c-3.074-1.256-5.736-2.661-8.571-3.431
			c-4.039-1.095-8.066,1.118-9.338,4.671c-1.209,3.381,0.12,6.14,4.382,8.326c3.089,1.585,6.428,2.682,9.515,4.271
			c5.716,2.941,7.859,7.557,6.356,13.106c-1.229,4.535-5.812,7.388-11.672,7.475c-4.9,0.072-9.047-1.881-12.924-4.549
			c-2.166-1.491-2.086-1.606-0.153-4.143c3.593,1.778,6.95,4.063,10.659,5.14c6.692,1.942,12.164-3.03,10.035-9.021
			c-0.778-2.188-3.175-4.118-5.287-5.438c-2.776-1.734-6.098-2.573-9.014-4.118c-5.135-2.719-7.109-6.71-5.95-11.335
			c1.084-4.326,5.256-7.478,10.387-7.876c4.124-0.321,7.844,0.781,11.348,2.938C574.362,251.091,573.952,252.319,572.506,253.792z"
			/>
		<path fill-rule="evenodd" clip-rule="evenodd" fill="#4B4B4B" d="M799.97,278.64c0.803,0.831,1.583,1.637,2.378,2.459
			c-4.87,6.61-11.058,8.366-18.032,6.624c-6.873-1.716-10.527-6.923-11.352-13.708c-0.534-4.39-0.562-8.987,0.129-13.342
			c1.061-6.688,4.77-11.863,11.716-13.446c7.201-1.641,13.07,0.85,17.479,7.415c-0.924,0.829-1.813,1.629-2.861,2.571
			c-1.063-1.253-1.868-2.295-2.767-3.248c-5.424-5.754-13.931-5.073-17.689,1.826c-4.171,7.658-4.071,15.771,0.055,23.407
			c3.448,6.381,10.89,7.598,16.726,3.251C797.075,281.463,798.22,280.234,799.97,278.64z"/>
		<path fill-rule="evenodd" clip-rule="evenodd" fill="#6E6E6E" d="M175.468,254.88c-1.167,0.854-1.943,1.423-3.416,2.502
			c-0.4-0.704-0.729-1.479-1.227-2.124c-2.817-3.658-6.281-5.991-11.161-4.981c-4.908,1.017-7.796,4.316-9.258,8.871
			c-1.777,5.534-1.771,11.177,0.06,16.694c3.229,9.73,12.396,12.044,20.026,5.151c0.616-0.556,1.208-1.139,2.024-1.911
			c0.854,0.738,1.669,1.441,2.608,2.253c-4.26,6.011-10.018,7.774-16.704,6.571c-6.139-1.104-9.873-5.13-11.71-11.007
			c-1.892-6.052-1.889-12.128-0.084-18.171c1.854-6.206,5.663-10.6,12.302-11.667C165.85,245.948,171.268,248.548,175.468,254.88z"
			/>
		<path fill-rule="evenodd" clip-rule="evenodd" fill="#6E6D6E" d="M55.951,38.939c-7.423-3.698-15.719-2.115-23.476-3.83
			c-1.057-0.234-2.361,0.001-3.392,0.416c-2.832,1.139-3.173-0.419-3.102-2.597c-1.127-3.703,2.22-5.25,4.149-5.667
			c7.844-1.692,15.863-1.945,23.792-0.164c1.072,0.241,1.991,1.169,2.98,1.78c0.022,0.715,0.044,1.431,0.066,2.146l0.049-0.068
			C56.662,33.616,56.307,36.278,55.951,38.939z"/>
		<path fill-rule="evenodd" clip-rule="evenodd" fill="#494949" d="M75.094,26.966c0.981,0.398,1.963,0.796,2.945,1.193
			c1.595,1.272,3.19,2.545,4.786,3.818c0.394,0.395,0.787,0.79,1.18,1.184c-0.01,0.271-0.022,0.542-0.036,0.812
			c-2.863,4.535-0.5,9.376,4.972,9.975c1.939,0.212,3.922,0.023,5.886,0.018c-0.663,3.203-3.006,4.836-5.718,6.127
			c-5.583,0.184-6.821-4.507-9.06-8.075c-0.558-2.13-1.116-4.261-1.9-7.252c-1.022,2.766-2.966,4.506-0.422,6.593
			c0.119,0.097-0.517,1.113-0.801,1.701c-1.957-0.322-3.915-0.643-5.872-0.965c0-1.121,0-2.24,0-3.543
			c0.967,0.741,1.702,1.305,3.361,2.576c-1.502-3.333-2.478-5.496-3.926-8.708c-0.382,2.387-0.579,3.612-0.833,5.2
			c-1.805-2.394-3.266-4.331-4.625-6.132c-1.126,0.998-2.005,1.775-2.884,2.554c-0.723-1.118-1.447-2.237-2.17-3.355
			c-0.048-0.256-0.033-0.508,0.044-0.756c1.065-0.552,2.129-1.109,3.198-1.654c1.547-0.79,3.099-1.572,4.649-2.357
			c0.749,0,1.498-0.001,2.247-0.001c0.591,0.016,1.183,0.031,1.775,0.047C72.957,26.299,74.025,26.633,75.094,26.966z"/>
		<path fill-rule="evenodd" clip-rule="evenodd" fill="#4D4C4D" d="M641.441,247.362c2.626-0.907,3.474,0.223,3.552,2.819
			c0.06,1.971,0.604,3.927,1.046,6.563c1.072-1.485,1.686-2.729,2.645-3.585c2.318-2.07,4.52-4.624,7.273-5.781
			c5.221-2.194,9.45,0.332,11.072,5.896c0.459,1.57,0.645,3.222,1.016,5.153c-1.331,0.245-2.391,0.439-3.756,0.69
			c-0.154-0.982-0.272-1.752-0.396-2.521c-0.402-2.479-0.632-5.625-3.475-5.991c-2.129-0.274-4.932,0.739-6.679,2.13
			c-5.95,4.738-7.35,11.607-7.56,18.767c-0.15,5.143-0.029,10.292-0.029,15.598c-2.651,0.954-3.949,0.439-3.926-2.389
			c0.038-4.495,0.098-8.993-0.011-13.488C642.025,263.42,641.716,255.62,641.441,247.362z"/>
		<path fill-rule="evenodd" clip-rule="evenodd" fill="#707070" d="M203.096,234.974c-3.7,0-6.669,0.096-9.625-0.068
			c-0.727-0.041-1.407-0.929-2.109-1.427c0.66-0.558,1.304-1.574,1.982-1.597c4.29-0.147,8.586-0.075,13.116-0.075
			c0.157,1.432,0.383,2.543,0.384,3.653c0.023,15.943,0.024,31.886,0.007,47.829c-0.002,2.222,0.565,5.032-3.757,3.972
			C203.096,270.056,203.096,252.848,203.096,234.974z"/>
		<path fill-rule="evenodd" clip-rule="evenodd" fill="#4D4C4D" d="M740.982,250.908c-4.218,0-7.685,0-11.227,0
			c-1.025-2.39-0.128-3.18,2.028-3.172c4.144,0.013,8.287,0.004,13.023,0.004c0,2.285,0,4.229,0,6.171
			c0,9.999-0.03,19.998,0.022,29.996c0.013,2.444-0.132,4.455-3.848,3.307C740.982,275.369,740.982,263.437,740.982,250.908z"/>
		<path fill-rule="evenodd" clip-rule="evenodd" fill="#6F6F6F" d="M72.735,247.802c0,13.315,0,26.229,0,39.143
			c-3.485,0.415-3.589,0.416-3.609-2.788c-0.057-8.989-0.02-17.979-0.021-26.968c0-1.825,0-3.651,0-6.217
			c-3.085,0-6.016,0.123-8.924-0.081c-0.792-0.057-1.513-1.103-2.267-1.693c0.73-0.466,1.449-1.31,2.193-1.333
			C64.228,247.733,68.354,247.802,72.735,247.802z"/>
		<path fill-rule="evenodd" clip-rule="evenodd" fill="#4F4E4E" d="M383.677,288.636c-2.902,0.037-5.379-2.453-5.306-5.333
			c0.071-2.804,2.744-5.336,5.514-5.226c2.58,0.104,4.916,2.505,5.026,5.168C389.029,286.106,386.609,288.599,383.677,288.636z"/>
		<path fill-rule="evenodd" clip-rule="evenodd" fill="#707070" d="M296.963,55.994c-0.653,0.295-1.306,0.589-1.958,0.884
			c0.25-1.246,0.5-2.492,0.75-3.738c0.425-0.417,0.85-0.833,1.275-1.249c4.214,0.353,8.443,1.114,12.637,0.951
			c4.864-0.19,9.679-1.515,14.546-1.768c7.725-0.401,15.08-2.354,22.456-4.38c1.393-0.383,2.875-0.445,4.315-0.655l-0.056-0.085
			c-9.99,5.153-21.03,5.646-31.841,6.967c-6.171,0.754-12.436,0.735-18.654,1.136c-0.522,0.034-1.008,0.616-1.512,0.943
			C297.789,54.387,296.809,54.075,296.963,55.994z"/>
		<path fill-rule="evenodd" clip-rule="evenodd" fill="#4E4E4E" d="M746.805,236.482c-0.174,2.146-1.382,3.619-3.991,3.703
			c-2.641,0.085-4.007-1.269-4.078-3.84c-0.072-2.61,1.539-3.929,3.913-4.197C744.803,231.904,746.753,233.93,746.805,236.482z"/>
		<path fill-rule="evenodd" clip-rule="evenodd" fill="#727171" d="M71.214,240.141c-2.619,0.105-4.171-1.292-4.218-3.796
			c-0.043-2.264,1.858-4.334,4.054-4.123c2.171,0.208,3.727,1.339,3.942,3.742C75.216,238.478,73.805,240.037,71.214,240.141z"/>
		<path fill-rule="evenodd" clip-rule="evenodd" fill="#6F7070" d="M135.941,66.876c-3.44-1.575-4.587-4.92-5.942-7.995
			c-2.466-5.594-4.712-11.284-7.051-16.934c1.621,2.537,3.808,4.882,4.743,7.65c1.98,5.866,4.287,11.463,8.215,16.308
			C136.068,66.106,135.936,66.547,135.941,66.876z"/>
		<path fill-rule="evenodd" clip-rule="evenodd" fill="#6F7070" d="M158.946,71.942c1.028,0.671,2.055,1.342,3.082,2.014
			c-0.696,0.973-1.392,1.945-2.089,2.918c-1.197-1.313-2.468-2.032-4.464-1.955c-6.185,0.242-11.512-2.682-16.911-5.182
			c-0.345-0.16-0.323-1.114-0.472-1.698c4.812,1.913,9.532,4.147,14.484,5.577C154.472,74.164,157.753,75.857,158.946,71.942z"/>
		<path fill-rule="evenodd" clip-rule="evenodd" fill="#6F7070" d="M356.005,45.036c0.873-0.635,1.666-1.456,2.632-1.876
			c7.099-3.084,14.233-6.089,21.355-9.118l-0.082-0.079c-0.031,0.496,0.112,1.315-0.119,1.44
			c-7.587,4.093-15.152,8.266-23.865,9.549L356.005,45.036z"/>
		<path fill-rule="evenodd" clip-rule="evenodd" fill="#6F7070" d="M99.038,21.032c-3.005-0.659-5.983-1.523-9.021-1.93
			c-5.124-0.687-10.099,0.276-14.933,2.015c0-0.412,0-0.824,0-1.236C83.219,17.128,91.233,16.91,99.038,21.032z"/>
		<path fill-rule="evenodd" clip-rule="evenodd" fill="#6F7070" d="M161.93,74.026c1.312-0.816,2.527-1.929,3.953-2.392
			c4.216-1.369,7.937-3.375,10.847-6.809c0.428-0.503,1.407-0.54,2.132-0.792C174.945,70.292,168.646,72.51,161.93,74.026z"/>
		<path fill-rule="evenodd" clip-rule="evenodd" fill="#6F7070" d="M217.024,118.952c-0.076,0.146-0.139,0.41-0.231,0.42
			c-7.645,0.891-15.281,1.564-22.7-1.347C201.737,118.334,209.381,118.644,217.024,118.952z"/>
		<path fill-rule="evenodd" clip-rule="evenodd" fill="#6F7070" d="M286.001,74.944c-2.143,4.579-5.504,7.94-10.083,10.083
			C279.279,81.666,282.64,78.305,286.001,74.944z"/>
		<path fill-rule="evenodd" clip-rule="evenodd" fill="#343334" d="M75.083,19.88c0,0.412,0,0.824,0,1.236
			c0.003,1.95,0.007,3.9,0.01,5.85c-1.068-0.333-2.137-0.667-3.205-1.001c0.337-1.28,0.675-2.561,1.013-3.842
			c-0.001-0.416-0.002-0.831-0.003-1.246c0.543-1.221,1.087-2.442,1.822-4.094C74.874,18.082,74.979,18.981,75.083,19.88z"/>
		<path fill-rule="evenodd" clip-rule="evenodd" fill="#6F7070" d="M225.019,113.166c-1.304,3.879-4.119,5.669-8.095,5.855
			c3.266-2.129,6.791-4.002,8.052-8.119c-0.002,0.358-0.004,0.717-0.006,1.076C224.986,112.374,225.002,112.77,225.019,113.166z"/>
		<path fill-rule="evenodd" clip-rule="evenodd" fill="#6F7070" d="M182.944,58.044c-0.286-4.334-0.572-8.668-0.858-13.002
			C185.061,49.199,184.541,53.586,182.944,58.044z"/>
		<path fill-rule="evenodd" clip-rule="evenodd" fill="#6F7070" d="M180.93,43.885c-3.114-1.806-6.494-2.182-10.003-1.857
			C175.632,40.06,177.984,40.497,180.93,43.885z"/>
		<path fill-rule="evenodd" clip-rule="evenodd" fill="#6F7070" d="M240.854,108.028c-1.947,2.844-5.128,2.42-7.933,2.993
			C235.566,110.023,238.21,109.026,240.854,108.028z"/>
		<path fill-rule="evenodd" clip-rule="evenodd" fill="#6F7070" d="M72.899,20.877c0.001,0.416,0.002,0.831,0.003,1.246
			c-0.929,1.265-1.859,2.53-2.788,3.795c-0.749,0-1.499,0-2.247,0.001C69.544,24.239,71.222,22.558,72.899,20.877z"/>
		<path fill-rule="evenodd" clip-rule="evenodd" fill="#6F7070" d="M107.036,24.032c-2.7-1.023-5.399-2.046-8.098-3.069
			C102.114,20.729,104.745,21.932,107.036,24.032z"/>
		<path fill-rule="evenodd" clip-rule="evenodd" fill="#6F7070" d="M293.855,60.042c0.381,2.9-0.229,5.386-2.929,6.998
			C291.903,64.707,292.879,62.374,293.855,60.042z"/>
		<path fill-rule="evenodd" clip-rule="evenodd" fill="#737373" d="M224.97,111.978c0.002-0.358,0.004-0.717,0.006-1.076
			c2.682,0.017,5.363,0.033,8.044,0.05c-1.313,0.664-2.627,1.329-3.941,1.993C227.709,112.622,226.34,112.3,224.97,111.978z"/>
		<path fill-rule="evenodd" clip-rule="evenodd" fill="#343334" d="M60.02,29.931c-0.078,0.249-0.093,0.5-0.044,0.756
			c-1.002,0.112-2.004,0.224-3.006,0.336c-0.022-0.715-0.044-1.431-0.066-2.146c0.122-0.603,0.244-1.206,0.444-2.196
			C58.412,27.976,59.216,28.954,60.02,29.931z"/>
		<path fill-rule="evenodd" clip-rule="evenodd" fill="#6F7070" d="M259.015,97.951c-1.698,1.024-3.396,2.048-5.094,3.073
			C255.619,100,257.317,98.976,259.015,97.951z"/>
		<path fill-rule="evenodd" clip-rule="evenodd" fill="#6F7070" d="M113.938,29.887c-2.564-0.056-2.661-2.623-4-3.927
			C112.748,25.766,112.932,28.245,113.938,29.887z"/>
		<path fill-rule="evenodd" clip-rule="evenodd" fill="#6F7070" d="M250.016,102.95c-1.667,0.976-3.333,1.951-5,2.927
			C246.683,104.901,248.35,103.926,250.016,102.95z"/>
		<path fill-rule="evenodd" clip-rule="evenodd" fill="#6F7070" d="M158.014,59.942c0,2.367,0,4.733,0,7.101
			C156.33,64.675,156.33,62.309,158.014,59.942z"/>
		<path fill-rule="evenodd" clip-rule="evenodd" fill="#6F7070" d="M183.93,113.876c-1.815-0.32-3.946-0.211-3.99-2.937
			C181.27,111.918,182.6,112.897,183.93,113.876z"/>
		<path fill-rule="evenodd" clip-rule="evenodd" fill="#505050" d="M297.029,51.89c-0.425,0.417-0.85,0.833-1.275,1.249
			c-0.575-0.894-1.149-1.788-1.724-2.682c0.241-0.239,0.481-0.478,0.721-0.717C295.51,50.457,296.27,51.173,297.029,51.89z"/>
		<path fill-rule="evenodd" clip-rule="evenodd" fill="#6F7070" d="M289.001,70.944c-1.025,1.364-2.049,2.729-3.074,4.093
			C286.952,73.673,287.976,72.309,289.001,70.944z"/>
		<path fill-rule="evenodd" clip-rule="evenodd" fill="#6F7070" d="M190.928,116.877c-1.612-0.617-3.223-1.234-4.834-1.851
			C187.705,115.643,189.316,116.26,190.928,116.877z"/>
		<path fill-rule="evenodd" clip-rule="evenodd" fill="#6F7070" d="M180.024,111.023c-1.311-0.999-2.621-1.997-3.93-2.996
			C177.404,109.026,178.714,110.025,180.024,111.023z"/>
		<path fill-rule="evenodd" clip-rule="evenodd" fill="#6F7070" d="M181.02,61.876c0.664-1.311,1.329-2.621,1.993-3.932
			C182.348,59.255,181.684,60.565,181.02,61.876z"/>
		<path fill-rule="evenodd" clip-rule="evenodd" fill="#6F7070" d="M350.983,46.038c1.674-0.333,3.348-0.667,5.022-1.001
			l-0.078-0.084c-1.667,0.333-3.334,0.667-5,1L350.983,46.038z"/>
		<path fill-rule="evenodd" clip-rule="evenodd" fill="#6F7070" d="M254.016,100.951c-1.366,0.691-2.731,1.381-4.096,2.072
			C251.285,102.332,252.65,101.642,254.016,100.951z"/>
		<path fill-rule="evenodd" clip-rule="evenodd" fill="#6F7070" d="M276.002,84.942c-1.024,1.031-2.049,2.063-3.074,3.093
			C273.954,87.005,274.978,85.974,276.002,84.942z"/>
		<path fill-rule="evenodd" clip-rule="evenodd" fill="#6F7070" d="M291,66.944c-0.69,1.365-1.381,2.73-2.071,4.096
			C289.619,69.675,290.31,68.309,291,66.944z"/>
		<path fill-rule="evenodd" clip-rule="evenodd" fill="#6F7070" d="M157.946,66.941c0.356,1.7,0.712,3.4,1.067,5.101
			C158.658,70.341,158.302,68.641,157.946,66.941z"/>
		<path fill-rule="evenodd" clip-rule="evenodd" fill="#6F7070" d="M158.872,56.042c-0.309,1.333-0.618,2.667-0.927,4
			C158.254,58.709,158.563,57.375,158.872,56.042z"/>
		<path fill-rule="evenodd" clip-rule="evenodd" fill="#6F7070" d="M267.851,92.03c-0.977,0.665-1.954,1.33-2.93,1.996
			C265.897,93.36,266.874,92.695,267.851,92.03z"/>
		<path fill-rule="evenodd" clip-rule="evenodd" fill="#6F7070" d="M110.033,26.034c-1.031-0.691-2.063-1.382-3.093-2.074
			C107.971,24.651,109.002,25.342,110.033,26.034z"/>
		<path fill-rule="evenodd" clip-rule="evenodd" fill="#6F7070" d="M119.022,36.042c-0.642-1-1.285-2-1.927-2.999
			C117.737,34.043,118.38,35.042,119.022,36.042z"/>
		<path fill-rule="evenodd" clip-rule="evenodd" fill="#6F7070" d="M162.938,85.873c-0.306-1.255-0.612-2.511-0.918-3.766
			C162.327,83.362,162.632,84.617,162.938,85.873z"/>
		<path fill-rule="evenodd" clip-rule="evenodd" fill="#6F7070" d="M273.013,87.952c-1,0.643-2,1.285-2.999,1.928
			C271.013,89.237,272.013,88.594,273.013,87.952z"/>
		<path fill-rule="evenodd" clip-rule="evenodd" fill="#6F7070" d="M171.025,41.958c-1,0.643-1.999,1.285-2.999,1.928
			C169.026,43.243,170.025,42.6,171.025,41.958z"/>
		<path fill-rule="evenodd" clip-rule="evenodd" fill="#6F7070" d="M123.021,42.042c-0.691-1.031-1.382-2.062-2.074-3.093
			C121.639,39.979,122.331,41.01,123.021,42.042z"/>
		<path fill-rule="evenodd" clip-rule="evenodd" fill="#6F7070" d="M121.022,39.042c-0.691-1.031-1.383-2.062-2.074-3.093
			C119.639,36.98,120.331,38.011,121.022,39.042z"/>
		<path fill-rule="evenodd" clip-rule="evenodd" fill="#6F7070" d="M379.993,34.042c0.671-1.013,1.342-2.027,2.013-3.041
			c0,0-0.073-0.079-0.073-0.079c-0.674,1.014-1.348,2.027-2.021,3.041L379.993,34.042z"/>
		<path fill-rule="evenodd" clip-rule="evenodd" fill="#6F7070" d="M171.016,102.034c-0.665-0.977-1.33-1.954-1.995-2.931
			C169.686,100.08,170.351,101.057,171.016,102.034z"/>
		<path fill-rule="evenodd" clip-rule="evenodd" fill="#6F7070" d="M172.937,104.871c-0.665-0.977-1.33-1.954-1.996-2.93
			C171.606,102.917,172.271,103.894,172.937,104.871z"/>
		<path fill-rule="evenodd" clip-rule="evenodd" fill="#6F7070" d="M262.014,95.951c-1.031,0.691-2.063,1.383-3.093,2.074
			C259.952,97.333,260.983,96.642,262.014,95.951z"/>
		<path fill-rule="evenodd" clip-rule="evenodd" fill="#6F7070" d="M265.014,93.951c-1.031,0.691-2.063,1.383-3.093,2.074
			C262.951,95.334,263.982,94.643,265.014,93.951z"/>
		<path fill-rule="evenodd" clip-rule="evenodd" fill="none" d="M289.902,202.94c-15.934-0.012-31.868-0.023-47.802-0.035
			c0.645-0.649,1.259-1.331,1.939-1.941c2.594-2.327,5.208-4.633,7.814-6.946c1.386-1.386,2.771-2.771,4.156-4.156
			c1.283-1.612,2.566-3.226,3.849-4.838c0.383-0.721,0.767-1.441,1.15-2.161c3.721-4.038,7.251-8.186,7.993-13.933l-0.069,0.1
			c0.391-1.49,0.766-2.986,1.176-4.473c2.263-8.195,2.977-16.379-0.131-24.544c4.859,2.719,9.729,5.422,14.577,8.163
			c5.806,3.283,11.593,6.599,17.388,9.9c2.019,1.983,4.037,3.968,6.055,5.952l-0.07-0.099c0.031,0.995-0.152,2.055,0.128,2.974
			c1.915,6.289,1.204,12.228-2.033,17.93c-0.545,0.962-0.74,2.123-1.097,3.192l0.074-0.095c-0.691,1.031-1.383,2.063-2.074,3.093
			l0.074-0.093c-1.665,1.976-3.33,3.953-4.995,5.93c-0.718,0.72-1.438,1.438-2.156,2.157
			C293.866,200.324,291.883,201.633,289.902,202.94z"/>
		<path fill-rule="evenodd" clip-rule="evenodd" fill="#B5B5B5" d="M92.088,168.868c0.94,0.203,2.132,0.111,2.778,0.661
			c2.879,2.452,6.08,2.168,8.479,0.063c2.511-2.201,2.321-5.711,1.004-8.643c-1.107-2.463-2.886-4.626-4.368-6.922
			c0.1-0.805,0.02-1.688,0.333-2.397c1.15-2.601,2.432-5.142,3.664-7.706c1.454-1.687,3.246-3.19,4.281-5.104
			c1.491-2.758,2.432-5.815,3.608-8.744c1.232-1.595,2.339-3.129,4.486-3.901c2.33-0.838,4.408-2.406,6.548-3.732
			c5.146-3.189,10.308-6.356,15.379-9.662c3.031-1.976,5.856-4.266,8.878-6.257c0.741-0.488,1.89-0.356,2.852-0.509l-0.059-0.059
			c-1.539,3.271-2.862,6.668-4.668,9.784c-2.604,4.49-5.545,8.784-8.367,13.146c-3.127,4.834-6.354,9.605-9.396,14.492
			c-1.674,2.689-2.971,5.612-4.598,8.336c-2.436,4.078-5.004,8.077-7.545,12.094c-0.155,0.245-0.757,0.288-0.809,0.506
			c-1.582,6.653-7.831,6.882-12.577,9.15c-5.073,2.425-10.171,4.799-15.278,7.152c-0.546,0.252-1.223,0.22-2.987,0.507
			C86.877,176.506,89.482,172.688,92.088,168.868z"/>
		<path fill-rule="evenodd" clip-rule="evenodd" fill="#3C3C3B" d="M111.867,130.077c-1.176,2.929-2.117,5.986-3.608,8.744
			c-1.035,1.914-2.827,3.417-4.281,5.104c-3.527-0.981-7.025-2.087-10.588-2.908c-3.598-0.83-7.6-0.696-10.779-2.282
			c-2.223-1.107-4.137-1.829-6.499-1.701c-4.659-2.5-9.182-5.025-10.574-10.835c-0.919-3.835-2.323-7.553-3.51-11.324
			c5.545,2.441,10.947,5.314,16.671,7.219c8.032,2.673,16.278,4.728,24.488,6.832C105.994,129.645,108.969,129.712,111.867,130.077z
			"/>
		<path fill-rule="evenodd" clip-rule="evenodd" fill="#808080" d="M63.044,107.994c-3.098-2.73-6.358-5.308-9.175-8.303
			c-0.676-0.719-0.382-3.161,0.333-4.23c2.383-3.57,6.411-4.318,11.563-3.135c5.336,1.226,9.371,4.709,13.717,7.566
			c5.472,3.597,10.744,7.391,17.549,7.941c-7.24,4.022-14.503,2.085-21.639-0.173C71.133,106.312,67.077,104.415,63.044,107.994z"/>
		<path fill-rule="evenodd" clip-rule="evenodd" fill="#6E6D6E" d="M46.978,82.007c4.941,0.323,9.883,0.634,14.824,0.97
			c6.151,0.419,12.273-0.405,17.49-3.459c2.795-1.637,5.14-5.133,6.212-8.291c0.906-2.669-0.316-6.06-0.596-9.131
			c0.973-0.688,1.947-1.375,2.919-2.063c0.879,1.322,1.545,2.873,2.677,3.923c3.323,3.08,3.206,7.191,2.214,10.671
			c-0.877,3.076-3.684,5.601-5.639,8.37c-4.305,4.906-10.094,3.993-15.65,3.991c-1.827-0.001-3.679-0.193-5.477,0.034
			c-7.022,0.887-12.784-2.793-18.941-5.048L46.978,82.007z"/>
		<path fill-rule="evenodd" clip-rule="evenodd" fill="#838383" d="M87.827,60.033c-0.973,0.688-1.946,1.375-2.919,2.063
			c-0.648,0.01-1.328-0.105-1.94,0.05c-6.141,1.55-6.925,1.067-8.059-5.083c0.314-3.731-0.637-7.688,1.953-11.016
			c0,2.447,0,4.894,0,7.341c0.376-0.001,0.753-0.002,1.13-0.004c0-2.238-0.257-4.518,0.085-6.703
			c0.253-1.618,1.286-3.112,1.971-4.662c2.239,3.568,3.477,8.259,9.06,8.075C88.681,53.407,88.254,56.719,87.827,60.033z"/>
		<path fill-rule="evenodd" clip-rule="evenodd" fill="#292929" d="M94.825,43.966c-1.963,0.006-3.946,0.195-5.886-0.018
			c-5.471-0.599-7.834-5.44-4.972-9.975c4.237-0.68,7.479,1.036,10.232,4.116c0.704,0.787,1.729,1.288,2.606,1.919
			C96.146,41.328,95.485,42.647,94.825,43.966z"/>
		<path fill-rule="evenodd" clip-rule="evenodd" fill="#5B5A5A" d="M224.97,111.978c1.37,0.322,2.74,0.645,4.109,0.967
			c4.844,2.979,9.699,5.941,14.523,8.954c0.914,0.571,1.704,1.338,2.552,2.015c-0.52,0.078-1.04,0.155-1.56,0.233
			c-5.383-3.056-10.763-6.117-16.152-9.163c-1.124-0.635-2.281-1.213-3.422-1.818C225.002,112.77,224.986,112.374,224.97,111.978z"
			/>
		<path fill-rule="evenodd" clip-rule="evenodd" fill="#383838" d="M96.806,40.009c-0.878-0.632-1.902-1.132-2.606-1.919
			c-2.753-3.08-5.995-4.795-10.232-4.116c0.014-0.271,0.026-0.541,0.036-0.812c0.683-0.74,1.366-1.481,2.048-2.223l-0.085,0.137
			c1.232,0.307,2.448,0.786,3.697,0.891C95.369,32.445,96.864,34.082,96.806,40.009z"/>
		<path fill-rule="evenodd" clip-rule="evenodd" fill="#707070" d="M269.978,140.012c3.108,8.165,2.395,16.349,0.131,24.544
			c-0.41,1.486-0.785,2.982-1.176,4.473c0.371-3.73,0.278-7.584,1.218-11.166c1.528-5.828,1.11-11.257-1.491-16.608
			c-0.624-1.283-1.2-2.588-1.798-3.883c0.025-0.72,0.05-1.44,0.074-2.161c0.678,0.269,1.356,0.537,2.035,0.805l-0.069-0.074
			c0.279,0.175,0.342,0.408,0.188,0.699C269.386,137.766,269.682,138.889,269.978,140.012z"/>
		<path fill-rule="evenodd" clip-rule="evenodd" fill="#636161" d="M244.593,124.146c0.52-0.078,1.04-0.155,1.56-0.233
			c3.729,1.951,7.459,3.902,11.188,5.853c-0.476,0.442-0.952,0.883-1.428,1.325C252.141,128.777,248.367,126.462,244.593,124.146z"
			/>
		<path fill-rule="evenodd" clip-rule="evenodd" fill="#6F7070" d="M251.853,194.018c-2.606,2.313-5.221,4.619-7.814,6.946
			c-0.68,0.61-1.294,1.292-1.939,1.941c-1.05-0.005-2.1-0.01-3.149-0.015C243.251,199.933,247.552,196.976,251.853,194.018z"/>
		<path fill-rule="evenodd" clip-rule="evenodd" fill="#343334" d="M82.824,31.978c-1.595-1.273-3.19-2.545-4.786-3.818
			c0.92-1.396,1.839-2.792,3.422-5.194c0.353,2.935,0.585,4.872,0.742,6.176c0.813,2.526,3.801-1.971,3.765,1.935l0.085-0.137
			C84.976,31.285,83.9,31.631,82.824,31.978z"/>
		<path fill-rule="evenodd" clip-rule="evenodd" fill="#6F7070" d="M269.001,168.93c-0.742,5.747-4.272,9.895-7.993,13.933
			C263.673,178.218,266.337,173.574,269.001,168.93z"/>
		<path fill-rule="evenodd" clip-rule="evenodd" fill="#61605F" d="M266.937,135.211c-0.024,0.72-0.049,1.44-0.074,2.161
			c-1.771-1.367-5.022-1.055-5.025-4.428C263.537,133.7,265.237,134.456,266.937,135.211z"/>
		<path fill-rule="evenodd" clip-rule="evenodd" fill="#505050" d="M255.914,131.092c0.476-0.442,0.952-0.883,1.428-1.325
			c1.334,1.071,2.668,2.143,4.003,3.215C258.816,134.417,257.722,131.728,255.914,131.092z"/>
		<path fill-rule="evenodd" clip-rule="evenodd" fill="#6F7070" d="M259.858,185.023c-1.283,1.612-2.566,3.226-3.849,4.838
			C257.292,188.249,258.576,186.636,259.858,185.023z"/>
		<path fill-rule="evenodd" clip-rule="evenodd" fill="#B5B5B5" d="M150.01,106.017c0.357-0.577,0.714-1.153,1.072-1.73
			c0.2,0.2,0.399,0.399,0.599,0.599c-0.577,0.357-1.153,0.715-1.729,1.072L150.01,106.017z"/>
		<path fill-rule="evenodd" clip-rule="evenodd" fill="none" d="M76.112,137.034c2.362-0.128,4.276,0.594,6.499,1.701
			c3.179,1.585,7.181,1.452,10.779,2.282c3.563,0.821,7.062,1.927,10.588,2.908c-1.231,2.563-2.513,5.105-3.664,7.706
			c-0.314,0.709-0.233,1.593-0.333,2.397c-4.659-2.84-9.35-5.63-13.96-8.547c-1.637-1.036-3.123-2.328-4.596-3.597
			C79.609,140.319,77.879,138.655,76.112,137.034z"/>
		<path fill-rule="evenodd" clip-rule="evenodd" fill="#393838" d="M62.145,34.042c0.879-0.779,1.758-1.557,2.884-2.554
			c1.359,1.802,2.82,3.738,4.625,6.132c0.254-1.588,0.451-2.813,0.833-5.2c1.448,3.212,2.423,5.375,3.926,8.708
			c-1.659-1.271-2.394-1.834-3.361-2.576c0,1.303,0,2.423,0,3.543c-0.335,3.28-0.671,6.56-1.006,9.84
			c-0.054,1.086-0.108,2.173-0.163,3.26c-0.353-0.041-0.706-0.082-1.059-0.123c0.372-2.051,0.743-4.102,1.115-6.152
			c0.011-1.608,0.144-3.227,0.005-4.821c-0.251-2.887-2.563-4.406-5.974-4.08C63.362,38.027,62.754,36.035,62.145,34.042z"/>
		<path fill-rule="evenodd" clip-rule="evenodd" fill="#6E6D6E" d="M62.145,34.042c0.609,1.993,1.217,3.985,1.826,5.978l0.047-0.064
			c-0.356,0.994-0.712,1.989-1.068,2.983c-0.92-0.493-1.832-1.002-2.763-1.474c-1.041-0.527-2.1-1.018-3.15-1.525
			c-0.006-2.995-0.013-5.991-0.019-8.986l-0.049,0.068c1.002-0.112,2.004-0.224,3.006-0.336
			C60.698,31.805,61.422,32.924,62.145,34.042z"/>
		<path fill-rule="evenodd" clip-rule="evenodd" fill="#6E6D6E" d="M70.046,51.936c0.335-3.28,0.671-6.561,1.006-9.84
			c1.957,0.322,3.915,0.643,5.872,0.965c-0.021,0.996-0.042,1.99-0.063,2.986c-2.59,3.328-1.639,7.284-1.953,11.016
			C73.942,54.732,72.539,52.817,70.046,51.936z"/>
		<path fill-rule="evenodd" clip-rule="evenodd" fill="#6E6D6E" d="M63.971,40.02c3.411-0.326,5.723,1.193,5.974,4.08
			c0.139,1.595,0.005,3.213-0.005,4.821c-1.965-1.326-3.93-2.652-5.896-3.978c-0.008-1.663-0.017-3.325-0.025-4.988L63.971,40.02z"
			/>
		<path fill-rule="evenodd" clip-rule="evenodd" fill="#343334" d="M57.018,30.955c0.006,2.995,0.013,5.991,0.019,8.986
			c-0.47,2.041-0.94,4.083-1.41,6.124c-0.24-0.035-0.48-0.069-0.72-0.104c0.348-2.34,0.696-4.68,1.044-7.021
			C56.307,36.278,56.662,33.616,57.018,30.955z"/>
		<path fill-rule="evenodd" clip-rule="evenodd" fill="#343334" d="M64.019,39.956c0.009,1.663,0.017,3.325,0.025,4.988
			c-0.507,2.02-1.014,4.039-1.521,6.059c-0.215-0.018-0.43-0.037-0.645-0.055c0.357-2.669,0.714-5.339,1.072-8.008
			C63.306,41.944,63.663,40.95,64.019,39.956z"/>
		<path fill-rule="evenodd" clip-rule="evenodd" fill="#6E6D6E" d="M47.011,81.973c-0.906-0.127-1.812-0.254-3.007-0.422
			c1.884-1.394,1.884-1.394,2.974,0.456L47.011,81.973z"/>
		<path fill-rule="evenodd" clip-rule="evenodd" fill="#707070" d="M300.007,103.016c1.472-3.662,2.882-7.35,4.433-10.977
			c1.576-3.686,3.427-7.261,4.865-10.997c0.452-1.175-0.041-2.714-0.102-4.086c0.721-0.02,1.442-0.04,2.163-0.06
			c2.547,1.044,5.094,2.087,7.641,3.131c-1.975-0.337-3.95-0.674-5.925-1.011c-2.143-0.257-1.498,1.082-1.255,2.191
			c-0.618,0.687-1.412,1.283-1.827,2.076c-3.419,6.527-5.241,13.871-10.081,19.674L300.007,103.016z"/>
		<path fill-rule="evenodd" clip-rule="evenodd" fill="#615F5F" d="M296.963,55.994c-0.154-1.919,0.826-1.606,1.958-0.996
			c2.971,5.332,5.943,10.664,8.914,15.997c-0.353,0.456-0.706,0.912-1.059,1.368C303.504,66.906,300.233,61.45,296.963,55.994z"/>
		<path fill-rule="evenodd" clip-rule="evenodd" fill="#6F7070" d="M289.007,122.018c3.667-6.334,7.333-12.668,11-19.002
			l-0.087-0.059c-1.892,4.078-3.577,8.269-5.75,12.19c-1.373,2.477-3.475,4.55-5.249,6.805L289.007,122.018z"/>
		<path fill-rule="evenodd" clip-rule="evenodd" fill="#6F7070" d="M274.014,134.024c4.332-2.998,8.664-5.995,12.996-8.992
			l-0.08-0.083c-3.189,4.648-7.538,7.622-12.995,8.992L274.014,134.024z"/>
		<path fill-rule="evenodd" clip-rule="evenodd" fill="#605E5E" d="M306.775,72.362c0.353-0.456,0.706-0.912,1.059-1.368
			c1.178,1.967,2.355,3.935,3.533,5.902c-0.721,0.02-1.442,0.04-2.163,0.06C308.394,75.425,307.584,73.894,306.775,72.362z"/>
		<path fill-rule="evenodd" clip-rule="evenodd" fill="#6F7070" d="M268.971,136.017c1.681-0.665,3.361-1.329,5.042-1.993
			l-0.079-0.083c-0.883,2.664-3.067,2.057-5.032,2.001L268.971,136.017z"/>
		<path fill-rule="evenodd" clip-rule="evenodd" fill="#6F7070" d="M287.009,125.032c0.666-1.005,1.332-2.01,1.998-3.014
			l-0.085-0.066c-0.665,0.999-1.329,1.999-1.993,2.998L287.009,125.032z"/>
		<path fill-rule="evenodd" clip-rule="evenodd" fill="none" d="M313.083,79.016c1.975,0.337,3.95,0.674,5.925,1.011l-0.099-0.071
			c2.034,0.356,4.068,0.711,6.102,1.067l-0.103-0.066c0.664,0.342,1.352,1.021,1.988,0.975c8.81-0.646,17.648-1.119,26.399-2.252
			c3.341-0.433,6.479-2.437,9.71-3.724l-0.099,0.069c4.588-1.785,9.293-3.33,13.708-5.471c1.784-0.865,2.937-3.034,4.376-4.61
			l-0.095,0.092c0.426-0.245,0.852-0.49,1.589-0.914c0.164,0.574,0.445,1.102,0.446,1.63c0.025,13.395,0.158,26.792-0.108,40.182
			c-0.045,2.298-1.81,4.562-2.779,6.841c-0.402,0.417-0.804,0.834-1.206,1.251c-0.813,0.06-1.71-0.083-2.424,0.214
			c-3.104,1.297-6.059,3.029-9.248,4.032c-5.188,1.632-10.475,2.945-16.042,1.744c-5.355-1.155-10.753-2.111-16.133-3.154
			c-0.304-0.303-0.608-0.607-0.913-0.911c-0.716-1.297-1.432-2.594-2.149-3.892c-1.389-2.349-2.778-4.697-4.167-7.045
			c-1.574-2.818-3.179-5.619-4.715-8.457C319.706,91.388,316.402,85.198,313.083,79.016z"/>
		<path fill-rule="evenodd" clip-rule="evenodd" fill="none" d="M311.367,76.896c-1.178-1.967-2.355-3.935-3.533-5.902
			c-2.971-5.333-5.942-10.665-8.914-15.997c0.503-0.327,0.99-0.909,1.512-0.943c6.218-0.401,12.483-0.382,18.654-1.136
			c10.811-1.321,21.852-1.814,31.841-6.967c1.667-0.333,3.333-0.667,5-1c8.712-1.283,16.277-5.456,23.865-9.549
			c0.231-0.125,0.087-0.945,0.119-1.44c0.674-1.013,1.348-2.027,2.021-3.041c0.34,1.151,0.963,2.299,0.974,3.454
			c0.084,8.461,0.179,16.927-0.048,25.383c-0.057,2.108-1.278,4.186-1.964,6.277l0.095-0.092c-4.406,2.78-8.361,6.317-13.726,7.447
			c-1.568,0.331-2.912,1.727-4.358,2.634l0.099-0.069c-0.661,0.027-1.378-0.102-1.976,0.106c-11.709,4.1-23.887,4.699-36.121,4.895
			l0.103,0.066c-2.034-0.356-4.068-0.711-6.102-1.067l0.099,0.071C316.461,78.984,313.914,77.94,311.367,76.896z"/>
		<path fill-rule="evenodd" clip-rule="evenodd" fill="none" d="M378.836,115.027c0.402-0.417,0.804-0.834,1.206-1.251
			c0.788-0.512,1.575-1.024,2.91-1.892c0,9.476,0.091,18.553-0.041,27.625c-0.06,4.093-0.563,8.179-0.864,12.268
			c-0.737,0.748-1.474,1.497-2.211,2.246c-1.644,0.998-3.288,1.996-4.931,2.993l0.099-0.069c-2.715,0.345-5.459,1.113-8.136,0.921
			c-2.989-0.214-5.916-1.301-8.869-2.007c-1.294-1.387-2.588-2.772-3.883-4.158c-0.994-1.676-1.987-3.351-2.981-5.027
			c-2.447-4.216-4.893-8.431-7.339-12.647c-1.287-2.33-2.574-4.659-3.861-6.989c-1.292-2.347-2.584-4.695-3.875-7.043l0.034,0.121
			c8.156,0.907,16.123,3.723,24.542,1.916C367.102,120.644,373.709,119.815,378.836,115.027z"/>
		<path fill-rule="evenodd" clip-rule="evenodd" fill="none" d="M295.848,199.017c0.719-0.719,1.438-1.438,2.156-2.157
			c1.665-1.977,3.331-3.954,4.995-5.93l-0.074,0.093c0.691-1.03,1.383-2.062,2.074-3.093l-0.074,0.095
			c5.577-5.541,6.935-16.438,3.002-24.096l0.07,0.099c0.063-0.629,0.125-1.258,0.187-1.886c2.895,1.673,5.79,3.346,8.685,5.019
			c5.224,2.999,10.448,5.998,15.672,8.997c2.125,1.307,4.25,2.614,6.374,3.922c2.374,2.531,3.378,5.473,3.084,8.98
			c-0.222,2.639-0.064,5.311-0.075,7.968l0.07-0.099c-1.357,1.698-2.716,3.395-4.074,5.093l0.061-0.084
			c-2.235,0.346-4.469,0.978-6.706,0.99c-13.06,0.073-26.121,0.002-39.181-0.021C293.346,201.609,294.596,200.313,295.848,199.017z"
			/>
		<path fill-rule="evenodd" clip-rule="evenodd" fill="none" d="M379.836,154.022c0.737-0.749,1.474-1.498,2.211-2.246
			c0.302,1.029,0.863,2.058,0.867,3.089c0.056,14.694,0.038,29.389,0.024,44.083c0,0.431-0.147,0.861-0.327,1.839
			c-1.083-1.522-1.891-2.657-2.698-3.792c-2.662-4.649-5.323-9.298-7.984-13.946c-0.721-1.333-1.442-2.666-2.163-4
			c-0.258-0.36-0.517-0.721-0.775-1.082c-0.617-1.098-1.234-2.196-1.852-3.293c-1.7-2.65-3.4-5.3-5.101-7.949
			c-1.37-3.252-2.739-6.505-4.108-9.757l0.051,0.061c1.548,0.395,3.118,0.718,4.64,1.198c4.325,1.366,8.479,1.312,12.383-1.28
			l-0.099,0.069C377.293,157.245,378.919,156.218,379.836,154.022z"/>
		<path fill-rule="evenodd" clip-rule="evenodd" fill="none" d="M378.791,198.278c0.357,0.988,0.715,1.977,1.268,3.508
			c-1.687-0.673-2.896-1.155-4.106-1.639c-1.205-0.791-2.41-1.581-3.615-2.372c-3.338-1.99-6.676-3.981-10.015-5.972
			c-4.063-2.431-8.127-4.862-12.191-7.294c-2.055-1.188-4.109-2.374-6.164-3.563c-0.33-0.326-0.66-0.652-0.99-0.979
			c0.654-0.333,1.279-0.75,1.966-0.985c3.822-1.309,7.927-2.232,8.98-7.058c0.657-0.645,1.742-1.203,1.893-1.951
			c0.542-2.677,0.768-5.42,1.112-8.138c1.665,2.411,3.329,4.822,4.992,7.231c1.309,2.323,2.617,4.646,3.925,6.969
			c0.388,0.646,0.777,1.292,1.165,1.938c0.633,1.027,1.266,2.056,1.899,3.084c0.725,1.292,1.45,2.584,2.176,3.876
			C373.654,189.384,376.222,193.831,378.791,198.278z"/>
		<path fill-rule="evenodd" clip-rule="evenodd" fill="none" d="M375.953,201.886c-0.265,0.361-0.529,1.036-0.796,1.037
			c-11.928,0.05-23.855,0.051-35.783-0.008c-0.466-0.002-0.929-0.637-1.394-0.978l-0.061,0.084c1.358-1.698,2.716-3.395,4.074-5.093
			l-0.07,0.099c0.344-0.995,0.948-1.98,0.984-2.987c0.134-3.64,0.077-7.286,0.092-10.931c2.269,1.114,4.538,2.229,6.807,3.345
			c3.687,2.242,7.374,4.483,11.061,6.725c3.346,1.962,6.692,3.924,10.038,5.885C372.587,200.004,374.271,200.945,375.953,201.886z"
			/>
		<path fill-rule="evenodd" clip-rule="evenodd" fill="#605E5E" d="M378.791,198.278c-2.568-4.447-5.136-8.895-7.704-13.343
			c0.281-0.629,0.562-1.259,0.842-1.887c2.661,4.648,5.323,9.297,7.984,13.946C379.539,197.423,379.165,197.851,378.791,198.278z"/>
		<path fill-rule="evenodd" clip-rule="evenodd" fill="#505050" d="M375.953,201.886c-1.683-0.94-3.366-1.882-5.048-2.822
			c0.477-0.429,0.955-0.858,1.432-1.288c1.205,0.791,2.41,1.581,3.615,2.372C375.952,200.728,375.952,201.307,375.953,201.886z"/>
		<path fill-rule="evenodd" clip-rule="evenodd" fill="#6F7070" d="M295.848,199.017c-1.251,1.297-2.502,2.593-3.753,3.89
			c-0.731,0.012-1.462,0.022-2.192,0.034C291.883,201.633,293.866,200.324,295.848,199.017z"/>
		<path fill-rule="evenodd" clip-rule="evenodd" fill="none" d="M508.829,265.907c-0.001-2.496-0.005-4.991,0-7.486
			c0.012-5.633,4.398-9.253,10.041-8.179c5.043,0.96,8.294,4.142,9.881,8.87c1.905,5.677,1.759,11.485-0.057,17.157
			c-0.59,1.844-1.724,3.617-2.965,5.129c-2.613,3.182-6.867,4.336-10.308,3.111c-3.689-1.314-6.449-5.049-6.573-9.121
			C508.753,272.23,508.83,269.067,508.829,265.907z"/>
		<path fill-rule="evenodd" clip-rule="evenodd" fill="none" d="M347.953,266.036c0,2.998,0.057,5.997-0.014,8.994
			c-0.102,4.315-2.921,8.248-6.751,9.57c-3.764,1.3-8.197-0.328-10.958-4.025c-4.554-6.096-4.787-18.802-0.46-25.147
			c2.955-4.333,8.075-6.285,12.552-4.784c4.961,1.663,5.62,2.585,5.631,7.897C347.957,261.039,347.953,263.538,347.953,266.036z"/>
		<path fill-rule="evenodd" clip-rule="evenodd" fill="none" d="M618.901,264.794c-7.793,0-15.229,0-22.673,0
			c0.557-8.752,5.593-14.935,11.896-14.765C614.28,250.195,618.955,256.404,618.901,264.794z"/>
		<path fill-rule="evenodd" clip-rule="evenodd" fill="none" d="M842.849,264.772c-7.81,0-15.241,0-22.68,0
			c0.33-8.549,5.519-14.9,11.891-14.743C838.243,250.182,842.875,256.335,842.849,264.772z"/>
		<path fill-rule="evenodd" clip-rule="evenodd" fill="none" d="M461.985,264.602c-0.283-7.536,4.819-14.381,11.713-14.554
			c6.074-0.151,10.474,5.6,11.157,14.554C477.315,264.602,469.792,264.602,461.985,264.602z"/>
		<path fill-rule="evenodd" clip-rule="evenodd" fill="none" d="M261.362,267.766c-0.89,3.745-1.385,7.571-2.738,11.064
			c-1.547,3.991-4.752,6.224-9.317,6.169c-4.5-0.054-7.679-2.122-9.32-6.188c-2.979-7.381-2.957-14.906-0.1-22.311
			c1.575-4.08,4.825-6.374,9.217-6.437c4.581-0.064,8.128,2.123,9.642,6.479C259.98,260.094,260.49,263.895,261.362,267.766z"/>
		<path fill-rule="evenodd" clip-rule="evenodd" fill="#343334" d="M76.862,46.046c0.021-0.996,0.042-1.99,0.063-2.986
			c0.285-0.588,0.92-1.604,0.801-1.701c-2.544-2.087-0.6-3.828,0.422-6.593c0.784,2.991,1.342,5.122,1.9,7.252
			c-0.685,1.55-1.717,3.044-1.971,4.662c-0.342,2.185-0.085,4.464-0.085,6.703c-0.376,0.001-0.753,0.002-1.13,0.004
			C76.862,50.94,76.862,48.494,76.862,46.046z"/>
		<path fill-rule="evenodd" clip-rule="evenodd" fill="none" d="M70.114,25.918c0.929-1.265,1.859-2.53,2.788-3.795
			c-0.338,1.281-0.676,2.562-1.013,3.842C71.297,25.95,70.706,25.934,70.114,25.918z"/>
		<path fill-rule="evenodd" clip-rule="evenodd" fill="none" d="M82.824,31.978c1.076-0.346,2.152-0.692,3.228-1.039
			c-0.683,0.741-1.365,1.482-2.048,2.223C83.611,32.767,83.218,32.373,82.824,31.978z"/>
		<path fill-rule="evenodd" clip-rule="evenodd" fill="#62605F" d="M269.978,140.012c-0.295-1.124-0.591-2.247-0.887-3.371
			c1.307,0.686,2.648,1.313,3.915,2.066c9.66,5.749,19.305,11.521,28.955,17.287c-0.006,0.693-0.012,1.387-0.019,2.08
			c-5.795-3.302-11.582-6.617-17.388-9.9C279.707,145.434,274.837,142.731,269.978,140.012z"/>
		<path fill-rule="evenodd" clip-rule="evenodd" fill="#707070" d="M301.942,158.075c0.007-0.693,0.013-1.387,0.019-2.08
			c1.098-0.036,2.419,0.313,3.257-0.172c4.329-2.509,8.534-5.231,12.783-7.879c-0.668,1.011-1.118,2.343-2.045,2.974
			c-3.562,2.425-7.276,4.627-10.934,6.913c1.054,1.438,2.108,2.873,3.162,4.311c-0.063,0.628-0.125,1.257-0.187,1.886
			C305.979,162.043,303.961,160.059,301.942,158.075z"/>
		<path fill-rule="evenodd" clip-rule="evenodd" fill="#6F7070" d="M307.927,163.929c3.933,7.658,2.575,18.555-3.002,24.096
			c0.357-1.069,0.551-2.23,1.097-3.192c3.237-5.702,3.948-11.641,2.033-17.93C307.775,165.983,307.958,164.924,307.927,163.929z"/>
		<path fill-rule="evenodd" clip-rule="evenodd" fill="#6F7070" d="M302.999,190.93c-1.665,1.976-3.33,3.953-4.995,5.93
			C299.669,194.883,301.334,192.905,302.999,190.93z"/>
		<path fill-rule="evenodd" clip-rule="evenodd" fill="#6F7070" d="M304.999,187.93c-0.691,1.031-1.383,2.063-2.074,3.093
			C303.616,189.992,304.308,188.961,304.999,187.93z"/>
		<path fill-rule="evenodd" clip-rule="evenodd" fill="none" d="M318,147.944c-4.249,2.648-8.454,5.37-12.783,7.879
			c-0.837,0.485-2.159,0.136-3.257,0.172c-9.65-5.766-19.295-11.539-28.955-17.287c-1.267-0.753-2.608-1.38-3.915-2.066
			c0.153-0.292,0.091-0.524-0.188-0.699c1.965,0.056,4.149,0.663,5.032-2.001c5.457-1.37,9.806-4.343,12.995-8.992
			c0.665-0.999,1.329-1.999,1.993-2.998c1.774-2.254,3.876-4.328,5.249-6.805c2.173-3.921,3.857-8.113,5.75-12.19
			c4.839-5.803,6.661-13.146,10.081-19.674c0.416-0.793,1.209-1.389,1.827-2.076c5.001,8.685,10.001,17.37,15.002,26.054
			c1.421,2.563,2.842,5.125,4.263,7.687c0.337,0.671,0.674,1.343,1.011,2.015c2.319,3.583,2.056,6.959-0.708,10.218
			c-0.37,0.438-0.328,1.224-0.477,1.849l0.074-0.094c-1.69,2.698-3.381,5.397-5.072,8.095l0.074-0.095
			c-1.358,2.031-2.716,4.063-4.074,6.094l0.074-0.094c-1.357,1.698-2.716,3.396-4.074,5.093L318,147.944z"/>
		<path fill-rule="evenodd" clip-rule="evenodd" fill="#505050" d="M326.831,107.261c-5.001-8.684-10.001-17.369-15.002-26.054
			c-0.243-1.109-0.888-2.448,1.255-2.191c3.319,6.182,6.623,12.372,9.962,18.542c1.537,2.838,3.142,5.639,4.715,8.457
			C327.451,106.431,327.141,106.846,326.831,107.261z"/>
		<path fill-rule="evenodd" clip-rule="evenodd" fill="#6F7070" d="M378.836,115.027c-5.127,4.789-11.735,5.617-18.202,7.005
			c-8.419,1.807-16.386-1.008-24.542-1.916c-0.368-0.751-0.735-1.502-1.103-2.254c5.379,1.043,10.777,1.999,16.133,3.154
			c5.567,1.201,10.854-0.112,16.042-1.744c3.189-1.003,6.144-2.734,9.248-4.032C377.126,114.943,378.024,115.086,378.836,115.027z"
			/>
		<path fill-rule="evenodd" clip-rule="evenodd" fill="#6F7070" d="M324.908,80.957c12.234-0.195,24.412-0.795,36.121-4.895
			c0.598-0.208,1.314-0.079,1.976-0.106c-3.23,1.288-6.369,3.292-9.71,3.724c-8.75,1.133-17.589,1.606-26.399,2.252
			C326.26,81.979,325.571,81.299,324.908,80.957z"/>
		<path fill-rule="evenodd" clip-rule="evenodd" fill="#6F7070" d="M362.905,76.025c1.446-0.907,2.79-2.304,4.358-2.634
			c5.365-1.129,9.32-4.667,13.726-7.447c-1.439,1.576-2.592,3.745-4.376,4.61C372.198,72.696,367.494,74.241,362.905,76.025z"/>
		<path fill-rule="evenodd" clip-rule="evenodd" fill="#6F6F6F" d="M334.99,117.863c0.368,0.751,0.735,1.502,1.103,2.254
			l-0.034-0.121c-0.076,1.07-0.152,2.14-0.228,3.21c-0.619,0.647-1.277,1.262-1.847,1.95c-1.049,1.269-2.046,2.58-3.064,3.874
			c0.149-0.625,0.107-1.412,0.477-1.849c2.764-3.259,3.027-6.635,0.708-10.218c0.658-0.003,1.315-0.006,1.973-0.01
			C334.381,117.256,334.686,117.56,334.99,117.863z"/>
		<path fill-rule="evenodd" clip-rule="evenodd" fill="#505050" d="M326.831,107.261c0.31-0.415,0.62-0.83,0.93-1.246
			c1.39,2.348,2.778,4.697,4.167,7.045c-0.278,0.629-0.556,1.258-0.834,1.887C329.672,112.385,328.252,109.823,326.831,107.261z"/>
		<path fill-rule="evenodd" clip-rule="evenodd" fill="#5D5C5C" d="M331.094,114.947c0.278-0.629,0.557-1.258,0.834-1.887
			c0.717,1.297,1.433,2.594,2.149,3.892c-0.658,0.003-1.315,0.007-1.973,0.01C331.768,116.291,331.431,115.619,331.094,114.947z"/>
		<path fill-rule="evenodd" clip-rule="evenodd" fill="#6F7070" d="M318.909,79.956c2.034,0.356,4.068,0.711,6.102,1.067
			C322.977,80.667,320.943,80.312,318.909,79.956z"/>
		<path fill-rule="evenodd" clip-rule="evenodd" fill="#717171" d="M356.929,161.837c-0.345,2.718-0.57,5.461-1.112,8.138
			c-0.151,0.748-1.236,1.307-1.893,1.951l0.072,0.087c1.302-6.091,2.37-12.171-0.806-18.062c0.309-0.75,0.618-1.5,0.927-2.249
			c1.294,1.386,2.588,2.771,3.883,4.158c-0.006,0.389-0.012,0.778-0.018,1.168l-0.051-0.061c-1.12-0.405-2.342-0.971-1.848,1.172
			C356.365,159.372,356.646,160.604,356.929,161.837z"/>
		<path fill-rule="evenodd" clip-rule="evenodd" fill="#505050" d="M343.795,134.028c2.446,4.216,4.893,8.431,7.339,12.647
			c-0.382,0.432-0.764,0.864-1.146,1.295c-2.4-4.229-4.802-8.458-7.203-12.686C343.123,134.865,343.459,134.446,343.795,134.028z"/>
		<path fill-rule="evenodd" clip-rule="evenodd" fill="#6F7070" d="M357.98,157.028c0.006-0.39,0.012-0.779,0.018-1.168
			c2.954,0.706,5.88,1.793,8.869,2.007c2.676,0.192,5.421-0.576,8.136-0.921c-3.904,2.592-8.058,2.646-12.383,1.28
			C361.099,157.746,359.529,157.423,357.98,157.028z"/>
		<path fill-rule="evenodd" clip-rule="evenodd" fill="#505050" d="M335.831,123.206c0.076-1.07,0.152-2.14,0.228-3.21
			c1.292,2.348,2.583,4.696,3.875,7.043c-0.28,0.642-0.561,1.284-0.841,1.926C338.006,127.045,336.918,125.126,335.831,123.206z"/>
		<path fill-rule="evenodd" clip-rule="evenodd" fill="#605E5E" d="M339.093,128.965c0.28-0.642,0.561-1.284,0.841-1.926
			c1.287,2.33,2.574,4.659,3.861,6.989c-0.336,0.418-0.672,0.837-1.009,1.256C341.555,133.178,340.325,131.071,339.093,128.965z"/>
		<path fill-rule="evenodd" clip-rule="evenodd" fill="#636161" d="M349.989,147.97c0.382-0.432,0.764-0.863,1.146-1.295
			c0.994,1.676,1.987,3.352,2.981,5.027c-0.309,0.749-0.618,1.499-0.927,2.249C352.123,151.957,351.056,149.964,349.989,147.97z"/>
		<path fill-rule="evenodd" clip-rule="evenodd" fill="#6F7070" d="M379.836,154.022c-0.917,2.195-2.543,3.223-4.931,2.993
			C376.548,156.019,378.192,155.021,379.836,154.022z"/>
		<path fill-rule="evenodd" clip-rule="evenodd" fill="#6F6F6F" d="M343,183.109c-0.015,3.645,0.042,7.291-0.092,10.931
			c-0.037,1.007-0.641,1.992-0.984,2.987c0.011-2.657-0.147-5.329,0.075-7.968c0.294-3.508-0.71-6.449-3.084-8.98
			c0.462-0.411,0.925-0.823,1.388-1.234c5.441-0.52,9.743-3.323,13.692-6.832l-0.072-0.087c-1.053,4.825-5.158,5.749-8.98,7.058
			c-0.687,0.235-1.312,0.652-1.966,0.985c-3.267,0.927-1.065,1.856-0.002,2.786L343,183.109z"/>
		<path fill-rule="evenodd" clip-rule="evenodd" fill="#5E5D5C" d="M332.542,176.157c-5.224-2.999-10.448-5.998-15.672-8.997
			c0.499-0.445,0.997-0.89,1.496-1.335c5.195,3.097,10.391,6.194,15.586,9.292C333.48,175.463,333.011,175.81,332.542,176.157z"/>
		<path fill-rule="evenodd" clip-rule="evenodd" fill="#605F5E" d="M318.365,165.825c-0.499,0.445-0.997,0.89-1.496,1.335
			c-2.895-1.673-5.79-3.346-8.685-5.019c-1.054-1.438-2.108-2.873-3.162-4.311C309.47,160.495,313.917,163.16,318.365,165.825z"/>
		<path fill-rule="evenodd" clip-rule="evenodd" fill="#646261" d="M332.542,176.157c0.47-0.348,0.939-0.694,1.409-1.04
			c2.118,1.242,4.235,2.484,6.353,3.728c-0.462,0.411-0.925,0.823-1.388,1.234C336.791,178.771,334.666,177.464,332.542,176.157z"/>
		<path fill-rule="evenodd" clip-rule="evenodd" fill="#6F7070" d="M341.994,196.929c-1.357,1.698-2.716,3.395-4.074,5.093
			C339.278,200.323,340.637,198.627,341.994,196.929z"/>
		<path fill-rule="evenodd" clip-rule="evenodd" fill="#5A5959" d="M356.929,161.837c-0.282-1.232-0.564-2.465-0.848-3.697
			c-0.494-2.143,0.728-1.577,1.848-1.172c1.37,3.252,2.739,6.505,4.108,9.757c-0.039,0.781-0.078,1.563-0.117,2.344
			C360.257,166.659,358.593,164.248,356.929,161.837z"/>
		<path fill-rule="evenodd" clip-rule="evenodd" fill="#505050" d="M361.921,169.068c0.039-0.781,0.078-1.563,0.117-2.344
			c1.701,2.649,3.401,5.299,5.101,7.949c-0.431,0.455-0.862,0.909-1.292,1.363C364.538,173.715,363.229,171.392,361.921,169.068z"/>
		<path fill-rule="evenodd" clip-rule="evenodd" fill="#505050" d="M371.929,183.049c-0.281,0.628-0.562,1.258-0.842,1.887
			c-0.726-1.292-1.451-2.584-2.176-3.876c0.285-0.67,0.57-1.34,0.855-2.011C370.487,180.383,371.208,181.716,371.929,183.049z"/>
		<path fill-rule="evenodd" clip-rule="evenodd" fill="#646362" d="M365.846,176.037c0.431-0.454,0.862-0.908,1.292-1.363
			c0.618,1.097,1.235,2.195,1.852,3.293c-0.66,0.003-1.319,0.006-1.979,0.009C366.623,177.329,366.234,176.684,365.846,176.037z"/>
		<path fill-rule="evenodd" clip-rule="evenodd" fill="#696666" d="M367.011,177.976c0.66-0.003,1.32-0.006,1.979-0.009
			c0.259,0.361,0.517,0.722,0.775,1.082c-0.285,0.671-0.57,1.341-0.855,2.011C368.277,180.031,367.645,179.003,367.011,177.976z"/>
		<path fill-rule="evenodd" clip-rule="evenodd" fill="#636161" d="M360.868,193.179c-3.687-2.241-7.374-4.482-11.061-6.725
			c0.108-0.648,0.216-1.296,0.324-1.944c4.063,2.432,8.127,4.863,12.191,7.294C361.837,192.262,361.353,192.721,360.868,193.179z"/>
		<path fill-rule="evenodd" clip-rule="evenodd" fill="#5E5D5C" d="M360.868,193.179c0.485-0.458,0.97-0.917,1.455-1.375
			c3.338,1.99,6.676,3.981,10.015,5.972c-0.477,0.43-0.955,0.859-1.432,1.288C367.56,197.103,364.214,195.141,360.868,193.179z"/>
		<path fill-rule="evenodd" clip-rule="evenodd" fill="#5E5D5C" d="M350.131,184.51c-0.108,0.648-0.216,1.296-0.324,1.944
			c-2.269-1.115-4.538-2.23-6.807-3.345l-0.025-0.354c0.331-0.603,0.662-1.205,0.992-1.808
			C346.022,182.136,348.077,183.322,350.131,184.51z"/>
		<path fill-rule="evenodd" clip-rule="evenodd" fill="#5E5C5C" d="M343.968,180.947c-0.331,0.603-0.662,1.205-0.992,1.808
			c-1.063-0.93-3.265-1.859,0.002-2.786C343.308,180.295,343.638,180.621,343.968,180.947z"/>
		<path fill-rule="evenodd" clip-rule="evenodd" fill="none" d="M340.303,178.845c-2.118-1.243-4.235-2.485-6.353-3.728
			c-5.195-3.098-10.391-6.195-15.586-9.292c-4.448-2.665-8.895-5.33-13.343-7.994c3.658-2.285,7.373-4.487,10.934-6.913
			c0.927-0.631,1.376-1.963,2.045-2.974c0,0-0.078,0.084-0.078,0.084c1.358-1.698,2.716-3.396,4.074-5.093l-0.074,0.094
			c2.469-1.289,3.712-3.396,4.074-6.094l-0.074,0.095c2.815-1.994,4.94-4.42,5.072-8.095l-0.074,0.094
			c1.019-1.293,2.015-2.605,3.064-3.874c0.569-0.688,1.228-1.302,1.847-1.95c1.087,1.92,2.175,3.839,3.262,5.759
			c1.231,2.106,2.462,4.212,3.693,6.319c2.401,4.229,4.802,8.458,7.203,12.686c1.067,1.994,2.134,3.987,3.2,5.981
			c3.176,5.891,2.108,11.971,0.806,18.062C350.046,175.521,345.744,178.325,340.303,178.845z"/>
		<path fill-rule="evenodd" clip-rule="evenodd" fill="#6F7070" d="M330.994,128.935c-0.132,3.675-2.257,6.101-5.072,8.095
			C327.613,134.332,329.304,131.633,330.994,128.935z"/>
		<path fill-rule="evenodd" clip-rule="evenodd" fill="#6F7070" d="M325.996,136.936c-0.362,2.697-1.605,4.805-4.074,6.094
			C323.28,140.998,324.638,138.967,325.996,136.936z"/>
		<path fill-rule="evenodd" clip-rule="evenodd" fill="#6F7070" d="M321.997,142.935c-1.357,1.698-2.716,3.396-4.074,5.093
			C319.281,146.331,320.639,144.633,321.997,142.935z"/>
	</g>
</g>
</svg>
